<svg xmlns="http://www.w3.org/2000/svg" width="34" height="44" viewBox="0 0 34 44" fill="none">
  <path fill-rule="evenodd" clip-rule="evenodd" d="M17.1983 0C11.7485 4.39822 0.848864 15.9863 0.848473 27.1537H0.848282C0.848282 29.2882 1.26994 31.4018 2.08919 33.3738C2.90844 35.3459 4.10923 37.1377 5.62301 38.647C7.13678 40.1564 8.93389 41.3536 10.9117 42.1705C12.8896 42.9873 15.0094 43.4077 17.1502 43.4077V43.3956C17.1822 43.3948 17.2142 43.3939 17.2461 43.3928V43.4077C19.3869 43.4077 21.5067 42.9873 23.4846 42.1705C25.4624 41.3536 27.2595 40.1564 28.7733 38.647C30.2871 37.1377 31.4879 35.3459 32.3071 33.3738C33.1263 31.402 33.548 29.2886 33.548 27.1543H33.5481C33.5481 15.9868 22.6482 4.39829 17.1983 0Z" fill="#6A0000"/>
</svg>