<svg xmlns="http://www.w3.org/2000/svg" width="34" height="44" viewBox="0 0 34 44" fill="none">
  <path fill-rule="evenodd" clip-rule="evenodd" d="M16.8981 0.407959C11.4483 4.80617 0.548708 16.3943 0.548317 27.5616H0.548126C0.548126 29.6961 0.969789 31.8097 1.78904 33.7818C2.60829 35.7538 3.80908 37.5457 5.32285 39.055C6.83663 40.5643 8.63374 41.7616 10.6116 42.5784C12.5894 43.3953 14.7093 43.8157 16.8501 43.8157V43.8036C16.882 43.8028 16.914 43.8018 16.9459 43.8008V43.8157C19.0867 43.8157 21.2066 43.3953 23.1844 42.5784C25.1623 41.7616 26.9594 40.5643 28.4732 39.055C29.9869 37.5457 31.1877 35.7538 32.007 33.7818C32.8261 31.8099 33.2478 29.6965 33.2479 27.5622H33.248C33.248 16.3947 22.3481 4.80625 16.8981 0.407959Z" fill="#FFB60B"/>
</svg>