<svg xmlns="http://www.w3.org/2000/svg" width="33" height="44" viewBox="0 0 33 44" fill="none">
  <mask id="path-1-inside-1_2066_240" fill="white">
    <path fill-rule="evenodd" clip-rule="evenodd" d="M16.4985 0.407959C11.0486 4.80617 0.149019 16.3943 0.148628 27.5616H0.148438C0.148438 29.6961 0.5701 31.8097 1.38935 33.7818C2.2086 35.7538 3.40939 37.5457 4.92316 39.055C6.43694 40.5643 8.23405 41.7616 10.2119 42.5784C12.1897 43.3953 14.3096 43.8157 16.4504 43.8157V43.8036C16.4824 43.8028 16.5143 43.8018 16.5463 43.8008V43.8157C18.6871 43.8157 20.8069 43.3953 22.7847 42.5784C24.7626 41.7616 26.5597 40.5643 28.0735 39.055C29.5872 37.5457 30.788 35.7538 31.6073 33.7818C32.4265 31.8099 32.8481 29.6965 32.8482 27.5622H32.8483C32.8483 16.3947 21.9484 4.80625 16.4985 0.407959Z"/>
  </mask>
  <path fill-rule="evenodd" clip-rule="evenodd" d="M16.4985 0.407959C11.0486 4.80617 0.149019 16.3943 0.148628 27.5616H0.148438C0.148438 29.6961 0.5701 31.8097 1.38935 33.7818C2.2086 35.7538 3.40939 37.5457 4.92316 39.055C6.43694 40.5643 8.23405 41.7616 10.2119 42.5784C12.1897 43.3953 14.3096 43.8157 16.4504 43.8157V43.8036C16.4824 43.8028 16.5143 43.8018 16.5463 43.8008V43.8157C18.6871 43.8157 20.8069 43.3953 22.7847 42.5784C24.7626 41.7616 26.5597 40.5643 28.0735 39.055C29.5872 37.5457 30.788 35.7538 31.6073 33.7818C32.4265 31.8099 32.8481 29.6965 32.8482 27.5622H32.8483C32.8483 16.3947 21.9484 4.80625 16.4985 0.407959Z" fill="white"/>
  <path d="M0.148628 27.5616V29.5616H2.14856L2.14863 27.5617L0.148628 27.5616ZM16.4985 0.407959L17.7545 -1.14842L16.4985 -2.1621L15.2424 -1.14842L16.4985 0.407959ZM0.148438 27.5616V25.5616H-1.85156V27.5616H0.148438ZM1.38935 33.7818L-0.457614 34.5491H-0.457613L1.38935 33.7818ZM4.92316 39.055L3.51103 40.4713H3.51103L4.92316 39.055ZM16.4504 43.8157L16.4504 45.8157L18.4504 45.8157V43.8157H16.4504ZM16.4504 43.8036L16.4008 41.8042L14.4504 41.8526V43.8036H16.4504ZM16.5463 43.8008H18.5463V41.7332L16.4799 41.8019L16.5463 43.8008ZM16.5463 43.8157H14.5463V45.8157L16.5463 45.8157L16.5463 43.8157ZM31.6073 33.7818L33.4542 34.5491L31.6073 33.7818ZM32.8482 27.5622V25.5622H30.8483L30.8482 27.5621L32.8482 27.5622ZM32.8483 27.5622V29.5622H34.8483V27.5622H32.8483ZM2.14863 27.5617C2.1488 22.5837 4.60316 17.3068 7.91587 12.597C11.2027 7.92401 15.1568 4.06075 17.7545 1.96434L15.2424 -1.14842C12.3902 1.15338 8.16969 5.28329 4.64412 10.2958C1.14448 15.2714 -1.85116 21.3722 -1.85137 27.5615L2.14863 27.5617ZM0.148438 29.5616H0.148628V25.5616H0.148438V29.5616ZM3.23631 33.0145C2.51805 31.2855 2.14844 29.4327 2.14844 27.5616H-1.85156C-1.85156 29.9596 -1.37785 32.3339 -0.457614 34.5491L3.23631 33.0145ZM6.3353 37.6387C5.00752 36.3148 3.95458 34.7435 3.23631 33.0145L-0.457613 34.5491C0.462616 36.7642 1.81126 38.7765 3.51103 40.4713L6.3353 37.6387ZM10.9753 40.7299C9.23972 40.0131 7.66309 38.9626 6.3353 37.6387L3.51103 40.4713C5.21079 42.166 7.22837 43.5101 9.44844 44.427L10.9753 40.7299ZM16.4504 41.8157C14.5714 41.8157 12.711 41.4467 10.9753 40.7299L9.44844 44.427C11.6685 45.3439 14.0477 45.8157 16.4504 45.8157L16.4504 41.8157ZM14.4504 43.8036V43.8157H18.4504V43.8036H14.4504ZM16.5 45.803C16.5377 45.802 16.5753 45.8009 16.6127 45.7997L16.4799 41.8019C16.4534 41.8028 16.427 41.8035 16.4008 41.8042L16.5 45.803ZM18.5463 43.8157V43.8008H14.5463V43.8157H18.5463ZM22.0213 40.7299C20.2857 41.4467 18.4252 41.8157 16.5463 41.8157L16.5463 45.8157C18.9489 45.8157 21.3281 45.3439 23.5482 44.427L22.0213 40.7299ZM26.6613 37.6387C25.3335 38.9626 23.7569 40.0131 22.0213 40.7299L23.5482 44.427C25.7683 43.5101 27.7858 42.166 29.4856 40.4713L26.6613 37.6387ZM29.7603 33.0145C29.0421 34.7435 27.9891 36.3148 26.6613 37.6387L29.4856 40.4713C31.1854 38.7765 32.534 36.7642 33.4542 34.5491L29.7603 33.0145ZM30.8482 27.5621C30.8481 29.433 30.4785 31.2857 29.7603 33.0145L33.4542 34.5491C34.3744 32.3342 34.8481 29.96 34.8482 27.5623L30.8482 27.5621ZM32.8483 25.5622H32.8482V29.5622H32.8483V25.5622ZM15.2424 1.96434C17.8401 4.06079 21.7944 7.92415 25.0812 12.5972C28.394 17.3072 30.8483 22.5842 30.8483 27.5622H34.8483C34.8483 21.3728 31.8527 15.2718 28.353 10.296C24.8274 5.28344 20.6067 1.15342 17.7545 -1.14842L15.2424 1.96434Z" fill="#D2D2D2" mask="url(#path-1-inside-1_2066_240)"/>
</svg>