<svg xmlns="http://www.w3.org/2000/svg" width="34" height="44" viewBox="0 0 34 44" fill="none">
  <path fill-rule="evenodd" clip-rule="evenodd" d="M17.1983 0.407959C11.7485 4.80617 0.848864 16.3943 0.848473 27.5616H0.848282C0.848282 29.6961 1.26994 31.8097 2.08919 33.7818C2.90844 35.7538 4.10923 37.5457 5.62301 39.055C7.13678 40.5643 8.93389 41.7616 10.9117 42.5784C12.8896 43.3953 15.0094 43.8157 17.1502 43.8157V43.8036C17.1822 43.8028 17.2142 43.8018 17.2461 43.8008V43.8157C19.3869 43.8157 21.5067 43.3953 23.4846 42.5784C25.4624 41.7616 27.2595 40.5643 28.7733 39.055C30.2871 37.5457 31.4879 35.7538 32.3071 33.7818C33.1263 31.8099 33.548 29.6965 33.548 27.5622H33.5481C33.5481 16.3947 22.6482 4.80625 17.1983 0.407959Z" fill="#C598FF"/>
</svg>