<svg xmlns="http://www.w3.org/2000/svg" width="34" height="44" viewBox="0 0 34 44" fill="none">
  <path fill-rule="evenodd" clip-rule="evenodd" d="M16.8981 0C11.4483 4.39822 0.548708 15.9863 0.548317 27.1537H0.548126C0.548126 29.2882 0.969789 31.4018 1.78904 33.3738C2.60829 35.3459 3.80908 37.1377 5.32285 38.647C6.83663 40.1564 8.63374 41.3536 10.6116 42.1705C12.5894 42.9873 14.7093 43.4077 16.8501 43.4077V43.3956C16.882 43.3948 16.914 43.3939 16.9459 43.3928V43.4077C19.0867 43.4077 21.2066 42.9873 23.1844 42.1705C25.1623 41.3536 26.9594 40.1564 28.4732 38.647C29.9869 37.1377 31.1877 35.3459 32.007 33.3738C32.8261 31.402 33.2478 29.2886 33.2479 27.1543H33.248C33.248 15.9868 22.3481 4.39829 16.8981 0Z" fill="#CFDEA6"/>
</svg>