<svg xmlns="http://www.w3.org/2000/svg" width="33" height="44" viewBox="0 0 33 44" fill="none">
  <path fill-rule="evenodd" clip-rule="evenodd" d="M16.4985 0C11.0486 4.39822 0.149019 15.9863 0.148628 27.1537H0.148438C0.148438 29.2882 0.5701 31.4018 1.38935 33.3738C2.2086 35.3459 3.40939 37.1377 4.92316 38.647C6.43694 40.1564 8.23405 41.3536 10.2119 42.1705C12.1897 42.9873 14.3096 43.4077 16.4504 43.4077V43.3956C16.4824 43.3948 16.5143 43.3939 16.5463 43.3928V43.4077C18.6871 43.4077 20.8069 42.9873 22.7847 42.1705C24.7626 41.3536 26.5597 40.1564 28.0735 38.647C29.5872 37.1377 30.788 35.3459 31.6073 33.3738C32.4265 31.402 32.8481 29.2886 32.8482 27.1543H32.8483C32.8483 15.9868 21.9484 4.39829 16.4985 0Z" fill="#32DEE7"/>
</svg>