<svg width="391" height="93" viewBox="0 0 391 93" fill="none" xmlns="http://www.w3.org/2000/svg">
<path fill-rule="evenodd" clip-rule="evenodd" d="M-119.725 4.48501C-119.8 4.48428 -119.874 4.48391 -119.95 4.48391V0.42627C-114.372 0.42627 -111.453 2.21433 -108.88 3.7914C-106.457 5.2765 -104.363 6.55871 -99.9293 6.55871C-95.4972 6.55871 -93.4061 5.27743 -90.9835 3.79302L-90.9808 3.7914L-90.9794 3.79056C-88.4045 2.21369 -85.4858 0.42627 -79.9116 0.42627C-74.3364 0.42627 -71.4149 2.21433 -68.8424 3.7914C-66.4186 5.2765 -64.3249 6.55871 -59.8912 6.55871C-55.4592 6.55871 -53.3681 5.27743 -50.9454 3.79303L-50.9428 3.7914L-50.9414 3.79056C-48.3665 2.2137 -45.4477 0.42627 -39.8735 0.42627C-34.2993 0.42627 -31.3806 2.2137 -28.8057 3.79056L-28.8043 3.7914C-26.3805 5.2765 -24.2868 6.55871 -19.8559 6.55871C-15.4262 6.55871 -13.3324 5.27722 -10.9068 3.79265L-10.9047 3.7914L-10.9033 3.79055C-8.32841 2.21369 -5.40968 0.42627 0.16452 0.42627C5.73872 0.42627 8.65747 2.2137 11.2324 3.79056L11.2337 3.7914C13.6575 5.2765 15.7513 6.55871 20.1822 6.55871C24.6131 6.55871 26.7069 5.2765 29.1306 3.7914L29.132 3.79055C31.707 2.21369 34.6257 0.42627 40.1999 0.42627C45.7751 0.42627 48.6966 2.21433 51.2691 3.7914C53.6929 5.2765 55.7866 6.55871 60.2202 6.55871C64.6523 6.55871 66.7434 5.27742 69.1661 3.793L69.1687 3.7914L69.1701 3.79053C71.745 2.21368 74.6637 0.42627 80.2379 0.42627C85.8121 0.42627 88.7309 2.21371 91.3058 3.79057L91.3072 3.7914C93.7309 5.2765 95.8247 6.55871 100.256 6.55871C104.687 6.55871 106.78 5.2765 109.204 3.7914L109.205 3.79056C111.78 2.2137 114.699 0.42627 120.273 0.42627C125.848 0.42627 128.77 2.21433 131.343 3.7914C133.766 5.2765 135.86 6.55871 140.291 6.55871C144.722 6.55871 146.818 5.2765 149.242 3.7914L149.243 3.79055C151.818 2.21369 154.737 0.42627 160.311 0.42627C165.887 0.42627 168.808 2.21433 171.381 3.7914C173.804 5.2765 175.898 6.55871 180.332 6.55871C184.765 6.55871 186.859 5.2765 189.283 3.7914L189.284 3.79052C191.859 2.21367 194.778 0.42627 200.352 0.42627C205.927 0.42627 208.849 2.21433 211.421 3.7914C213.845 5.2765 215.939 6.55871 220.372 6.55871C224.806 6.55871 226.9 5.2765 229.324 3.7914L229.325 3.79058C231.9 2.21371 234.819 0.42627 240.393 0.42627C245.968 0.42627 248.89 2.21433 251.462 3.7914C253.886 5.2765 255.98 6.55871 260.413 6.55871C264.845 6.55871 266.936 5.27742 269.359 3.793L269.362 3.7914L269.363 3.79052C271.938 2.21367 274.857 0.42627 280.431 0.42627C286.006 0.42627 288.928 2.21433 291.5 3.7914C293.924 5.2765 296.018 6.55871 300.451 6.55871C304.881 6.55871 306.972 5.27879 309.396 3.79538L309.402 3.7914L309.404 3.7906C311.979 2.21373 314.897 0.42627 320.472 0.42627C326.047 0.42627 328.968 2.21433 331.541 3.7914C333.965 5.2765 336.058 6.55871 340.492 6.55871C344.926 6.55871 347.019 5.2765 349.443 3.7914L349.445 3.79055C352.019 2.21369 354.938 0.42627 360.512 0.42627C366.088 0.42627 369.009 2.21433 371.582 3.7914C374.005 5.2765 376.099 6.55871 380.533 6.55871C384.966 6.55871 387.06 5.2765 389.484 3.7914L389.485 3.79057C392.06 2.21371 394.979 0.42627 400.553 0.42627C406.128 0.42627 409.05 2.21433 411.622 3.7914C414.046 5.2765 416.14 6.55871 420.574 6.55871C425.007 6.55871 427.101 5.2765 429.525 3.7914L429.526 3.79052C432.101 2.21367 435.02 0.42627 440.594 0.42627C446.169 0.42627 449.091 2.21433 451.663 3.7914C454.087 5.2765 456.181 6.55871 460.614 6.55871C465.048 6.55871 467.142 5.2765 469.565 3.7914L469.567 3.79052C472.142 2.21367 475.061 0.42627 480.635 0.42627C486.21 0.42627 489.131 2.21433 491.707 3.7914C494.13 5.2765 496.224 6.55871 500.658 6.55871C505.09 6.55871 507.181 5.27742 509.604 3.793L509.606 3.7914L509.608 3.79052C512.183 2.21367 515.101 0.42627 520.675 0.42627C526.251 0.42627 529.172 2.21433 531.745 3.7914C534.168 5.2765 536.262 6.55871 540.693 6.55871C545.124 6.55871 547.221 5.2765 549.644 3.7914L549.646 3.79052C552.221 2.21367 555.139 0.42627 560.714 0.42627C566.289 0.42627 569.21 2.21433 571.785 3.7914C574.209 5.2765 576.303 6.55871 580.737 6.55871C585.17 6.55871 587.264 5.2765 589.688 3.7914L589.689 3.79063C592.264 2.21375 595.183 0.42627 600.76 0.42627C606.338 0.42627 609.256 2.21433 611.829 3.7914C614.253 5.2765 616.346 6.55871 620.78 6.55871C625.214 6.55871 627.307 5.2765 629.731 3.7914L629.733 3.79052C632.308 2.21367 635.226 0.42627 640.803 0.42627C646.38 0.42627 649.299 2.21367 651.874 3.79052L651.875 3.7914C654.299 5.2765 656.393 6.55871 660.826 6.55871C665.26 6.55871 667.354 5.2765 669.777 3.7914L669.779 3.79062C672.354 2.21375 675.272 0.42627 680.847 0.42627C686.422 0.42627 689.343 2.21433 691.919 3.7914C694.342 5.2765 696.436 6.55871 700.87 6.55871C705.303 6.55871 707.397 5.2765 709.821 3.7914L709.822 3.79057C712.397 2.21371 715.316 0.42627 720.893 0.42627C726.47 0.42627 729.389 2.21375 731.963 3.79063L731.965 3.7914C734.388 5.2765 736.482 6.55871 740.916 6.55871C745.349 6.55871 747.443 5.2765 749.867 3.7914L749.868 3.79052C752.443 2.21367 755.362 0.42627 760.939 0.42627V4.48391C760.896 4.48391 760.853 4.48403 760.81 4.48427V409.22H-119.725V4.48501Z" fill="#A0F2F6"/>
</svg>
