<svg xmlns="http://www.w3.org/2000/svg" width="207" height="207" fill="none"><g clip-path="url(#a)"><rect width="186" height="186" x="10.677" y="10.5" fill="#fff" rx="93"/><path fill="#52C8FF" d="M95.932 161.029a.595.595 0 0 0-.593.597c0 .331.265.598.593.598a.596.596 0 0 0 .593-.598.596.596 0 0 0-.593-.597Zm16.902.589a1.952 1.952 0 0 0-1.943 1.956c0 1.078.872 1.956 1.943 1.956a1.95 1.95 0 0 0 1.942-1.956 1.951 1.951 0 0 0-1.942-1.956Zm0 2.794a.836.836 0 0 1-.832-.838c0-.463.373-.838.832-.838.459 0 .833.375.833.838a.837.837 0 0 1-.833.838Zm-20.81-3.912a.557.557 0 0 0-.556.559v1.118c0 .308.249.559.555.559a.557.557 0 0 0 .555-.559v-1.118a.556.556 0 0 0-.555-.559Zm0 3.353a.558.558 0 0 0-.556.559v1.118c0 .308.249.559.555.559a.557.557 0 0 0 .555-.559v-1.118a.557.557 0 0 0-.555-.559Zm-1.111-1.117h-1.11a.557.557 0 0 0-.555.559c0 .308.248.558.555.558h1.11c.306 0 .555-.25.555-.558a.557.557 0 0 0-.555-.559Zm3.33 0h-1.11a.557.557 0 0 0-.555.559c0 .308.248.558.555.558h1.11c.306 0 .555-.25.555-.558a.557.557 0 0 0-.556-.559Zm1.11 12.853h-1.11a.556.556 0 0 0-.555.559c0 .309.248.559.554.559h1.11c.307 0 .555-.25.555-.559a.556.556 0 0 0-.554-.559Zm2.774 0h-1.11a.557.557 0 0 0-.554.559c0 .309.248.559.555.559h1.11c.306 0 .555-.25.555-.559a.557.557 0 0 0-.556-.559Zm0-3.912a.557.557 0 0 0-.555.559v.559c0 .308.249.559.555.559a.558.558 0 0 0 .556-.559v-.559a.557.557 0 0 0-.556-.559Zm1.665 0a.557.557 0 0 0-.555.559v.559c0 .308.249.559.555.559a.557.557 0 0 0 .555-.559v-.559a.556.556 0 0 0-.555-.559Zm1.11 3.912h-1.11a.557.557 0 0 0-.555.559c0 .309.249.559.555.559h1.11c.306 0 .555-.25.555-.559a.557.557 0 0 0-.555-.559Zm.555-3.912a.557.557 0 0 0-.555.559v.559c0 .308.249.559.555.559a.557.557 0 0 0 .555-.559v-.559a.557.557 0 0 0-.555-.559Zm.555 6.147h-1.11a.557.557 0 0 0-.555.56c0 .308.248.558.555.558h1.11c.307 0 .555-.25.555-.558a.557.557 0 0 0-.555-.56Zm1.11-6.147a.557.557 0 0 0-.555.559v.559c0 .308.249.559.555.559a.558.558 0 0 0 .555-.559v-.559a.557.557 0 0 0-.555-.559Zm.555 3.912h-1.11a.557.557 0 0 0-.555.559c0 .309.248.559.555.559h1.11c.307 0 .555-.25.555-.559a.557.557 0 0 0-.555-.559Zm1.11 2.235h-1.11a.558.558 0 0 0-.555.56c0 .308.249.558.555.558h1.11c.306 0 .555-.25.555-.558a.558.558 0 0 0-.555-.56Zm0-6.147a.557.557 0 0 0-.555.559v.559c0 .308.248.559.555.559a.558.558 0 0 0 .555-.559v-.559a.557.557 0 0 0-.555-.559Zm1.665 3.912h-1.11a.557.557 0 0 0-.555.559c0 .309.249.559.555.559h1.11c.306 0 .555-.25.555-.559a.557.557 0 0 0-.555-.559Zm1.109 2.235h-1.109a.557.557 0 0 0-.555.56c0 .308.248.558.555.558h1.109a.558.558 0 0 0 0-1.118Zm1.665-2.235h-1.109a.557.557 0 0 0-.556.559c0 .309.249.559.556.559h1.109c.307 0 .556-.25.556-.559a.557.557 0 0 0-.556-.559Zm1.111 2.235h-1.111a.557.557 0 0 0-.554.56c0 .308.248.558.554.558h1.111c.306 0 .554-.25.554-.558a.557.557 0 0 0-.554-.56Zm2.774 0h-1.109a.558.558 0 0 0 0 1.118h1.109a.558.558 0 0 0 0-1.118Zm0 0h-1.109a.558.558 0 0 0 0 1.118h1.109a.558.558 0 0 0 0-1.118Zm-2.774 0h-1.111a.557.557 0 0 0-.554.56c0 .308.248.558.554.558h1.111c.306 0 .554-.25.554-.558a.557.557 0 0 0-.554-.56Zm-.555-1.676a.557.557 0 0 0-.556-.559h-1.109a.557.557 0 0 0-.556.559c0 .309.249.559.556.559h1.109c.307 0 .556-.25.556-.559Zm-2.221 1.676h-1.109a.557.557 0 0 0-.555.56c0 .308.248.558.555.558h1.109a.558.558 0 0 0 0-1.118Zm-.554-1.676a.557.557 0 0 0-.555-.559h-1.11a.557.557 0 0 0-.555.559c0 .309.249.559.555.559h1.11c.306 0 .555-.25.555-.559Zm-2.22 1.676h-1.11a.558.558 0 0 0-.555.56c0 .308.249.558.555.558h1.11c.306 0 .555-.25.555-.558a.558.558 0 0 0-.555-.56Zm-.555-1.676a.557.557 0 0 0-.555-.559h-1.11a.557.557 0 0 0-.555.559c0 .309.248.559.555.559h1.11c.307 0 .555-.25.555-.559Zm-2.22 1.676h-1.11a.557.557 0 0 0-.555.56c0 .308.248.558.555.558h1.11c.307 0 .555-.25.555-.558a.557.557 0 0 0-.555-.56Zm-2.22-1.117h1.11c.306 0 .555-.25.555-.559a.557.557 0 0 0-.555-.559h-1.11a.557.557 0 0 0-.555.559c0 .309.249.559.555.559Zm-2.774 0h1.11c.306 0 .555-.25.555-.559a.557.557 0 0 0-.556-.559h-1.11a.557.557 0 0 0-.554.559c0 .309.248.559.555.559Zm-2.776 0h1.11c.307 0 .555-.25.555-.559a.556.556 0 0 0-.554-.559h-1.11a.556.556 0 0 0-.555.559c0 .309.248.559.554.559Zm10.545-5.03a.557.557 0 0 0-.555.559v.559c0 .308.248.559.555.559a.558.558 0 0 0 .555-.559v-.559a.557.557 0 0 0-.555-.559Zm-1.665 0a.557.557 0 0 0-.555.559v.559c0 .308.249.559.555.559a.558.558 0 0 0 .555-.559v-.559a.557.557 0 0 0-.555-.559Zm-1.665 0a.557.557 0 0 0-.555.559v.559c0 .308.249.559.555.559a.557.557 0 0 0 .555-.559v-.559a.557.557 0 0 0-.555-.559Zm-1.665 0a.557.557 0 0 0-.555.559v.559c0 .308.249.559.555.559a.557.557 0 0 0 .555-.559v-.559a.556.556 0 0 0-.555-.559Zm-1.665 0a.557.557 0 0 0-.555.559v.559c0 .308.249.559.555.559a.558.558 0 0 0 .556-.559v-.559a.557.557 0 0 0-.556-.559Zm19.979 1.118a.553.553 0 0 0-.459.244c-.289.124-1.099.262-2.316.39v-3.428a.557.557 0 0 0-.555-.559h-2.774a.557.557 0 0 0-.556.559v3.72c-1.013.053-2.129.098-3.329.131v-2.734h1.11a.551.551 0 0 0 .459-.245.563.563 0 0 0 .056-.522l-1.11-2.794a.556.556 0 0 0-.515-.351H95.353a.556.556 0 0 0-.515.351l-1.111 2.794a.565.565 0 0 0 .056.522.552.552 0 0 0 .46.245h1.11v2.572c-3.09-.179-5.143-.435-5.646-.651a.556.556 0 0 0-1.014.315v5.588a.56.56 0 0 0 .097.316l3.022 4.442v.001l.134.196-.01.001.764 1.219c.138.044.273.102.403.174l1.19.659a3.311 3.311 0 0 0 3.23 0l1.19-.659a2.22 2.22 0 0 1 2.16 0l1.189.659c1.01.56 2.218.56 3.231 0l1.189-.659a2.221 2.221 0 0 1 2.161 0l1.188.659c1.011.56 2.219.56 3.231 0l1.189-.659c.119-.065.241-.119.367-.162l.804-1.231-.013-.001.334-.491 2.821-4.148a.563.563 0 0 0 .097-.316v-5.588a.557.557 0 0 0-.555-.559Zm-5.55-2.236h1.665v2.976c-.507.042-1.065.083-1.665.121v-3.097Zm-16.093.559h10.544v2.76c-1.058.021-2.166.034-3.33.034-2.707 0-5.147-.064-7.215-.163v-2.631Zm21.088 7.651-3.741 5.498c-.03.016-.064.028-.095.045l-1.188.659a2.216 2.216 0 0 1-2.161 0l-1.189-.659a3.312 3.312 0 0 0-3.231 0l-1.189.659a2.216 2.216 0 0 1-2.161 0l-1.189-.659a3.315 3.315 0 0 0-3.23 0l-1.19.659a2.214 2.214 0 0 1-2.16 0l-1.19-.659c-.03-.017-.063-.029-.094-.045l-3.74-5.498v-4.543c.724.174 1.911.329 3.86.475 2.778.21 6.428.33 10.014.33 3.587 0 7.237-.121 10.014-.33 1.948-.146 3.137-.301 3.86-.475v4.543Zm-4.44-.945h-1.109a.558.558 0 0 0 0 1.118h1.109a.558.558 0 0 0 0-1.118Zm-2.774 0h-1.111a.557.557 0 0 0-.554.56c0 .308.248.558.554.558h1.111c.306 0 .554-.25.554-.558a.557.557 0 0 0-.554-.56Zm-.555-1.676a.557.557 0 0 0-.556-.559h-1.109a.557.557 0 0 0-.556.559c0 .309.249.559.556.559h1.109c.307 0 .556-.25.556-.559Zm-2.221 1.676h-1.109a.557.557 0 0 0-.555.56c0 .308.248.558.555.558h1.109a.558.558 0 0 0 0-1.118Zm-.554-1.676a.557.557 0 0 0-.555-.559h-1.11a.557.557 0 0 0-.555.559c0 .309.249.559.555.559h1.11c.306 0 .555-.25.555-.559Zm-2.22-2.794a.558.558 0 0 0 .555-.559v-.559a.557.557 0 0 0-.555-.559.557.557 0 0 0-.555.559v.559c0 .308.248.559.555.559Zm0 4.47h-1.11a.558.558 0 0 0-.555.56c0 .308.249.558.555.558h1.11c.306 0 .555-.25.555-.558a.558.558 0 0 0-.555-.56Zm-.555-1.676a.557.557 0 0 0-.555-.559h-1.11a.557.557 0 0 0-.555.559c0 .309.248.559.555.559h1.11c.307 0 .555-.25.555-.559Zm-.555-3.912a.557.557 0 0 0-.555-.559.557.557 0 0 0-.555.559v.559c0 .308.249.559.555.559a.558.558 0 0 0 .555-.559v-.559Zm-1.665 5.588h-1.11a.557.557 0 0 0-.555.56c0 .308.248.558.555.558h1.11c.307 0 .555-.25.555-.558a.557.557 0 0 0-.555-.56Zm-.555-6.147a.557.557 0 0 0-.555.559v.559c0 .308.249.559.555.559a.557.557 0 0 0 .555-.559v-.559a.557.557 0 0 0-.555-.559Zm-1.665 5.03h1.11c.306 0 .555-.25.555-.559a.557.557 0 0 0-.555-.559h-1.11a.557.557 0 0 0-.555.559c0 .309.249.559.555.559Zm0-5.03a.557.557 0 0 0-.555.559v.559c0 .308.249.559.555.559a.557.557 0 0 0 .555-.559v-.559a.556.556 0 0 0-.555-.559Zm-1.665 0a.557.557 0 0 0-.555.559v.559c0 .308.249.559.555.559a.558.558 0 0 0 .556-.559v-.559a.557.557 0 0 0-.556-.559Zm-1.11 5.03h1.11c.307 0 .556-.25.556-.559a.557.557 0 0 0-.556-.559h-1.11a.557.557 0 0 0-.554.559c0 .309.248.559.555.559Zm-2.775 0h1.11c.307 0 .555-.25.555-.559a.556.556 0 0 0-.554-.559h-1.11a.556.556 0 0 0-.555.559c0 .309.248.559.554.559Zm3.885-5.03a.557.557 0 0 0-.555.559v.559c0 .308.249.559.555.559a.558.558 0 0 0 .556-.559v-.559a.557.557 0 0 0-.556-.559Zm1.665 0a.557.557 0 0 0-.555.559v.559c0 .308.249.559.555.559a.557.557 0 0 0 .555-.559v-.559a.556.556 0 0 0-.555-.559Zm1.665 0a.557.557 0 0 0-.555.559v.559c0 .308.249.559.555.559a.557.557 0 0 0 .555-.559v-.559a.557.557 0 0 0-.555-.559Zm1.665 0a.557.557 0 0 0-.555.559v.559c0 .308.249.559.555.559a.558.558 0 0 0 .555-.559v-.559a.557.557 0 0 0-.555-.559Zm1.665 0a.557.557 0 0 0-.555.559v.559c0 .308.248.559.555.559a.558.558 0 0 0 .555-.559v-.559a.557.557 0 0 0-.555-.559Zm-9.434 3.912h-1.11a.556.556 0 0 0-.555.559c0 .309.248.559.554.559h1.11c.307 0 .555-.25.555-.559a.556.556 0 0 0-.554-.559Zm2.774 0h-1.11a.557.557 0 0 0-.554.559c0 .309.248.559.555.559h1.11c.306 0 .555-.25.555-.559a.557.557 0 0 0-.556-.559Zm2.775 0h-1.11a.557.557 0 0 0-.555.559c0 .309.249.559.555.559h1.11c.306 0 .555-.25.555-.559a.557.557 0 0 0-.555-.559Zm1.11 2.235h-1.11a.557.557 0 0 0-.555.56c0 .308.248.558.555.558h1.11c.307 0 .555-.25.555-.558a.557.557 0 0 0-.555-.56Zm1.665-2.235h-1.11a.557.557 0 0 0-.555.559c0 .309.248.559.555.559h1.11c.307 0 .555-.25.555-.559a.557.557 0 0 0-.555-.559Zm1.11 2.235h-1.11a.558.558 0 0 0-.555.56c0 .308.249.558.555.558h1.11c.306 0 .555-.25.555-.558a.558.558 0 0 0-.555-.56Zm1.665-2.235h-1.11a.557.557 0 0 0-.555.559c0 .309.249.559.555.559h1.11c.306 0 .555-.25.555-.559a.557.557 0 0 0-.555-.559Zm1.109 2.235h-1.109a.557.557 0 0 0-.555.56c0 .308.248.558.555.558h1.109a.558.558 0 0 0 0-1.118Zm1.665-2.235h-1.109a.557.557 0 0 0-.556.559c0 .309.249.559.556.559h1.109c.307 0 .556-.25.556-.559a.557.557 0 0 0-.556-.559Zm1.111 2.235h-1.111a.557.557 0 0 0-.554.56c0 .308.248.558.554.558h1.111c.306 0 .554-.25.554-.558a.557.557 0 0 0-.554-.56Zm2.774 0h-1.109a.558.558 0 0 0 0 1.118h1.109a.558.558 0 0 0 0-1.118Zm-.584 9.941a2.216 2.216 0 0 1-2.161 0l-1.188-.658a3.31 3.31 0 0 0-3.231 0l-1.189.658a2.216 2.216 0 0 1-2.161 0l-1.189-.658a3.312 3.312 0 0 0-3.231 0l-1.19.658a2.214 2.214 0 0 1-2.16 0l-.715-.395 1.077 1.715c.783.175 1.61.061 2.334-.341l1.19-.658a2.215 2.215 0 0 1 2.16 0l1.189.658c1.01.56 2.218.561 3.231 0l1.189-.658a2.216 2.216 0 0 1 2.161 0l1.188.658c.68.376 1.448.5 2.185.37l1.09-1.67-.579.321Zm-14.4-12.176h-1.11a.557.557 0 0 0-.554.559c0 .309.248.559.555.559h1.11c.306 0 .555-.25.555-.559a.557.557 0 0 0-.556-.559Zm-2.774 0h-1.11a.556.556 0 0 0-.555.559c0 .309.248.559.554.559h1.11c.307 0 .555-.25.555-.559a.556.556 0 0 0-.554-.559Zm5.549 0h-1.11a.557.557 0 0 0-.555.559c0 .309.249.559.555.559h1.11c.306 0 .555-.25.555-.559a.557.557 0 0 0-.555-.559Zm2.775 0h-1.11a.557.557 0 0 0-.555.559c0 .309.248.559.555.559h1.11c.307 0 .555-.25.555-.559a.557.557 0 0 0-.555-.559Zm2.775 0h-1.11a.557.557 0 0 0-.555.559c0 .309.249.559.555.559h1.11c.306 0 .555-.25.555-.559a.557.557 0 0 0-.555-.559Zm2.774 0h-1.109a.557.557 0 0 0-.556.559c0 .309.249.559.556.559h1.109c.307 0 .556-.25.556-.559a.557.557 0 0 0-.556-.559Zm-7.214 2.235h-1.11a.557.557 0 0 0-.555.56c0 .308.248.558.555.558h1.11c.307 0 .555-.25.555-.558a.557.557 0 0 0-.555-.56Zm2.775 0h-1.11a.558.558 0 0 0-.555.56c0 .308.249.558.555.558h1.11c.306 0 .555-.25.555-.558a.558.558 0 0 0-.555-.56Zm2.774 0h-1.109a.557.557 0 0 0-.555.56c0 .308.248.558.555.558h1.109a.558.558 0 0 0 0-1.118Zm2.776 0h-1.111a.557.557 0 0 0-.554.56c0 .308.248.558.554.558h1.111c.306 0 .554-.25.554-.558a.557.557 0 0 0-.554-.56Zm2.774 0h-1.109a.558.558 0 0 0 0 1.118h1.109a.558.558 0 0 0 0-1.118Zm-14.984-6.147a.557.557 0 0 0-.555.559v.559c0 .308.249.559.555.559a.558.558 0 0 0 .556-.559v-.559a.557.557 0 0 0-.556-.559Zm1.665 0a.557.557 0 0 0-.555.559v.559c0 .308.249.559.555.559a.557.557 0 0 0 .555-.559v-.559a.556.556 0 0 0-.555-.559Zm1.665 0a.557.557 0 0 0-.555.559v.559c0 .308.249.559.555.559a.557.557 0 0 0 .555-.559v-.559a.557.557 0 0 0-.555-.559Zm1.665 0a.557.557 0 0 0-.555.559v.559c0 .308.249.559.555.559a.558.558 0 0 0 .555-.559v-.559a.557.557 0 0 0-.555-.559Zm1.665 0a.557.557 0 0 0-.555.559v.559c0 .308.248.559.555.559a.558.558 0 0 0 .555-.559v-.559a.557.557 0 0 0-.555-.559Z"/><path fill="url(#b)" fill-rule="evenodd" d="m-103.597 182.4-.122-.001v-2.212c3.04 0 4.632.975 6.034 1.835 1.321.809 2.463 1.508 4.88 1.508 2.416 0 3.556-.698 4.876-1.507l.002-.001v-.001c1.404-.859 2.995-1.834 6.034-1.834 3.04 0 4.632.975 6.034 1.835 1.322.809 2.463 1.508 4.88 1.508 2.416 0 3.556-.698 4.877-1.507l.001-.001v-.001c1.404-.859 2.996-1.834 6.034-1.834 3.039 0 4.63.975 6.034 1.834v.001c1.322.809 2.463 1.508 4.879 1.508 2.414 0 3.556-.698 4.878-1.508h.001l.001-.001c1.404-.859 2.995-1.834 6.034-1.834 3.038 0 4.63.975 6.033 1.834v.001c1.322.809 2.463 1.508 4.879 1.508 2.415 0 3.557-.699 4.878-1.508v-.001c1.404-.859 2.996-1.834 6.034-1.834 3.04 0 4.632.975 6.034 1.835 1.322.809 2.463 1.508 4.88 1.508 2.416 0 3.556-.698 4.877-1.507l.001-.001.001-.001c1.404-.859 2.995-1.834 6.034-1.834 3.038 0 4.63.975 6.033 1.834v.001c1.322.809 2.463 1.508 4.879 1.508 2.415 0 3.557-.699 4.878-1.508v-.001c1.404-.859 2.996-1.834 6.034-1.834 3.04 0 4.632.975 6.035 1.835 1.32.809 2.462 1.508 4.878 1.508 2.415 0 3.558-.699 4.88-1.508v-.001c1.404-.859 2.995-1.834 6.034-1.834 3.039 0 4.631.975 6.034 1.835 1.321.809 2.463 1.508 4.88 1.508 2.416 0 3.558-.699 4.879-1.508v-.001c1.404-.859 2.996-1.834 6.034-1.834 3.04 0 4.632.975 6.035 1.835 1.32.809 2.462 1.508 4.88 1.508 2.416 0 3.558-.699 4.879-1.508v-.001c1.404-.859 2.995-1.834 6.034-1.834 3.04 0 4.632.975 6.034 1.835 1.322.809 2.463 1.508 4.88 1.508 2.416 0 3.556-.698 4.877-1.507l.001-.001.001-.001c1.403-.859 2.995-1.834 6.033-1.834 3.039 0 4.632.975 6.034 1.835 1.322.809 2.463 1.508 4.88 1.508 2.415 0 3.555-.697 4.876-1.506l.004-.002v-.001c1.404-.859 2.995-1.834 6.034-1.834 3.039 0 4.632.975 6.034 1.835 1.322.809 2.463 1.508 4.88 1.508s3.558-.699 4.879-1.508l.001-.001c1.404-.859 2.995-1.834 6.034-1.834 3.039 0 4.632.975 6.034 1.835 1.321.809 2.463 1.508 4.88 1.508 2.416 0 3.558-.699 4.879-1.508l.001-.001c1.404-.859 2.995-1.834 6.033-1.834 3.04 0 4.632.975 6.035 1.835 1.321.809 2.462 1.508 4.879 1.508 2.417 0 3.559-.699 4.88-1.508l.001-.001c1.403-.859 2.994-1.834 6.033-1.834s4.632.975 6.034 1.835c1.322.809 2.463 1.508 4.88 1.508s3.558-.699 4.88-1.508v-.001c1.404-.859 2.995-1.834 6.034-1.834 3.039 0 4.632.975 6.036 1.835 1.321.809 2.462 1.508 4.879 1.508 2.416 0 3.556-.698 4.877-1.507l.001-.001.001-.001c1.404-.859 2.995-1.834 6.034-1.834 3.039 0 4.631.975 6.034 1.835 1.321.809 2.462 1.508 4.878 1.508 2.415 0 3.558-.699 4.88-1.508v-.001c1.404-.859 2.995-1.834 6.034-1.834 3.039 0 4.632.975 6.036 1.835 1.321.809 2.462 1.508 4.879 1.508 2.417 0 3.558-.699 4.88-1.508l.001-.001c1.403-.859 2.994-1.834 6.034-1.834 3.041 0 4.632.975 6.035 1.835 1.321.809 2.462 1.508 4.879 1.508 2.417 0 3.559-.699 4.88-1.508l.001-.001c1.403-.859 2.995-1.834 6.035-1.834s4.631.975 6.035 1.834v.001c1.322.809 2.463 1.508 4.88 1.508s3.558-.699 4.88-1.508v-.001c1.404-.859 2.995-1.834 6.034-1.834 3.039 0 4.632.975 6.036 1.835 1.321.809 2.462 1.508 4.879 1.508 2.417 0 3.559-.699 4.88-1.508l.001-.001c1.403-.859 2.994-1.834 6.035-1.834 3.04 0 4.631.975 6.034 1.834l.001.001c1.322.809 2.463 1.508 4.88 1.508s3.558-.699 4.879-1.508l.001-.001c1.404-.859 2.995-1.834 6.035-1.834v2.212h-.07v220.637h-480.013V182.4Z" clip-rule="evenodd"/></g><path fill="#757575" d="M91.236 135.945V151.5h-2.814v-12.826h-.086l-3.63 2.32v-2.556l3.845-2.493h2.685Zm9.518 15.77c-3.75 0-5.984-2.901-5.973-7.992-.01-5.071 2.245-7.993 5.973-7.993 3.727 0 5.973 2.922 5.973 7.993 0 5.102-2.235 7.992-5.973 7.992Zm-3.158-7.992c0 3.738 1.203 5.639 3.158 5.65 1.944-.011 3.158-1.912 3.158-5.65-.011-3.706-1.214-5.661-3.158-5.672-1.944.011-3.148 1.966-3.158 5.672Zm15.297-.194c-2.213.011-3.427-1.633-3.416-4.017-.011-2.364 1.256-3.996 3.416-3.996 2.245 0 3.426 1.632 3.437 3.996-.011 2.406-1.235 4.028-3.437 4.017Zm-1.44-4.017c.011 1.396.494 2.299 1.44 2.299.977 0 1.439-.903 1.439-2.299 0-1.354-.43-2.288-1.439-2.278-.946 0-1.429.935-1.44 2.278Zm.022 11.988 10.699-15.555h2.17L113.645 151.5h-2.17Zm8.164-3.588c-.011-2.374 1.257-4.017 3.416-4.017 2.234 0 3.426 1.643 3.437 4.017-.011 2.385-1.235 4.007-3.437 3.996-2.213.011-3.427-1.633-3.416-3.996Zm1.976 0c.011 1.375.494 2.288 1.44 2.277.977.011 1.439-.902 1.439-2.277s-.43-2.309-1.439-2.299c-.946.011-1.429.935-1.44 2.299ZM91.39 159.016v8.484h-1.3v-7.195h-.047l-2.027 1.324v-1.231l2.109-1.382h1.266Zm5.11 8.601c-1.963 0-3.117-1.582-3.117-4.359 0-2.76 1.166-4.36 3.117-4.36 1.945 0 3.111 1.6 3.117 4.36-.006 2.777-1.154 4.359-3.117 4.359Zm-1.828-4.359c-.006 2.115.68 3.246 1.828 3.246 1.143 0 1.828-1.131 1.828-3.246 0-2.11-.691-3.264-1.828-3.27-1.143.006-1.828 1.16-1.828 3.27Zm9.234 4.359c-1.963 0-3.117-1.582-3.117-4.359 0-2.76 1.166-4.36 3.117-4.36 1.946 0 3.112 1.6 3.117 4.36-.005 2.777-1.154 4.359-3.117 4.359Zm-1.828-4.359c-.006 2.115.68 3.246 1.828 3.246 1.143 0 1.828-1.131 1.828-3.246 0-2.11-.691-3.264-1.828-3.27-1.142.006-1.828 1.16-1.828 3.27Zm6.399-4.242h1.57l2.683 6.574h.106l2.684-6.574h1.57v8.484h-1.231v-6.129h-.082l-2.484 6.117h-1.02l-2.496-6.129h-.07v6.141h-1.23v-8.484Zm10.347 8.484v-8.484h1.289v7.371h3.832v1.113h-5.121Z"/><defs><linearGradient id="b" x1="136.383" x2="136.383" y1="180.187" y2="332.252" gradientUnits="userSpaceOnUse"><stop offset=".04" stop-color="#52C8FF"/><stop offset=".515" stop-color="#00E5F2"/></linearGradient><clipPath id="a"><rect width="186" height="186" x="10.677" y="10.5" fill="#fff" rx="93"/></clipPath></defs></svg>