<svg width="207" height="207" viewBox="0 0 207 207" fill="none" xmlns="http://www.w3.org/2000/svg">
<g clip-path="url(#clip0_70_2503)">
<rect x="10.6772" y="10.5" width="186" height="186" rx="93" fill="white"/>
<path d="M95.9317 123.029C95.6041 123.029 95.339 123.296 95.339 123.626C95.339 123.957 95.6041 124.224 95.9317 124.224C96.2593 124.224 96.5251 123.956 96.5251 123.626C96.5251 123.297 96.2593 123.029 95.9317 123.029ZM112.834 123.618C111.763 123.618 110.891 124.496 110.891 125.574C110.891 126.652 111.763 127.53 112.834 127.53C113.906 127.53 114.776 126.652 114.776 125.574C114.776 124.496 113.905 123.618 112.834 123.618ZM112.834 126.412C112.375 126.412 112.002 126.036 112.002 125.574C112.002 125.111 112.375 124.736 112.834 124.736C113.293 124.736 113.667 125.111 113.667 125.574C113.667 126.036 113.293 126.412 112.834 126.412ZM92.0231 122.5C91.7166 122.5 91.4679 122.75 91.4679 123.059V124.177C91.4679 124.485 91.7166 124.736 92.0231 124.736C92.3296 124.736 92.5775 124.485 92.5775 124.177V123.059C92.5775 122.75 92.3296 122.5 92.0231 122.5ZM92.0231 125.853C91.7166 125.853 91.4679 126.104 91.4679 126.412V127.53C91.4679 127.838 91.7166 128.089 92.0231 128.089C92.3296 128.089 92.5775 127.838 92.5775 127.53V126.412C92.5775 126.104 92.3296 125.853 92.0231 125.853ZM90.9127 124.736H89.803C89.4965 124.736 89.2478 124.986 89.2478 125.295C89.2478 125.603 89.4965 125.853 89.803 125.853H90.9127C91.2191 125.853 91.4679 125.603 91.4679 125.295C91.4679 124.986 91.2191 124.736 90.9127 124.736ZM94.2424 124.736H93.1328C92.8263 124.736 92.5775 124.986 92.5775 125.295C92.5775 125.603 92.8263 125.853 93.1328 125.853H94.2424C94.5489 125.853 94.7976 125.603 94.7976 125.295C94.7976 124.986 94.5489 124.736 94.2424 124.736ZM95.3529 137.589H94.2424C93.9359 137.589 93.688 137.839 93.688 138.148C93.688 138.457 93.9359 138.707 94.2424 138.707H95.3529C95.6593 138.707 95.9073 138.457 95.9073 138.148C95.9073 137.839 95.6593 137.589 95.3529 137.589ZM98.1274 137.589H97.0177C96.7113 137.589 96.4625 137.839 96.4625 138.148C96.4625 138.457 96.7113 138.707 97.0177 138.707H98.1274C98.4339 138.707 98.6826 138.457 98.6826 138.148C98.6826 137.839 98.4339 137.589 98.1274 137.589ZM98.1274 133.677C97.8209 133.677 97.5722 133.927 97.5722 134.236V134.795C97.5722 135.103 97.8209 135.354 98.1274 135.354C98.4339 135.354 98.6826 135.103 98.6826 134.795V134.236C98.6826 133.927 98.4339 133.677 98.1274 133.677ZM99.7923 133.677C99.4858 133.677 99.237 133.927 99.237 134.236V134.795C99.237 135.103 99.4858 135.354 99.7923 135.354C100.099 135.354 100.347 135.103 100.347 134.795V134.236C100.347 133.927 100.099 133.677 99.7923 133.677ZM100.902 137.589H99.7923C99.4858 137.589 99.237 137.839 99.237 138.148C99.237 138.457 99.4858 138.707 99.7923 138.707H100.902C101.208 138.707 101.457 138.457 101.457 138.148C101.457 137.839 101.208 137.589 100.902 137.589ZM101.457 133.677C101.151 133.677 100.902 133.927 100.902 134.236V134.795C100.902 135.103 101.151 135.354 101.457 135.354C101.764 135.354 102.012 135.103 102.012 134.795V134.236C102.012 133.927 101.764 133.677 101.457 133.677ZM102.012 139.824H100.902C100.595 139.824 100.347 140.075 100.347 140.384C100.347 140.692 100.595 140.942 100.902 140.942H102.012C102.319 140.942 102.567 140.692 102.567 140.384C102.567 140.075 102.319 139.824 102.012 139.824ZM103.122 133.677C102.816 133.677 102.567 133.927 102.567 134.236V134.795C102.567 135.103 102.816 135.354 103.122 135.354C103.428 135.354 103.677 135.103 103.677 134.795V134.236C103.677 133.927 103.428 133.677 103.122 133.677ZM103.677 137.589H102.567C102.26 137.589 102.012 137.839 102.012 138.148C102.012 138.457 102.26 138.707 102.567 138.707H103.677C103.984 138.707 104.232 138.457 104.232 138.148C104.232 137.839 103.984 137.589 103.677 137.589ZM104.787 139.824H103.677C103.371 139.824 103.122 140.075 103.122 140.384C103.122 140.692 103.371 140.942 103.677 140.942H104.787C105.093 140.942 105.342 140.692 105.342 140.384C105.342 140.075 105.093 139.824 104.787 139.824ZM104.787 133.677C104.48 133.677 104.232 133.927 104.232 134.236V134.795C104.232 135.103 104.48 135.354 104.787 135.354C105.093 135.354 105.342 135.103 105.342 134.795V134.236C105.342 133.927 105.093 133.677 104.787 133.677ZM106.452 137.589H105.342C105.036 137.589 104.787 137.839 104.787 138.148C104.787 138.457 105.036 138.707 105.342 138.707H106.452C106.758 138.707 107.007 138.457 107.007 138.148C107.007 137.839 106.758 137.589 106.452 137.589ZM107.561 139.824H106.452C106.145 139.824 105.897 140.075 105.897 140.384C105.897 140.692 106.145 140.942 106.452 140.942H107.561C107.868 140.942 108.117 140.692 108.117 140.384C108.117 140.075 107.868 139.824 107.561 139.824ZM109.226 137.589H108.117C107.81 137.589 107.561 137.839 107.561 138.148C107.561 138.457 107.81 138.707 108.117 138.707H109.226C109.533 138.707 109.782 138.457 109.782 138.148C109.782 137.839 109.533 137.589 109.226 137.589ZM110.337 139.824H109.226C108.92 139.824 108.672 140.075 108.672 140.384C108.672 140.692 108.92 140.942 109.226 140.942H110.337C110.643 140.942 110.891 140.692 110.891 140.384C110.891 140.075 110.643 139.824 110.337 139.824ZM113.111 139.824H112.002C111.695 139.824 111.446 140.075 111.446 140.384C111.446 140.692 111.695 140.942 112.002 140.942H113.111C113.418 140.942 113.667 140.692 113.667 140.384C113.667 140.075 113.418 139.824 113.111 139.824ZM113.111 139.824H112.002C111.695 139.824 111.446 140.075 111.446 140.384C111.446 140.692 111.695 140.942 112.002 140.942H113.111C113.418 140.942 113.667 140.692 113.667 140.384C113.667 140.075 113.418 139.824 113.111 139.824ZM110.337 139.824H109.226C108.92 139.824 108.672 140.075 108.672 140.384C108.672 140.692 108.92 140.942 109.226 140.942H110.337C110.643 140.942 110.891 140.692 110.891 140.384C110.891 140.075 110.643 139.824 110.337 139.824ZM109.782 138.148C109.782 137.839 109.533 137.589 109.226 137.589H108.117C107.81 137.589 107.561 137.839 107.561 138.148C107.561 138.457 107.81 138.707 108.117 138.707H109.226C109.533 138.707 109.782 138.457 109.782 138.148ZM107.561 139.824H106.452C106.145 139.824 105.897 140.075 105.897 140.384C105.897 140.692 106.145 140.942 106.452 140.942H107.561C107.868 140.942 108.117 140.692 108.117 140.384C108.117 140.075 107.868 139.824 107.561 139.824ZM107.007 138.148C107.007 137.839 106.758 137.589 106.452 137.589H105.342C105.036 137.589 104.787 137.839 104.787 138.148C104.787 138.457 105.036 138.707 105.342 138.707H106.452C106.758 138.707 107.007 138.457 107.007 138.148ZM104.787 139.824H103.677C103.371 139.824 103.122 140.075 103.122 140.384C103.122 140.692 103.371 140.942 103.677 140.942H104.787C105.093 140.942 105.342 140.692 105.342 140.384C105.342 140.075 105.093 139.824 104.787 139.824ZM104.232 138.148C104.232 137.839 103.984 137.589 103.677 137.589H102.567C102.26 137.589 102.012 137.839 102.012 138.148C102.012 138.457 102.26 138.707 102.567 138.707H103.677C103.984 138.707 104.232 138.457 104.232 138.148ZM102.012 139.824H100.902C100.595 139.824 100.347 140.075 100.347 140.384C100.347 140.692 100.595 140.942 100.902 140.942H102.012C102.319 140.942 102.567 140.692 102.567 140.384C102.567 140.075 102.319 139.824 102.012 139.824ZM99.7923 138.707H100.902C101.208 138.707 101.457 138.457 101.457 138.148C101.457 137.839 101.208 137.589 100.902 137.589H99.7923C99.4858 137.589 99.237 137.839 99.237 138.148C99.237 138.457 99.4858 138.707 99.7923 138.707ZM97.0177 138.707H98.1274C98.4339 138.707 98.6826 138.457 98.6826 138.148C98.6826 137.839 98.4339 137.589 98.1274 137.589H97.0177C96.7113 137.589 96.4625 137.839 96.4625 138.148C96.4625 138.457 96.7113 138.707 97.0177 138.707ZM94.2424 138.707H95.3529C95.6593 138.707 95.9073 138.457 95.9073 138.148C95.9073 137.839 95.6593 137.589 95.3529 137.589H94.2424C93.9359 137.589 93.688 137.839 93.688 138.148C93.688 138.457 93.9359 138.707 94.2424 138.707ZM104.787 133.677C104.48 133.677 104.232 133.927 104.232 134.236V134.795C104.232 135.103 104.48 135.354 104.787 135.354C105.093 135.354 105.342 135.103 105.342 134.795V134.236C105.342 133.927 105.093 133.677 104.787 133.677ZM103.122 133.677C102.816 133.677 102.567 133.927 102.567 134.236V134.795C102.567 135.103 102.816 135.354 103.122 135.354C103.428 135.354 103.677 135.103 103.677 134.795V134.236C103.677 133.927 103.428 133.677 103.122 133.677ZM101.457 133.677C101.151 133.677 100.902 133.927 100.902 134.236V134.795C100.902 135.103 101.151 135.354 101.457 135.354C101.764 135.354 102.012 135.103 102.012 134.795V134.236C102.012 133.927 101.764 133.677 101.457 133.677ZM99.7923 133.677C99.4858 133.677 99.237 133.927 99.237 134.236V134.795C99.237 135.103 99.4858 135.354 99.7923 135.354C100.099 135.354 100.347 135.103 100.347 134.795V134.236C100.347 133.927 100.099 133.677 99.7923 133.677ZM98.1274 133.677C97.8209 133.677 97.5722 133.927 97.5722 134.236V134.795C97.5722 135.103 97.8209 135.354 98.1274 135.354C98.4339 135.354 98.6826 135.103 98.6826 134.795V134.236C98.6826 133.927 98.4339 133.677 98.1274 133.677ZM118.106 134.795C117.916 134.795 117.747 134.891 117.647 135.039C117.358 135.163 116.548 135.301 115.331 135.429V132.001C115.331 131.692 115.083 131.442 114.776 131.442H112.002C111.695 131.442 111.446 131.692 111.446 132.001V135.721C110.433 135.774 109.317 135.819 108.117 135.852V133.118H109.227C109.411 133.118 109.583 133.027 109.686 132.873C109.79 132.719 109.81 132.524 109.742 132.351L108.632 129.557C108.547 129.345 108.343 129.206 108.117 129.206H95.3529C95.1261 129.206 94.922 129.345 94.8375 129.557L93.727 132.351C93.6587 132.524 93.6799 132.719 93.7831 132.873C93.8863 133.027 94.0587 133.118 94.2424 133.118H95.3529V135.69C92.2637 135.511 90.2095 135.255 89.7071 135.039C89.6071 134.891 89.4388 134.795 89.2478 134.795C88.9413 134.795 88.6934 135.045 88.6934 135.354V140.942C88.6934 141.055 88.7267 141.165 88.7901 141.258L91.8118 145.7V145.701L91.9459 145.897C91.9426 145.897 91.9386 145.897 91.9353 145.898L92.7003 147.117C92.8385 147.161 92.9734 147.219 93.1035 147.291L94.2928 147.95C95.3041 148.511 96.5121 148.511 97.5234 147.95L98.7127 147.291C99.3891 146.917 100.196 146.917 100.873 147.291L102.062 147.95C103.072 148.51 104.28 148.51 105.293 147.95L106.482 147.291C107.158 146.917 107.966 146.917 108.643 147.291L109.831 147.95C110.842 148.51 112.05 148.51 113.062 147.95L114.251 147.291C114.37 147.226 114.492 147.172 114.618 147.129L115.422 145.898C115.422 145.898 115.413 145.897 115.409 145.897L115.743 145.406L118.564 141.258C118.627 141.165 118.661 141.055 118.661 140.942V135.354C118.661 135.045 118.412 134.795 118.106 134.795ZM112.556 132.559H114.221V135.535C113.714 135.577 113.156 135.618 112.556 135.656V132.559ZM96.4625 133.118H107.007V135.878C105.949 135.899 104.841 135.912 103.677 135.912C100.97 135.912 98.5298 135.848 96.4625 135.749V133.118ZM117.551 140.769L113.81 146.267C113.78 146.283 113.746 146.295 113.715 146.312L112.527 146.971C111.85 147.346 111.042 147.346 110.366 146.971L109.177 146.312C108.165 145.751 106.957 145.751 105.946 146.312L104.757 146.971C104.08 147.346 103.272 147.346 102.596 146.971L101.407 146.312C100.395 145.752 99.1883 145.752 98.177 146.312L96.9868 146.971C96.3113 147.346 95.5033 147.346 94.8269 146.971L93.6376 146.312C93.6067 146.295 93.5742 146.283 93.5433 146.267L89.803 140.769V136.226C90.5265 136.4 91.7142 136.555 93.6628 136.701C96.4406 136.911 100.091 137.031 103.677 137.031C107.264 137.031 110.914 136.91 113.691 136.701C115.639 136.555 116.828 136.4 117.551 136.226V140.769ZM113.111 139.824H112.002C111.695 139.824 111.446 140.075 111.446 140.384C111.446 140.692 111.695 140.942 112.002 140.942H113.111C113.418 140.942 113.667 140.692 113.667 140.384C113.667 140.075 113.418 139.824 113.111 139.824ZM110.337 139.824H109.226C108.92 139.824 108.672 140.075 108.672 140.384C108.672 140.692 108.92 140.942 109.226 140.942H110.337C110.643 140.942 110.891 140.692 110.891 140.384C110.891 140.075 110.643 139.824 110.337 139.824ZM109.782 138.148C109.782 137.839 109.533 137.589 109.226 137.589H108.117C107.81 137.589 107.561 137.839 107.561 138.148C107.561 138.457 107.81 138.707 108.117 138.707H109.226C109.533 138.707 109.782 138.457 109.782 138.148ZM107.561 139.824H106.452C106.145 139.824 105.897 140.075 105.897 140.384C105.897 140.692 106.145 140.942 106.452 140.942H107.561C107.868 140.942 108.117 140.692 108.117 140.384C108.117 140.075 107.868 139.824 107.561 139.824ZM107.007 138.148C107.007 137.839 106.758 137.589 106.452 137.589H105.342C105.036 137.589 104.787 137.839 104.787 138.148C104.787 138.457 105.036 138.707 105.342 138.707H106.452C106.758 138.707 107.007 138.457 107.007 138.148ZM104.787 135.354C105.093 135.354 105.342 135.103 105.342 134.795V134.236C105.342 133.927 105.093 133.677 104.787 133.677C104.48 133.677 104.232 133.927 104.232 134.236V134.795C104.232 135.103 104.48 135.354 104.787 135.354ZM104.787 139.824H103.677C103.371 139.824 103.122 140.075 103.122 140.384C103.122 140.692 103.371 140.942 103.677 140.942H104.787C105.093 140.942 105.342 140.692 105.342 140.384C105.342 140.075 105.093 139.824 104.787 139.824ZM104.232 138.148C104.232 137.839 103.984 137.589 103.677 137.589H102.567C102.26 137.589 102.012 137.839 102.012 138.148C102.012 138.457 102.26 138.707 102.567 138.707H103.677C103.984 138.707 104.232 138.457 104.232 138.148ZM103.677 134.236C103.677 133.927 103.428 133.677 103.122 133.677C102.816 133.677 102.567 133.927 102.567 134.236V134.795C102.567 135.103 102.816 135.354 103.122 135.354C103.428 135.354 103.677 135.103 103.677 134.795V134.236ZM102.012 139.824H100.902C100.595 139.824 100.347 140.075 100.347 140.384C100.347 140.692 100.595 140.942 100.902 140.942H102.012C102.319 140.942 102.567 140.692 102.567 140.384C102.567 140.075 102.319 139.824 102.012 139.824ZM101.457 133.677C101.151 133.677 100.902 133.927 100.902 134.236V134.795C100.902 135.103 101.151 135.354 101.457 135.354C101.764 135.354 102.012 135.103 102.012 134.795V134.236C102.012 133.927 101.764 133.677 101.457 133.677ZM99.7923 138.707H100.902C101.208 138.707 101.457 138.457 101.457 138.148C101.457 137.839 101.208 137.589 100.902 137.589H99.7923C99.4858 137.589 99.237 137.839 99.237 138.148C99.237 138.457 99.4858 138.707 99.7923 138.707ZM99.7923 133.677C99.4858 133.677 99.237 133.927 99.237 134.236V134.795C99.237 135.103 99.4858 135.354 99.7923 135.354C100.099 135.354 100.347 135.103 100.347 134.795V134.236C100.347 133.927 100.099 133.677 99.7923 133.677ZM98.1274 133.677C97.8209 133.677 97.5722 133.927 97.5722 134.236V134.795C97.5722 135.103 97.8209 135.354 98.1274 135.354C98.4339 135.354 98.6826 135.103 98.6826 134.795V134.236C98.6826 133.927 98.4339 133.677 98.1274 133.677ZM97.0177 138.707H98.1274C98.4339 138.707 98.6826 138.457 98.6826 138.148C98.6826 137.839 98.4339 137.589 98.1274 137.589H97.0177C96.7113 137.589 96.4625 137.839 96.4625 138.148C96.4625 138.457 96.7113 138.707 97.0177 138.707ZM94.2424 138.707H95.3529C95.6593 138.707 95.9073 138.457 95.9073 138.148C95.9073 137.839 95.6593 137.589 95.3529 137.589H94.2424C93.9359 137.589 93.688 137.839 93.688 138.148C93.688 138.457 93.9359 138.707 94.2424 138.707ZM98.1274 133.677C97.8209 133.677 97.5722 133.927 97.5722 134.236V134.795C97.5722 135.103 97.8209 135.354 98.1274 135.354C98.4339 135.354 98.6826 135.103 98.6826 134.795V134.236C98.6826 133.927 98.4339 133.677 98.1274 133.677ZM99.7923 133.677C99.4858 133.677 99.237 133.927 99.237 134.236V134.795C99.237 135.103 99.4858 135.354 99.7923 135.354C100.099 135.354 100.347 135.103 100.347 134.795V134.236C100.347 133.927 100.099 133.677 99.7923 133.677ZM101.457 133.677C101.151 133.677 100.902 133.927 100.902 134.236V134.795C100.902 135.103 101.151 135.354 101.457 135.354C101.764 135.354 102.012 135.103 102.012 134.795V134.236C102.012 133.927 101.764 133.677 101.457 133.677ZM103.122 133.677C102.816 133.677 102.567 133.927 102.567 134.236V134.795C102.567 135.103 102.816 135.354 103.122 135.354C103.428 135.354 103.677 135.103 103.677 134.795V134.236C103.677 133.927 103.428 133.677 103.122 133.677ZM104.787 133.677C104.48 133.677 104.232 133.927 104.232 134.236V134.795C104.232 135.103 104.48 135.354 104.787 135.354C105.093 135.354 105.342 135.103 105.342 134.795V134.236C105.342 133.927 105.093 133.677 104.787 133.677ZM95.3529 137.589H94.2424C93.9359 137.589 93.688 137.839 93.688 138.148C93.688 138.457 93.9359 138.707 94.2424 138.707H95.3529C95.6593 138.707 95.9073 138.457 95.9073 138.148C95.9073 137.839 95.6593 137.589 95.3529 137.589ZM98.1274 137.589H97.0177C96.7113 137.589 96.4625 137.839 96.4625 138.148C96.4625 138.457 96.7113 138.707 97.0177 138.707H98.1274C98.4339 138.707 98.6826 138.457 98.6826 138.148C98.6826 137.839 98.4339 137.589 98.1274 137.589ZM100.902 137.589H99.7923C99.4858 137.589 99.237 137.839 99.237 138.148C99.237 138.457 99.4858 138.707 99.7923 138.707H100.902C101.208 138.707 101.457 138.457 101.457 138.148C101.457 137.839 101.208 137.589 100.902 137.589ZM102.012 139.824H100.902C100.595 139.824 100.347 140.075 100.347 140.384C100.347 140.692 100.595 140.942 100.902 140.942H102.012C102.319 140.942 102.567 140.692 102.567 140.384C102.567 140.075 102.319 139.824 102.012 139.824ZM103.677 137.589H102.567C102.26 137.589 102.012 137.839 102.012 138.148C102.012 138.457 102.26 138.707 102.567 138.707H103.677C103.984 138.707 104.232 138.457 104.232 138.148C104.232 137.839 103.984 137.589 103.677 137.589ZM104.787 139.824H103.677C103.371 139.824 103.122 140.075 103.122 140.384C103.122 140.692 103.371 140.942 103.677 140.942H104.787C105.093 140.942 105.342 140.692 105.342 140.384C105.342 140.075 105.093 139.824 104.787 139.824ZM106.452 137.589H105.342C105.036 137.589 104.787 137.839 104.787 138.148C104.787 138.457 105.036 138.707 105.342 138.707H106.452C106.758 138.707 107.007 138.457 107.007 138.148C107.007 137.839 106.758 137.589 106.452 137.589ZM107.561 139.824H106.452C106.145 139.824 105.897 140.075 105.897 140.384C105.897 140.692 106.145 140.942 106.452 140.942H107.561C107.868 140.942 108.117 140.692 108.117 140.384C108.117 140.075 107.868 139.824 107.561 139.824ZM109.226 137.589H108.117C107.81 137.589 107.561 137.839 107.561 138.148C107.561 138.457 107.81 138.707 108.117 138.707H109.226C109.533 138.707 109.782 138.457 109.782 138.148C109.782 137.839 109.533 137.589 109.226 137.589ZM110.337 139.824H109.226C108.92 139.824 108.672 140.075 108.672 140.384C108.672 140.692 108.92 140.942 109.226 140.942H110.337C110.643 140.942 110.891 140.692 110.891 140.384C110.891 140.075 110.643 139.824 110.337 139.824ZM113.111 139.824H112.002C111.695 139.824 111.446 140.075 111.446 140.384C111.446 140.692 111.695 140.942 112.002 140.942H113.111C113.418 140.942 113.667 140.692 113.667 140.384C113.667 140.075 113.418 139.824 113.111 139.824ZM112.527 149.765C111.85 150.14 111.042 150.14 110.366 149.765L109.178 149.107C108.166 148.546 106.958 148.545 105.947 149.107L104.758 149.765C104.081 150.14 103.273 150.14 102.597 149.765L101.408 149.107C100.396 148.546 99.1883 148.546 98.177 149.107L96.9877 149.765C96.3121 150.14 95.5041 150.14 94.8277 149.765L94.1123 149.37L95.1887 151.085C95.9715 151.26 96.7983 151.146 97.5234 150.744L98.7127 150.086C99.3891 149.711 100.196 149.711 100.873 150.086L102.062 150.744C103.072 151.304 104.28 151.305 105.293 150.744L106.482 150.086C107.158 149.711 107.966 149.711 108.643 150.086L109.831 150.744C110.511 151.12 111.279 151.244 112.016 151.114L113.106 149.444L112.527 149.765ZM98.1274 137.589H97.0177C96.7113 137.589 96.4625 137.839 96.4625 138.148C96.4625 138.457 96.7113 138.707 97.0177 138.707H98.1274C98.4339 138.707 98.6826 138.457 98.6826 138.148C98.6826 137.839 98.4339 137.589 98.1274 137.589ZM95.3529 137.589H94.2424C93.9359 137.589 93.688 137.839 93.688 138.148C93.688 138.457 93.9359 138.707 94.2424 138.707H95.3529C95.6593 138.707 95.9073 138.457 95.9073 138.148C95.9073 137.839 95.6593 137.589 95.3529 137.589ZM100.902 137.589H99.7923C99.4858 137.589 99.237 137.839 99.237 138.148C99.237 138.457 99.4858 138.707 99.7923 138.707H100.902C101.208 138.707 101.457 138.457 101.457 138.148C101.457 137.839 101.208 137.589 100.902 137.589ZM103.677 137.589H102.567C102.26 137.589 102.012 137.839 102.012 138.148C102.012 138.457 102.26 138.707 102.567 138.707H103.677C103.984 138.707 104.232 138.457 104.232 138.148C104.232 137.839 103.984 137.589 103.677 137.589ZM106.452 137.589H105.342C105.036 137.589 104.787 137.839 104.787 138.148C104.787 138.457 105.036 138.707 105.342 138.707H106.452C106.758 138.707 107.007 138.457 107.007 138.148C107.007 137.839 106.758 137.589 106.452 137.589ZM109.226 137.589H108.117C107.81 137.589 107.561 137.839 107.561 138.148C107.561 138.457 107.81 138.707 108.117 138.707H109.226C109.533 138.707 109.782 138.457 109.782 138.148C109.782 137.839 109.533 137.589 109.226 137.589ZM102.012 139.824H100.902C100.595 139.824 100.347 140.075 100.347 140.384C100.347 140.692 100.595 140.942 100.902 140.942H102.012C102.319 140.942 102.567 140.692 102.567 140.384C102.567 140.075 102.319 139.824 102.012 139.824ZM104.787 139.824H103.677C103.371 139.824 103.122 140.075 103.122 140.384C103.122 140.692 103.371 140.942 103.677 140.942H104.787C105.093 140.942 105.342 140.692 105.342 140.384C105.342 140.075 105.093 139.824 104.787 139.824ZM107.561 139.824H106.452C106.145 139.824 105.897 140.075 105.897 140.384C105.897 140.692 106.145 140.942 106.452 140.942H107.561C107.868 140.942 108.117 140.692 108.117 140.384C108.117 140.075 107.868 139.824 107.561 139.824ZM110.337 139.824H109.226C108.92 139.824 108.672 140.075 108.672 140.384C108.672 140.692 108.92 140.942 109.226 140.942H110.337C110.643 140.942 110.891 140.692 110.891 140.384C110.891 140.075 110.643 139.824 110.337 139.824ZM113.111 139.824H112.002C111.695 139.824 111.446 140.075 111.446 140.384C111.446 140.692 111.695 140.942 112.002 140.942H113.111C113.418 140.942 113.667 140.692 113.667 140.384C113.667 140.075 113.418 139.824 113.111 139.824ZM98.1274 133.677C97.8209 133.677 97.5722 133.927 97.5722 134.236V134.795C97.5722 135.103 97.8209 135.354 98.1274 135.354C98.4339 135.354 98.6826 135.103 98.6826 134.795V134.236C98.6826 133.927 98.4339 133.677 98.1274 133.677ZM99.7923 133.677C99.4858 133.677 99.237 133.927 99.237 134.236V134.795C99.237 135.103 99.4858 135.354 99.7923 135.354C100.099 135.354 100.347 135.103 100.347 134.795V134.236C100.347 133.927 100.099 133.677 99.7923 133.677ZM101.457 133.677C101.151 133.677 100.902 133.927 100.902 134.236V134.795C100.902 135.103 101.151 135.354 101.457 135.354C101.764 135.354 102.012 135.103 102.012 134.795V134.236C102.012 133.927 101.764 133.677 101.457 133.677ZM103.122 133.677C102.816 133.677 102.567 133.927 102.567 134.236V134.795C102.567 135.103 102.816 135.354 103.122 135.354C103.428 135.354 103.677 135.103 103.677 134.795V134.236C103.677 133.927 103.428 133.677 103.122 133.677ZM104.787 133.677C104.48 133.677 104.232 133.927 104.232 134.236V134.795C104.232 135.103 104.48 135.354 104.787 135.354C105.093 135.354 105.342 135.103 105.342 134.795V134.236C105.342 133.927 105.093 133.677 104.787 133.677Z" fill="#52C8FF"/>
<path fill-rule="evenodd" clip-rule="evenodd" d="M-103.597 144.4C-103.637 144.399 -103.678 144.399 -103.719 144.399V142.187C-100.679 142.187 -99.0874 143.162 -97.685 144.022C-96.3637 144.831 -95.2223 145.53 -92.8054 145.53C-90.3893 145.53 -89.2494 144.832 -87.9287 144.023L-87.9272 144.022L-87.9265 144.021C-86.5228 143.162 -84.9317 142.187 -81.893 142.187C-78.8537 142.187 -77.2611 143.162 -75.8587 144.022C-74.5375 144.831 -73.3961 145.53 -70.9791 145.53C-68.5631 145.53 -67.4231 144.832 -66.1024 144.023L-66.101 144.022L-66.1003 144.021C-64.6966 143.162 -63.1054 142.187 -60.0667 142.187C-57.028 142.187 -55.4369 143.162 -54.0332 144.021L-54.0325 144.022C-52.7112 144.831 -51.5698 145.53 -49.1544 145.53C-46.7396 145.53 -45.5982 144.832 -44.2759 144.022L-44.2748 144.022L-44.274 144.021C-42.8703 143.162 -41.2792 142.187 -38.2405 142.187C-35.2018 142.187 -33.6107 143.162 -32.207 144.021L-32.2062 144.022C-30.885 144.831 -29.7436 145.53 -27.3281 145.53C-24.9126 145.53 -23.7713 144.831 -22.45 144.022L-22.4492 144.021C-21.0456 143.162 -19.4544 142.187 -16.4157 142.187C-13.3765 142.187 -11.7839 143.162 -10.3815 144.022C-9.06019 144.831 -7.91882 145.53 -5.50187 145.53C-3.08579 145.53 -1.94584 144.832 -0.625153 144.023L-0.623734 144.022L-0.622978 144.021C0.780693 143.162 2.37181 142.187 5.41051 142.187C8.44923 142.187 10.0404 143.162 11.444 144.021L11.4448 144.022C12.7661 144.831 13.9074 145.53 16.3229 145.53C18.7384 145.53 19.8798 144.831 21.201 144.022L21.2018 144.021C22.6055 143.162 24.1966 142.187 27.2353 142.187C30.2745 142.187 31.8672 143.162 33.2695 144.022C34.5908 144.831 35.7322 145.53 38.1477 145.53C40.5631 145.53 41.706 144.831 43.0273 144.022L43.028 144.021C44.4317 143.162 46.0228 142.187 49.0616 142.187C52.1008 142.187 53.6934 143.162 55.0958 144.022C56.4171 144.831 57.5585 145.53 59.9754 145.53C62.3923 145.53 63.5337 144.831 64.855 144.022L64.8558 144.021C66.2595 143.162 67.8506 142.187 70.8893 142.187C73.9285 142.187 75.5211 143.162 76.9235 144.022C78.2448 144.831 79.3862 145.53 81.8031 145.53C84.2201 145.53 85.3615 144.831 86.6827 144.022L86.6835 144.021C88.0871 143.162 89.6783 142.187 92.717 142.187C95.7562 142.187 97.3488 143.162 98.7512 144.022C100.073 144.831 101.214 145.53 103.631 145.53C106.047 145.53 107.187 144.832 108.508 144.023L108.509 144.022L108.51 144.021C109.913 143.162 111.505 142.187 114.543 142.187C117.582 142.187 119.175 143.162 120.577 144.022C121.899 144.831 123.04 145.53 125.457 145.53C127.872 145.53 129.012 144.833 130.333 144.024L130.337 144.022L130.337 144.021C131.741 143.162 133.332 142.187 136.371 142.187C139.41 142.187 141.003 143.162 142.405 144.022C143.727 144.831 144.868 145.53 147.285 145.53C149.702 145.53 150.843 144.831 152.164 144.022L152.165 144.021C153.569 143.162 155.16 142.187 158.199 142.187C161.238 142.187 162.831 143.162 164.233 144.022C165.554 144.831 166.696 145.53 169.113 145.53C171.529 145.53 172.671 144.831 173.992 144.022L173.993 144.021C175.397 143.162 176.988 142.187 180.026 142.187C183.066 142.187 184.658 143.162 186.061 144.022C187.382 144.831 188.523 145.53 190.94 145.53C193.357 145.53 194.499 144.831 195.82 144.022L195.821 144.021C197.224 143.162 198.815 142.187 201.854 142.187C204.893 142.187 206.486 143.162 207.888 144.022C209.21 144.831 210.351 145.53 212.768 145.53C215.185 145.53 216.326 144.831 217.648 144.022L217.648 144.021C219.052 143.162 220.643 142.187 223.682 142.187C226.721 142.187 228.314 143.162 229.718 144.022C231.039 144.831 232.18 145.53 234.597 145.53C237.013 145.53 238.153 144.832 239.474 144.023L239.475 144.022L239.476 144.021C240.88 143.162 242.471 142.187 245.51 142.187C248.549 142.187 250.141 143.162 251.544 144.022C252.865 144.831 254.006 145.53 256.422 145.53C258.837 145.53 259.98 144.831 261.302 144.022L261.302 144.021C262.706 143.162 264.297 142.187 267.336 142.187C270.375 142.187 271.968 143.162 273.372 144.022C274.693 144.831 275.834 145.53 278.251 145.53C280.668 145.53 281.809 144.831 283.131 144.022L283.132 144.021C284.535 143.162 286.126 142.187 289.166 142.187C292.207 142.187 293.798 143.162 295.201 144.022C296.522 144.831 297.663 145.53 300.08 145.53C302.497 145.53 303.639 144.831 304.96 144.022L304.961 144.021C306.364 143.162 307.956 142.187 310.996 142.187C314.036 142.187 315.627 143.162 317.031 144.021L317.031 144.022C318.353 144.831 319.494 145.53 321.911 145.53C324.328 145.53 325.469 144.831 326.791 144.022L326.791 144.021C328.195 143.162 329.786 142.187 332.825 142.187C335.864 142.187 337.457 143.162 338.861 144.022C340.182 144.831 341.323 145.53 343.74 145.53C346.157 145.53 347.299 144.831 348.62 144.022L348.621 144.021C350.024 143.162 351.615 142.187 354.656 142.187C357.696 142.187 359.287 143.162 360.69 144.021L360.691 144.022C362.013 144.831 363.154 145.53 365.571 145.53C367.988 145.53 369.129 144.831 370.45 144.022L370.451 144.021C371.855 143.162 373.446 142.187 376.486 142.187V144.399C376.463 144.399 376.439 144.399 376.416 144.399V365.036H-103.597V144.4Z" fill="url(#paint0_linear_70_2503)"/>
</g>
<path d="M88.6689 151.715C85.3496 151.715 82.9756 149.91 82.9111 147.289H85.7256C85.8008 148.535 87.0469 149.362 88.6689 149.352C90.377 149.362 91.6123 148.417 91.6123 147.031C91.6123 145.635 90.4092 144.636 88.3896 144.625H86.9932V142.477H88.3896C90.0439 142.477 91.1934 141.553 91.1826 140.199C91.1934 138.889 90.2051 138.008 88.6904 138.008C87.2295 138.008 85.9727 138.824 85.9189 140.135H83.2334C83.2979 137.524 85.6719 135.73 88.7119 135.73C91.8701 135.73 93.9111 137.664 93.8896 140.049C93.9111 141.789 92.751 143.046 91.0537 143.4V143.529C93.2451 143.819 94.4912 145.227 94.4697 147.182C94.4912 149.813 92.0312 151.715 88.6689 151.715ZM102.655 151.715C98.9062 151.715 96.6719 148.814 96.6826 143.723C96.6719 138.652 98.9277 135.73 102.655 135.73C106.383 135.73 108.628 138.652 108.628 143.723C108.628 148.825 106.394 151.715 102.655 151.715ZM99.4971 143.723C99.4971 147.461 100.7 149.362 102.655 149.373C104.6 149.362 105.813 147.461 105.813 143.723C105.803 140.017 104.6 138.062 102.655 138.051C100.711 138.062 99.5078 140.017 99.4971 143.723ZM114.794 143.529C112.581 143.54 111.367 141.896 111.378 139.512C111.367 137.148 112.635 135.516 114.794 135.516C117.039 135.516 118.221 137.148 118.231 139.512C118.221 141.918 116.996 143.54 114.794 143.529ZM113.354 139.512C113.365 140.908 113.849 141.811 114.794 141.811C115.771 141.811 116.233 140.908 116.233 139.512C116.233 138.158 115.804 137.224 114.794 137.234C113.849 137.234 113.365 138.169 113.354 139.512ZM113.376 151.5L124.075 135.945H126.245L115.546 151.5H113.376ZM121.54 147.912C121.529 145.538 122.797 143.895 124.956 143.895C127.19 143.895 128.383 145.538 128.394 147.912C128.383 150.297 127.158 151.919 124.956 151.908C122.743 151.919 121.529 150.275 121.54 147.912ZM123.517 147.912C123.527 149.287 124.011 150.2 124.956 150.189C125.934 150.2 126.396 149.287 126.396 147.912C126.396 146.537 125.966 145.603 124.956 145.613C124.011 145.624 123.527 146.548 123.517 147.912Z" fill="#757575"/>
<path d="M91.3906 159.016V167.5H90.0898V160.305H90.043L88.0156 161.629V160.398L90.125 159.016H91.3906ZM96.5 167.617C94.5371 167.617 93.3828 166.035 93.3828 163.258C93.3828 160.498 94.5488 158.898 96.5 158.898C98.4453 158.898 99.6113 160.498 99.6172 163.258C99.6113 166.035 98.4629 167.617 96.5 167.617ZM94.6719 163.258C94.666 165.373 95.3516 166.504 96.5 166.504C97.6426 166.504 98.3281 165.373 98.3281 163.258C98.3281 161.148 97.6367 159.994 96.5 159.988C95.3574 159.994 94.6719 161.148 94.6719 163.258ZM103.906 167.617C101.943 167.617 100.789 166.035 100.789 163.258C100.789 160.498 101.955 158.898 103.906 158.898C105.852 158.898 107.018 160.498 107.023 163.258C107.018 166.035 105.869 167.617 103.906 167.617ZM102.078 163.258C102.072 165.373 102.758 166.504 103.906 166.504C105.049 166.504 105.734 165.373 105.734 163.258C105.734 161.148 105.043 159.994 103.906 159.988C102.764 159.994 102.078 161.148 102.078 163.258ZM108.477 159.016H110.047L112.73 165.59H112.836L115.52 159.016H117.09V167.5H115.859V161.371H115.777L113.293 167.488H112.273L109.777 161.359H109.707V167.5H108.477V159.016ZM118.824 167.5V159.016H120.113V166.387H123.945V167.5H118.824Z" fill="#757575"/>
<defs>
<linearGradient id="paint0_linear_70_2503" x1="136.383" y1="142.187" x2="136.383" y2="294.252" gradientUnits="userSpaceOnUse">
<stop offset="0.04" stop-color="#52C8FF"/>
<stop offset="0.515" stop-color="#00E5F2"/>
</linearGradient>
<clipPath id="clip0_70_2503">
<rect x="10.6772" y="10.5" width="186" height="186" rx="93" fill="white"/>
</clipPath>
</defs>
</svg>
