<svg width="206" height="206" viewBox="0 0 206 206" fill="none" xmlns="http://www.w3.org/2000/svg">
<g clip-path="url(#clip0_52_1095)">
<rect x="10" y="10" width="186" height="186" rx="93" fill="white"/>
<path d="M95.2544 122.529C94.9268 122.529 94.6618 122.796 94.6618 123.126C94.6618 123.457 94.9268 123.724 95.2544 123.724C95.582 123.724 95.8479 123.456 95.8479 123.126C95.8479 122.797 95.582 122.529 95.2544 122.529ZM112.157 123.118C111.085 123.118 110.214 123.996 110.214 125.074C110.214 126.152 111.085 127.03 112.157 127.03C113.228 127.03 114.099 126.152 114.099 125.074C114.099 123.996 113.227 123.118 112.157 123.118ZM112.157 125.912C111.698 125.912 111.324 125.536 111.324 125.074C111.324 124.611 111.698 124.236 112.157 124.236C112.616 124.236 112.989 124.611 112.989 125.074C112.989 125.536 112.615 125.912 112.157 125.912ZM91.3459 122C91.0394 122 90.7906 122.25 90.7906 122.559V123.677C90.7906 123.985 91.0394 124.236 91.3459 124.236C91.6523 124.236 91.9003 123.985 91.9003 123.677V122.559C91.9003 122.25 91.6523 122 91.3459 122ZM91.3459 125.353C91.0394 125.353 90.7906 125.604 90.7906 125.912V127.03C90.7906 127.338 91.0394 127.589 91.3459 127.589C91.6523 127.589 91.9003 127.338 91.9003 127.03V125.912C91.9003 125.604 91.6523 125.353 91.3459 125.353ZM90.2354 124.236H89.1258C88.8193 124.236 88.5705 124.486 88.5705 124.795C88.5705 125.103 88.8193 125.353 89.1258 125.353H90.2354C90.5419 125.353 90.7906 125.103 90.7906 124.795C90.7906 124.486 90.5419 124.236 90.2354 124.236ZM93.5652 124.236H92.4555C92.149 124.236 91.9003 124.486 91.9003 124.795C91.9003 125.103 92.149 125.353 92.4555 125.353H93.5652C93.8716 125.353 94.1204 125.103 94.1204 124.795C94.1204 124.486 93.8716 124.236 93.5652 124.236ZM94.6756 137.089H93.5652C93.2587 137.089 93.0107 137.339 93.0107 137.648C93.0107 137.957 93.2587 138.207 93.5652 138.207H94.6756C94.9821 138.207 95.23 137.957 95.23 137.648C95.23 137.339 94.9821 137.089 94.6756 137.089ZM97.4501 137.089H96.3405C96.034 137.089 95.7853 137.339 95.7853 137.648C95.7853 137.957 96.034 138.207 96.3405 138.207H97.4501C97.7566 138.207 98.0054 137.957 98.0054 137.648C98.0054 137.339 97.7566 137.089 97.4501 137.089ZM97.4501 133.177C97.1437 133.177 96.8949 133.427 96.8949 133.736V134.295C96.8949 134.603 97.1437 134.854 97.4501 134.854C97.7566 134.854 98.0054 134.603 98.0054 134.295V133.736C98.0054 133.427 97.7566 133.177 97.4501 133.177ZM99.115 133.177C98.8085 133.177 98.5598 133.427 98.5598 133.736V134.295C98.5598 134.603 98.8085 134.854 99.115 134.854C99.4215 134.854 99.6702 134.603 99.6702 134.295V133.736C99.6702 133.427 99.4215 133.177 99.115 133.177ZM100.225 137.089H99.115C98.8085 137.089 98.5598 137.339 98.5598 137.648C98.5598 137.957 98.8085 138.207 99.115 138.207H100.225C100.531 138.207 100.78 137.957 100.78 137.648C100.78 137.339 100.531 137.089 100.225 137.089ZM100.78 133.177C100.473 133.177 100.225 133.427 100.225 133.736V134.295C100.225 134.603 100.473 134.854 100.78 134.854C101.086 134.854 101.335 134.603 101.335 134.295V133.736C101.335 133.427 101.086 133.177 100.78 133.177ZM101.335 139.324H100.225C99.9182 139.324 99.6702 139.575 99.6702 139.884C99.6702 140.192 99.9182 140.442 100.225 140.442H101.335C101.642 140.442 101.89 140.192 101.89 139.884C101.89 139.575 101.642 139.324 101.335 139.324ZM102.445 133.177C102.138 133.177 101.89 133.427 101.89 133.736V134.295C101.89 134.603 102.138 134.854 102.445 134.854C102.751 134.854 103 134.603 103 134.295V133.736C103 133.427 102.751 133.177 102.445 133.177ZM103 137.089H101.89C101.583 137.089 101.335 137.339 101.335 137.648C101.335 137.957 101.583 138.207 101.89 138.207H103C103.306 138.207 103.554 137.957 103.554 137.648C103.554 137.339 103.306 137.089 103 137.089ZM104.11 139.324H103C102.694 139.324 102.445 139.575 102.445 139.884C102.445 140.192 102.694 140.442 103 140.442H104.11C104.416 140.442 104.665 140.192 104.665 139.884C104.665 139.575 104.416 139.324 104.11 139.324ZM104.11 133.177C103.803 133.177 103.554 133.427 103.554 133.736V134.295C103.554 134.603 103.803 134.854 104.11 134.854C104.416 134.854 104.665 134.603 104.665 134.295V133.736C104.665 133.427 104.416 133.177 104.11 133.177ZM105.775 137.089H104.665C104.358 137.089 104.11 137.339 104.11 137.648C104.11 137.957 104.358 138.207 104.665 138.207H105.775C106.081 138.207 106.33 137.957 106.33 137.648C106.33 137.339 106.081 137.089 105.775 137.089ZM106.884 139.324H105.775C105.468 139.324 105.219 139.575 105.219 139.884C105.219 140.192 105.468 140.442 105.775 140.442H106.884C107.191 140.442 107.439 140.192 107.439 139.884C107.439 139.575 107.191 139.324 106.884 139.324ZM108.549 137.089H107.439C107.133 137.089 106.884 137.339 106.884 137.648C106.884 137.957 107.133 138.207 107.439 138.207H108.549C108.856 138.207 109.104 137.957 109.104 137.648C109.104 137.339 108.856 137.089 108.549 137.089ZM109.66 139.324H108.549C108.243 139.324 107.995 139.575 107.995 139.884C107.995 140.192 108.243 140.442 108.549 140.442H109.66C109.966 140.442 110.214 140.192 110.214 139.884C110.214 139.575 109.966 139.324 109.66 139.324ZM112.434 139.324H111.324C111.018 139.324 110.769 139.575 110.769 139.884C110.769 140.192 111.018 140.442 111.324 140.442H112.434C112.741 140.442 112.989 140.192 112.989 139.884C112.989 139.575 112.741 139.324 112.434 139.324ZM112.434 139.324H111.324C111.018 139.324 110.769 139.575 110.769 139.884C110.769 140.192 111.018 140.442 111.324 140.442H112.434C112.741 140.442 112.989 140.192 112.989 139.884C112.989 139.575 112.741 139.324 112.434 139.324ZM109.66 139.324H108.549C108.243 139.324 107.995 139.575 107.995 139.884C107.995 140.192 108.243 140.442 108.549 140.442H109.66C109.966 140.442 110.214 140.192 110.214 139.884C110.214 139.575 109.966 139.324 109.66 139.324ZM109.104 137.648C109.104 137.339 108.856 137.089 108.549 137.089H107.439C107.133 137.089 106.884 137.339 106.884 137.648C106.884 137.957 107.133 138.207 107.439 138.207H108.549C108.856 138.207 109.104 137.957 109.104 137.648ZM106.884 139.324H105.775C105.468 139.324 105.219 139.575 105.219 139.884C105.219 140.192 105.468 140.442 105.775 140.442H106.884C107.191 140.442 107.439 140.192 107.439 139.884C107.439 139.575 107.191 139.324 106.884 139.324ZM106.33 137.648C106.33 137.339 106.081 137.089 105.775 137.089H104.665C104.358 137.089 104.11 137.339 104.11 137.648C104.11 137.957 104.358 138.207 104.665 138.207H105.775C106.081 138.207 106.33 137.957 106.33 137.648ZM104.11 139.324H103C102.694 139.324 102.445 139.575 102.445 139.884C102.445 140.192 102.694 140.442 103 140.442H104.11C104.416 140.442 104.665 140.192 104.665 139.884C104.665 139.575 104.416 139.324 104.11 139.324ZM103.554 137.648C103.554 137.339 103.306 137.089 103 137.089H101.89C101.583 137.089 101.335 137.339 101.335 137.648C101.335 137.957 101.583 138.207 101.89 138.207H103C103.306 138.207 103.554 137.957 103.554 137.648ZM101.335 139.324H100.225C99.9182 139.324 99.6702 139.575 99.6702 139.884C99.6702 140.192 99.9182 140.442 100.225 140.442H101.335C101.642 140.442 101.89 140.192 101.89 139.884C101.89 139.575 101.642 139.324 101.335 139.324ZM99.115 138.207H100.225C100.531 138.207 100.78 137.957 100.78 137.648C100.78 137.339 100.531 137.089 100.225 137.089H99.115C98.8085 137.089 98.5598 137.339 98.5598 137.648C98.5598 137.957 98.8085 138.207 99.115 138.207ZM96.3405 138.207H97.4501C97.7566 138.207 98.0054 137.957 98.0054 137.648C98.0054 137.339 97.7566 137.089 97.4501 137.089H96.3405C96.034 137.089 95.7853 137.339 95.7853 137.648C95.7853 137.957 96.034 138.207 96.3405 138.207ZM93.5652 138.207H94.6756C94.9821 138.207 95.23 137.957 95.23 137.648C95.23 137.339 94.9821 137.089 94.6756 137.089H93.5652C93.2587 137.089 93.0107 137.339 93.0107 137.648C93.0107 137.957 93.2587 138.207 93.5652 138.207ZM104.11 133.177C103.803 133.177 103.554 133.427 103.554 133.736V134.295C103.554 134.603 103.803 134.854 104.11 134.854C104.416 134.854 104.665 134.603 104.665 134.295V133.736C104.665 133.427 104.416 133.177 104.11 133.177ZM102.445 133.177C102.138 133.177 101.89 133.427 101.89 133.736V134.295C101.89 134.603 102.138 134.854 102.445 134.854C102.751 134.854 103 134.603 103 134.295V133.736C103 133.427 102.751 133.177 102.445 133.177ZM100.78 133.177C100.473 133.177 100.225 133.427 100.225 133.736V134.295C100.225 134.603 100.473 134.854 100.78 134.854C101.086 134.854 101.335 134.603 101.335 134.295V133.736C101.335 133.427 101.086 133.177 100.78 133.177ZM99.115 133.177C98.8085 133.177 98.5598 133.427 98.5598 133.736V134.295C98.5598 134.603 98.8085 134.854 99.115 134.854C99.4215 134.854 99.6702 134.603 99.6702 134.295V133.736C99.6702 133.427 99.4215 133.177 99.115 133.177ZM97.4501 133.177C97.1437 133.177 96.8949 133.427 96.8949 133.736V134.295C96.8949 134.603 97.1437 134.854 97.4501 134.854C97.7566 134.854 98.0054 134.603 98.0054 134.295V133.736C98.0054 133.427 97.7566 133.177 97.4501 133.177ZM117.429 134.295C117.238 134.295 117.07 134.391 116.97 134.539C116.681 134.663 115.87 134.801 114.654 134.929V131.501C114.654 131.192 114.405 130.942 114.099 130.942H111.324C111.018 130.942 110.769 131.192 110.769 131.501V135.221C109.755 135.274 108.64 135.319 107.439 135.352V132.618H108.55C108.734 132.618 108.906 132.527 109.009 132.373C109.112 132.219 109.133 132.024 109.064 131.851L107.955 129.057C107.87 128.845 107.666 128.706 107.439 128.706H94.6756C94.4488 128.706 94.2448 128.845 94.1602 129.057L93.0498 131.851C92.9815 132.024 93.0026 132.219 93.1059 132.373C93.2091 132.527 93.3814 132.618 93.5652 132.618H94.6756V135.19C91.5865 135.011 89.5322 134.755 89.0298 134.539C88.9298 134.391 88.7616 134.295 88.5705 134.295C88.2641 134.295 88.0161 134.545 88.0161 134.854V140.442C88.0161 140.555 88.0494 140.665 88.1129 140.758L91.1345 145.2V145.201L91.2686 145.397C91.2654 145.397 91.2613 145.397 91.2581 145.398L92.023 146.617C92.1612 146.661 92.2962 146.719 92.4262 146.791L93.6156 147.45C94.6268 148.011 95.8349 148.011 96.8461 147.45L98.0354 146.791C98.7118 146.417 99.519 146.417 100.195 146.791L101.385 147.45C102.395 148.01 103.603 148.01 104.615 147.45L105.805 146.791C106.481 146.417 107.289 146.417 107.965 146.791L109.154 147.45C110.165 148.01 111.373 148.01 112.384 147.45L113.574 146.791C113.692 146.726 113.815 146.672 113.94 146.629L114.744 145.398C114.744 145.398 114.735 145.397 114.731 145.397L115.065 144.906L117.887 140.758C117.95 140.665 117.984 140.555 117.984 140.442V134.854C117.984 134.545 117.735 134.295 117.429 134.295ZM111.879 132.059H113.544V135.035C113.036 135.077 112.479 135.118 111.879 135.156V132.059ZM95.7853 132.618H106.33V135.378C105.271 135.399 104.163 135.412 103 135.412C100.293 135.412 97.8525 135.348 95.7853 135.249V132.618ZM116.873 140.269L113.133 145.767C113.102 145.783 113.069 145.795 113.038 145.812L111.85 146.471C111.173 146.846 110.365 146.846 109.689 146.471L108.499 145.812C107.488 145.251 106.28 145.251 105.269 145.812L104.08 146.471C103.403 146.846 102.595 146.846 101.919 146.471L100.729 145.812C99.7182 145.252 98.511 145.252 97.4997 145.812L96.3096 146.471C95.6341 146.846 94.826 146.846 94.1497 146.471L92.9603 145.812C92.9294 145.795 92.8969 145.783 92.866 145.767L89.1258 140.269V135.726C89.8493 135.9 91.037 136.055 92.9855 136.201C95.7633 136.411 99.4134 136.531 103 136.531C106.587 136.531 110.237 136.41 113.014 136.201C114.962 136.055 116.151 135.9 116.873 135.726V140.269ZM112.434 139.324H111.324C111.018 139.324 110.769 139.575 110.769 139.884C110.769 140.192 111.018 140.442 111.324 140.442H112.434C112.741 140.442 112.989 140.192 112.989 139.884C112.989 139.575 112.741 139.324 112.434 139.324ZM109.66 139.324H108.549C108.243 139.324 107.995 139.575 107.995 139.884C107.995 140.192 108.243 140.442 108.549 140.442H109.66C109.966 140.442 110.214 140.192 110.214 139.884C110.214 139.575 109.966 139.324 109.66 139.324ZM109.104 137.648C109.104 137.339 108.856 137.089 108.549 137.089H107.439C107.133 137.089 106.884 137.339 106.884 137.648C106.884 137.957 107.133 138.207 107.439 138.207H108.549C108.856 138.207 109.104 137.957 109.104 137.648ZM106.884 139.324H105.775C105.468 139.324 105.219 139.575 105.219 139.884C105.219 140.192 105.468 140.442 105.775 140.442H106.884C107.191 140.442 107.439 140.192 107.439 139.884C107.439 139.575 107.191 139.324 106.884 139.324ZM106.33 137.648C106.33 137.339 106.081 137.089 105.775 137.089H104.665C104.358 137.089 104.11 137.339 104.11 137.648C104.11 137.957 104.358 138.207 104.665 138.207H105.775C106.081 138.207 106.33 137.957 106.33 137.648ZM104.11 134.854C104.416 134.854 104.665 134.603 104.665 134.295V133.736C104.665 133.427 104.416 133.177 104.11 133.177C103.803 133.177 103.554 133.427 103.554 133.736V134.295C103.554 134.603 103.803 134.854 104.11 134.854ZM104.11 139.324H103C102.694 139.324 102.445 139.575 102.445 139.884C102.445 140.192 102.694 140.442 103 140.442H104.11C104.416 140.442 104.665 140.192 104.665 139.884C104.665 139.575 104.416 139.324 104.11 139.324ZM103.554 137.648C103.554 137.339 103.306 137.089 103 137.089H101.89C101.583 137.089 101.335 137.339 101.335 137.648C101.335 137.957 101.583 138.207 101.89 138.207H103C103.306 138.207 103.554 137.957 103.554 137.648ZM103 133.736C103 133.427 102.751 133.177 102.445 133.177C102.138 133.177 101.89 133.427 101.89 133.736V134.295C101.89 134.603 102.138 134.854 102.445 134.854C102.751 134.854 103 134.603 103 134.295V133.736ZM101.335 139.324H100.225C99.9182 139.324 99.6702 139.575 99.6702 139.884C99.6702 140.192 99.9182 140.442 100.225 140.442H101.335C101.642 140.442 101.89 140.192 101.89 139.884C101.89 139.575 101.642 139.324 101.335 139.324ZM100.78 133.177C100.473 133.177 100.225 133.427 100.225 133.736V134.295C100.225 134.603 100.473 134.854 100.78 134.854C101.086 134.854 101.335 134.603 101.335 134.295V133.736C101.335 133.427 101.086 133.177 100.78 133.177ZM99.115 138.207H100.225C100.531 138.207 100.78 137.957 100.78 137.648C100.78 137.339 100.531 137.089 100.225 137.089H99.115C98.8085 137.089 98.5598 137.339 98.5598 137.648C98.5598 137.957 98.8085 138.207 99.115 138.207ZM99.115 133.177C98.8085 133.177 98.5598 133.427 98.5598 133.736V134.295C98.5598 134.603 98.8085 134.854 99.115 134.854C99.4215 134.854 99.6702 134.603 99.6702 134.295V133.736C99.6702 133.427 99.4215 133.177 99.115 133.177ZM97.4501 133.177C97.1437 133.177 96.8949 133.427 96.8949 133.736V134.295C96.8949 134.603 97.1437 134.854 97.4501 134.854C97.7566 134.854 98.0054 134.603 98.0054 134.295V133.736C98.0054 133.427 97.7566 133.177 97.4501 133.177ZM96.3405 138.207H97.4501C97.7566 138.207 98.0054 137.957 98.0054 137.648C98.0054 137.339 97.7566 137.089 97.4501 137.089H96.3405C96.034 137.089 95.7853 137.339 95.7853 137.648C95.7853 137.957 96.034 138.207 96.3405 138.207ZM93.5652 138.207H94.6756C94.9821 138.207 95.23 137.957 95.23 137.648C95.23 137.339 94.9821 137.089 94.6756 137.089H93.5652C93.2587 137.089 93.0107 137.339 93.0107 137.648C93.0107 137.957 93.2587 138.207 93.5652 138.207ZM97.4501 133.177C97.1437 133.177 96.8949 133.427 96.8949 133.736V134.295C96.8949 134.603 97.1437 134.854 97.4501 134.854C97.7566 134.854 98.0054 134.603 98.0054 134.295V133.736C98.0054 133.427 97.7566 133.177 97.4501 133.177ZM99.115 133.177C98.8085 133.177 98.5598 133.427 98.5598 133.736V134.295C98.5598 134.603 98.8085 134.854 99.115 134.854C99.4215 134.854 99.6702 134.603 99.6702 134.295V133.736C99.6702 133.427 99.4215 133.177 99.115 133.177ZM100.78 133.177C100.473 133.177 100.225 133.427 100.225 133.736V134.295C100.225 134.603 100.473 134.854 100.78 134.854C101.086 134.854 101.335 134.603 101.335 134.295V133.736C101.335 133.427 101.086 133.177 100.78 133.177ZM102.445 133.177C102.138 133.177 101.89 133.427 101.89 133.736V134.295C101.89 134.603 102.138 134.854 102.445 134.854C102.751 134.854 103 134.603 103 134.295V133.736C103 133.427 102.751 133.177 102.445 133.177ZM104.11 133.177C103.803 133.177 103.554 133.427 103.554 133.736V134.295C103.554 134.603 103.803 134.854 104.11 134.854C104.416 134.854 104.665 134.603 104.665 134.295V133.736C104.665 133.427 104.416 133.177 104.11 133.177ZM94.6756 137.089H93.5652C93.2587 137.089 93.0107 137.339 93.0107 137.648C93.0107 137.957 93.2587 138.207 93.5652 138.207H94.6756C94.9821 138.207 95.23 137.957 95.23 137.648C95.23 137.339 94.9821 137.089 94.6756 137.089ZM97.4501 137.089H96.3405C96.034 137.089 95.7853 137.339 95.7853 137.648C95.7853 137.957 96.034 138.207 96.3405 138.207H97.4501C97.7566 138.207 98.0054 137.957 98.0054 137.648C98.0054 137.339 97.7566 137.089 97.4501 137.089ZM100.225 137.089H99.115C98.8085 137.089 98.5598 137.339 98.5598 137.648C98.5598 137.957 98.8085 138.207 99.115 138.207H100.225C100.531 138.207 100.78 137.957 100.78 137.648C100.78 137.339 100.531 137.089 100.225 137.089ZM101.335 139.324H100.225C99.9182 139.324 99.6702 139.575 99.6702 139.884C99.6702 140.192 99.9182 140.442 100.225 140.442H101.335C101.642 140.442 101.89 140.192 101.89 139.884C101.89 139.575 101.642 139.324 101.335 139.324ZM103 137.089H101.89C101.583 137.089 101.335 137.339 101.335 137.648C101.335 137.957 101.583 138.207 101.89 138.207H103C103.306 138.207 103.554 137.957 103.554 137.648C103.554 137.339 103.306 137.089 103 137.089ZM104.11 139.324H103C102.694 139.324 102.445 139.575 102.445 139.884C102.445 140.192 102.694 140.442 103 140.442H104.11C104.416 140.442 104.665 140.192 104.665 139.884C104.665 139.575 104.416 139.324 104.11 139.324ZM105.775 137.089H104.665C104.358 137.089 104.11 137.339 104.11 137.648C104.11 137.957 104.358 138.207 104.665 138.207H105.775C106.081 138.207 106.33 137.957 106.33 137.648C106.33 137.339 106.081 137.089 105.775 137.089ZM106.884 139.324H105.775C105.468 139.324 105.219 139.575 105.219 139.884C105.219 140.192 105.468 140.442 105.775 140.442H106.884C107.191 140.442 107.439 140.192 107.439 139.884C107.439 139.575 107.191 139.324 106.884 139.324ZM108.549 137.089H107.439C107.133 137.089 106.884 137.339 106.884 137.648C106.884 137.957 107.133 138.207 107.439 138.207H108.549C108.856 138.207 109.104 137.957 109.104 137.648C109.104 137.339 108.856 137.089 108.549 137.089ZM109.66 139.324H108.549C108.243 139.324 107.995 139.575 107.995 139.884C107.995 140.192 108.243 140.442 108.549 140.442H109.66C109.966 140.442 110.214 140.192 110.214 139.884C110.214 139.575 109.966 139.324 109.66 139.324ZM112.434 139.324H111.324C111.018 139.324 110.769 139.575 110.769 139.884C110.769 140.192 111.018 140.442 111.324 140.442H112.434C112.741 140.442 112.989 140.192 112.989 139.884C112.989 139.575 112.741 139.324 112.434 139.324ZM111.85 149.265C111.173 149.64 110.365 149.64 109.689 149.265L108.5 148.607C107.489 148.046 106.281 148.045 105.27 148.607L104.08 149.265C103.404 149.64 102.596 149.64 101.92 149.265L100.73 148.607C99.719 148.046 98.511 148.046 97.4997 148.607L96.3104 149.265C95.6349 149.64 94.8268 149.64 94.1505 149.265L93.4351 148.87L94.5114 150.585C95.2943 150.76 96.121 150.646 96.8461 150.244L98.0354 149.586C98.7118 149.211 99.519 149.211 100.195 149.586L101.385 150.244C102.395 150.804 103.603 150.805 104.615 150.244L105.805 149.586C106.481 149.211 107.289 149.211 107.965 149.586L109.154 150.244C109.833 150.62 110.602 150.744 111.339 150.614L112.429 148.944L111.85 149.265ZM97.4501 137.089H96.3405C96.034 137.089 95.7853 137.339 95.7853 137.648C95.7853 137.957 96.034 138.207 96.3405 138.207H97.4501C97.7566 138.207 98.0054 137.957 98.0054 137.648C98.0054 137.339 97.7566 137.089 97.4501 137.089ZM94.6756 137.089H93.5652C93.2587 137.089 93.0107 137.339 93.0107 137.648C93.0107 137.957 93.2587 138.207 93.5652 138.207H94.6756C94.9821 138.207 95.23 137.957 95.23 137.648C95.23 137.339 94.9821 137.089 94.6756 137.089ZM100.225 137.089H99.115C98.8085 137.089 98.5598 137.339 98.5598 137.648C98.5598 137.957 98.8085 138.207 99.115 138.207H100.225C100.531 138.207 100.78 137.957 100.78 137.648C100.78 137.339 100.531 137.089 100.225 137.089ZM103 137.089H101.89C101.583 137.089 101.335 137.339 101.335 137.648C101.335 137.957 101.583 138.207 101.89 138.207H103C103.306 138.207 103.554 137.957 103.554 137.648C103.554 137.339 103.306 137.089 103 137.089ZM105.775 137.089H104.665C104.358 137.089 104.11 137.339 104.11 137.648C104.11 137.957 104.358 138.207 104.665 138.207H105.775C106.081 138.207 106.33 137.957 106.33 137.648C106.33 137.339 106.081 137.089 105.775 137.089ZM108.549 137.089H107.439C107.133 137.089 106.884 137.339 106.884 137.648C106.884 137.957 107.133 138.207 107.439 138.207H108.549C108.856 138.207 109.104 137.957 109.104 137.648C109.104 137.339 108.856 137.089 108.549 137.089ZM101.335 139.324H100.225C99.9182 139.324 99.6702 139.575 99.6702 139.884C99.6702 140.192 99.9182 140.442 100.225 140.442H101.335C101.642 140.442 101.89 140.192 101.89 139.884C101.89 139.575 101.642 139.324 101.335 139.324ZM104.11 139.324H103C102.694 139.324 102.445 139.575 102.445 139.884C102.445 140.192 102.694 140.442 103 140.442H104.11C104.416 140.442 104.665 140.192 104.665 139.884C104.665 139.575 104.416 139.324 104.11 139.324ZM106.884 139.324H105.775C105.468 139.324 105.219 139.575 105.219 139.884C105.219 140.192 105.468 140.442 105.775 140.442H106.884C107.191 140.442 107.439 140.192 107.439 139.884C107.439 139.575 107.191 139.324 106.884 139.324ZM109.66 139.324H108.549C108.243 139.324 107.995 139.575 107.995 139.884C107.995 140.192 108.243 140.442 108.549 140.442H109.66C109.966 140.442 110.214 140.192 110.214 139.884C110.214 139.575 109.966 139.324 109.66 139.324ZM112.434 139.324H111.324C111.018 139.324 110.769 139.575 110.769 139.884C110.769 140.192 111.018 140.442 111.324 140.442H112.434C112.741 140.442 112.989 140.192 112.989 139.884C112.989 139.575 112.741 139.324 112.434 139.324ZM97.4501 133.177C97.1437 133.177 96.8949 133.427 96.8949 133.736V134.295C96.8949 134.603 97.1437 134.854 97.4501 134.854C97.7566 134.854 98.0054 134.603 98.0054 134.295V133.736C98.0054 133.427 97.7566 133.177 97.4501 133.177ZM99.115 133.177C98.8085 133.177 98.5598 133.427 98.5598 133.736V134.295C98.5598 134.603 98.8085 134.854 99.115 134.854C99.4215 134.854 99.6702 134.603 99.6702 134.295V133.736C99.6702 133.427 99.4215 133.177 99.115 133.177ZM100.78 133.177C100.473 133.177 100.225 133.427 100.225 133.736V134.295C100.225 134.603 100.473 134.854 100.78 134.854C101.086 134.854 101.335 134.603 101.335 134.295V133.736C101.335 133.427 101.086 133.177 100.78 133.177ZM102.445 133.177C102.138 133.177 101.89 133.427 101.89 133.736V134.295C101.89 134.603 102.138 134.854 102.445 134.854C102.751 134.854 103 134.603 103 134.295V133.736C103 133.427 102.751 133.177 102.445 133.177ZM104.11 133.177C103.803 133.177 103.554 133.427 103.554 133.736V134.295C103.554 134.603 103.803 134.854 104.11 134.854C104.416 134.854 104.665 134.603 104.665 134.295V133.736C104.665 133.427 104.416 133.177 104.11 133.177Z" fill="#52C8FF"/>
<path fill-rule="evenodd" clip-rule="evenodd" d="M-104.274 143.9C-104.315 143.899 -104.355 143.899 -104.396 143.899V141.687C-101.356 141.687 -99.7646 142.662 -98.3622 143.522C-97.0409 144.331 -95.8996 145.03 -93.4826 145.03C-91.0666 145.03 -89.9266 144.332 -88.6059 143.523L-88.6045 143.522L-88.6037 143.521C-87.2001 142.662 -85.6089 141.687 -82.5702 141.687C-79.531 141.687 -77.9384 142.662 -76.536 143.522C-75.2147 144.331 -74.0733 145.03 -71.6564 145.03C-69.2403 145.03 -68.1004 144.332 -66.7797 143.523L-66.7782 143.522L-66.7775 143.521C-65.3738 142.662 -63.7827 141.687 -60.744 141.687C-57.7053 141.687 -56.1142 142.662 -54.7105 143.521L-54.7097 143.522C-53.3885 144.331 -52.2471 145.03 -49.8316 145.03C-47.4168 145.03 -46.2754 144.332 -44.9531 143.522L-44.952 143.522L-44.9513 143.521C-43.5476 142.662 -41.9565 141.687 -38.9177 141.687C-35.8791 141.687 -34.2879 142.662 -32.8843 143.521L-32.8835 143.522C-31.5622 144.331 -30.4208 145.03 -28.0054 145.03C-25.5899 145.03 -24.4485 144.331 -23.1272 143.522L-23.1265 143.521C-21.7228 142.662 -20.1317 141.687 -17.093 141.687C-14.0537 141.687 -12.4611 142.662 -11.0587 143.522C-9.73743 144.331 -8.59606 145.03 -6.17912 145.03C-3.76304 145.03 -2.62309 144.332 -1.3024 143.523L-1.30098 143.522L-1.30022 143.521C0.103447 142.662 1.69456 141.687 4.73327 141.687C7.77199 141.687 9.36311 142.662 10.7668 143.521L10.7675 143.522C12.0888 144.331 13.2302 145.03 15.6457 145.03C18.0611 145.03 19.2025 144.331 20.5238 143.522L20.5246 143.521C21.9282 142.662 23.5193 141.687 26.558 141.687C29.5973 141.687 31.1899 142.662 32.5923 143.522C33.9136 144.331 35.055 145.03 37.4704 145.03C39.8859 145.03 41.0288 144.331 42.35 143.522L42.3508 143.521C43.7545 142.662 45.3456 141.687 48.3843 141.687C51.4236 141.687 53.0162 142.662 54.4185 143.522C55.7398 144.331 56.8812 145.03 59.2982 145.03C61.7151 145.03 62.8565 144.331 64.1778 143.522L64.1785 143.521C65.5822 142.662 67.1733 141.687 70.212 141.687C73.2513 141.687 74.8439 142.662 76.2463 143.522C77.5676 144.331 78.7089 145.03 81.1259 145.03C83.5428 145.03 84.6842 144.331 86.0055 143.522L86.0062 143.521C87.4099 142.662 89.001 141.687 92.0397 141.687C95.079 141.687 96.6716 142.662 98.074 143.522C99.3953 144.331 100.537 145.03 102.954 145.03C105.37 145.03 106.51 144.332 107.83 143.523L107.832 143.522L107.832 143.521C109.236 142.662 110.827 141.687 113.866 141.687C116.905 141.687 118.498 142.662 119.9 143.522C121.222 144.331 122.363 145.03 124.78 145.03C127.195 145.03 128.335 144.333 129.656 143.524L129.659 143.522L129.66 143.521C131.064 142.662 132.655 141.687 135.694 141.687C138.733 141.687 140.326 142.662 141.728 143.522C143.049 144.331 144.191 145.03 146.608 145.03C149.025 145.03 150.166 144.331 151.487 143.522L151.488 143.521C152.892 142.662 154.483 141.687 157.521 141.687C160.561 141.687 162.153 142.662 163.556 143.522C164.877 144.331 166.018 145.03 168.435 145.03C170.852 145.03 171.994 144.331 173.315 143.522L173.316 143.521C174.719 142.662 176.31 141.687 179.349 141.687C182.388 141.687 183.981 142.662 185.383 143.522C186.705 144.331 187.846 145.03 190.263 145.03C192.68 145.03 193.821 144.331 195.143 143.522L195.143 143.521C196.547 142.662 198.138 141.687 201.177 141.687C204.216 141.687 205.809 142.662 207.211 143.522C208.532 144.331 209.674 145.03 212.091 145.03C214.508 145.03 215.649 144.331 216.97 143.522L216.971 143.521C218.375 142.662 219.966 141.687 223.005 141.687C226.044 141.687 227.636 142.662 229.04 143.522C230.362 144.331 231.503 145.03 233.92 145.03C236.336 145.03 237.476 144.332 238.797 143.523L238.798 143.522L238.799 143.521C240.203 142.662 241.794 141.687 244.832 141.687C247.872 141.687 249.464 142.662 250.867 143.522C252.188 144.331 253.329 145.03 255.745 145.03C258.16 145.03 259.303 144.331 260.624 143.522L260.625 143.521C262.029 142.662 263.62 141.687 266.659 141.687C269.698 141.687 271.29 142.662 272.694 143.522C274.016 144.331 275.157 145.03 277.574 145.03C279.991 145.03 281.132 144.331 282.454 143.522L282.454 143.521C283.858 142.662 285.449 141.687 288.489 141.687C291.53 141.687 293.121 142.662 294.523 143.522C295.845 144.331 296.986 145.03 299.403 145.03C301.82 145.03 302.961 144.331 304.283 143.522L304.284 143.521C305.687 142.662 307.278 141.687 310.318 141.687C313.359 141.687 314.95 142.662 316.353 143.521L316.354 143.522C317.675 144.331 318.817 145.03 321.234 145.03C323.651 145.03 324.792 144.331 326.113 143.522L326.114 143.521C327.518 142.662 329.109 141.687 332.148 141.687C335.187 141.687 336.779 142.662 338.183 143.522C339.505 144.331 340.646 145.03 343.063 145.03C345.48 145.03 346.621 144.331 347.943 143.522L347.943 143.521C349.347 142.662 350.938 141.687 353.978 141.687C357.018 141.687 358.61 142.662 360.013 143.521L360.014 143.522C361.335 144.331 362.477 145.03 364.894 145.03C367.311 145.03 368.452 144.331 369.773 143.522L369.774 143.521C371.178 142.662 372.769 141.687 375.809 141.687V143.899C375.785 143.899 375.762 143.899 375.739 143.899V364.536H-104.274V143.9Z" fill="url(#paint0_linear_52_1095)"/>
</g>
<path d="M87.9917 151.215C84.6724 151.215 82.2983 149.41 82.2339 146.789H85.0483C85.1235 148.035 86.3696 148.862 87.9917 148.852C89.6997 148.862 90.9351 147.917 90.9351 146.531C90.9351 145.135 89.7319 144.136 87.7124 144.125H86.3159V141.977H87.7124C89.3667 141.977 90.5161 141.053 90.5054 139.699C90.5161 138.389 89.5278 137.508 88.0132 137.508C86.5522 137.508 85.2954 138.324 85.2417 139.635H82.5562C82.6206 137.024 84.9946 135.23 88.0347 135.23C91.1929 135.23 93.2339 137.164 93.2124 139.549C93.2339 141.289 92.0737 142.546 90.3765 142.9V143.029C92.5679 143.319 93.814 144.727 93.7925 146.682C93.814 149.313 91.354 151.215 87.9917 151.215ZM101.978 151.215C98.229 151.215 95.9946 148.314 96.0054 143.223C95.9946 138.152 98.2505 135.23 101.978 135.23C105.706 135.23 107.951 138.152 107.951 143.223C107.951 148.325 105.716 151.215 101.978 151.215ZM98.8198 143.223C98.8198 146.961 100.023 148.862 101.978 148.873C103.922 148.862 105.136 146.961 105.136 143.223C105.125 139.517 103.922 137.562 101.978 137.551C100.034 137.562 98.8306 139.517 98.8198 143.223ZM114.117 143.029C111.904 143.04 110.69 141.396 110.701 139.012C110.69 136.648 111.958 135.016 114.117 135.016C116.362 135.016 117.543 136.648 117.554 139.012C117.543 141.418 116.319 143.04 114.117 143.029ZM112.677 139.012C112.688 140.408 113.171 141.311 114.117 141.311C115.094 141.311 115.556 140.408 115.556 139.012C115.556 137.658 115.126 136.724 114.117 136.734C113.171 136.734 112.688 137.669 112.677 139.012ZM112.699 151L123.398 135.445H125.568L114.869 151H112.699ZM120.863 147.412C120.852 145.038 122.12 143.395 124.279 143.395C126.513 143.395 127.706 145.038 127.716 147.412C127.706 149.797 126.481 151.419 124.279 151.408C122.066 151.419 120.852 149.775 120.863 147.412ZM122.839 147.412C122.85 148.787 123.333 149.7 124.279 149.689C125.256 149.7 125.718 148.787 125.718 147.412C125.718 146.037 125.289 145.103 124.279 145.113C123.333 145.124 122.85 146.048 122.839 147.412Z" fill="#757575"/>
<path d="M90.7134 158.516V167H89.4126V159.805H89.3657L87.3384 161.129V159.898L89.4478 158.516H90.7134ZM95.8228 167.117C93.8599 167.117 92.7056 165.535 92.7056 162.758C92.7056 159.998 93.8716 158.398 95.8228 158.398C97.7681 158.398 98.9341 159.998 98.9399 162.758C98.9341 165.535 97.7856 167.117 95.8228 167.117ZM93.9946 162.758C93.9888 164.873 94.6743 166.004 95.8228 166.004C96.9653 166.004 97.6509 164.873 97.6509 162.758C97.6509 160.648 96.9595 159.494 95.8228 159.488C94.6802 159.494 93.9946 160.648 93.9946 162.758ZM103.229 167.117C101.266 167.117 100.112 165.535 100.112 162.758C100.112 159.998 101.278 158.398 103.229 158.398C105.174 158.398 106.34 159.998 106.346 162.758C106.34 165.535 105.192 167.117 103.229 167.117ZM101.401 162.758C101.395 164.873 102.081 166.004 103.229 166.004C104.372 166.004 105.057 164.873 105.057 162.758C105.057 160.648 104.366 159.494 103.229 159.488C102.086 159.494 101.401 160.648 101.401 162.758ZM107.799 158.516H109.37L112.053 165.09H112.159L114.842 158.516H116.413V167H115.182V160.871H115.1L112.616 166.988H111.596L109.1 160.859H109.03V167H107.799V158.516ZM118.147 167V158.516H119.436V165.887H123.268V167H118.147Z" fill="#757575"/>
<defs>
<linearGradient id="paint0_linear_52_1095" x1="135.706" y1="141.687" x2="135.706" y2="293.752" gradientUnits="userSpaceOnUse">
<stop offset="0.04" stop-color="#52C8FF"/>
<stop offset="0.515" stop-color="#00E5F2"/>
</linearGradient>
<clipPath id="clip0_52_1095">
<rect x="10" y="10" width="186" height="186" rx="93" fill="white"/>
</clipPath>
</defs>
</svg>
