<svg width="207" height="207" viewBox="0 0 207 207" fill="none" xmlns="http://www.w3.org/2000/svg">
<g clip-path="url(#clip0_52_1092)">
<rect x="10.5259" y="10.5" width="186" height="186" rx="93" fill="white"/>
<path d="M95.7803 106.029C95.4527 106.029 95.1877 106.296 95.1877 106.626C95.1877 106.957 95.4527 107.224 95.7803 107.224C96.1079 107.224 96.3737 106.956 96.3737 106.626C96.3737 106.297 96.1079 106.029 95.7803 106.029ZM112.683 106.618C111.611 106.618 110.74 107.496 110.74 108.574C110.74 109.652 111.611 110.53 112.683 110.53C113.754 110.53 114.625 109.652 114.625 108.574C114.625 107.496 113.753 106.618 112.683 106.618ZM112.683 109.412C112.223 109.412 111.85 109.036 111.85 108.574C111.85 108.111 112.223 107.736 112.683 107.736C113.142 107.736 113.515 108.111 113.515 108.574C113.515 109.036 113.141 109.412 112.683 109.412ZM91.8717 105.5C91.5653 105.5 91.3165 105.75 91.3165 106.059V107.177C91.3165 107.485 91.5653 107.736 91.8717 107.736C92.1782 107.736 92.4262 107.485 92.4262 107.177V106.059C92.4262 105.75 92.1782 105.5 91.8717 105.5ZM91.8717 108.853C91.5653 108.853 91.3165 109.104 91.3165 109.412V110.53C91.3165 110.838 91.5653 111.089 91.8717 111.089C92.1782 111.089 92.4262 110.838 92.4262 110.53V109.412C92.4262 109.104 92.1782 108.853 91.8717 108.853ZM90.7613 107.736H89.6516C89.3452 107.736 89.0964 107.986 89.0964 108.295C89.0964 108.603 89.3452 108.853 89.6516 108.853H90.7613C91.0678 108.853 91.3165 108.603 91.3165 108.295C91.3165 107.986 91.0678 107.736 90.7613 107.736ZM94.091 107.736H92.9814C92.6749 107.736 92.4262 107.986 92.4262 108.295C92.4262 108.603 92.6749 108.853 92.9814 108.853H94.091C94.3975 108.853 94.6463 108.603 94.6463 108.295C94.6463 107.986 94.3975 107.736 94.091 107.736ZM95.2015 120.589H94.091C93.7846 120.589 93.5366 120.839 93.5366 121.148C93.5366 121.457 93.7846 121.707 94.091 121.707H95.2015C95.508 121.707 95.7559 121.457 95.7559 121.148C95.7559 120.839 95.508 120.589 95.2015 120.589ZM97.976 120.589H96.8664C96.5599 120.589 96.3111 120.839 96.3111 121.148C96.3111 121.457 96.5599 121.707 96.8664 121.707H97.976C98.2825 121.707 98.5312 121.457 98.5312 121.148C98.5312 120.839 98.2825 120.589 97.976 120.589ZM97.976 116.677C97.6695 116.677 97.4208 116.927 97.4208 117.236V117.795C97.4208 118.103 97.6695 118.354 97.976 118.354C98.2825 118.354 98.5312 118.103 98.5312 117.795V117.236C98.5312 116.927 98.2825 116.677 97.976 116.677ZM99.6409 116.677C99.3344 116.677 99.0857 116.927 99.0857 117.236V117.795C99.0857 118.103 99.3344 118.354 99.6409 118.354C99.9474 118.354 100.196 118.103 100.196 117.795V117.236C100.196 116.927 99.9474 116.677 99.6409 116.677ZM100.751 120.589H99.6409C99.3344 120.589 99.0857 120.839 99.0857 121.148C99.0857 121.457 99.3344 121.707 99.6409 121.707H100.751C101.057 121.707 101.306 121.457 101.306 121.148C101.306 120.839 101.057 120.589 100.751 120.589ZM101.306 116.677C100.999 116.677 100.751 116.927 100.751 117.236V117.795C100.751 118.103 100.999 118.354 101.306 118.354C101.612 118.354 101.861 118.103 101.861 117.795V117.236C101.861 116.927 101.612 116.677 101.306 116.677ZM101.861 122.824H100.751C100.444 122.824 100.196 123.075 100.196 123.384C100.196 123.692 100.444 123.942 100.751 123.942H101.861C102.167 123.942 102.415 123.692 102.415 123.384C102.415 123.075 102.167 122.824 101.861 122.824ZM102.971 116.677C102.664 116.677 102.415 116.927 102.415 117.236V117.795C102.415 118.103 102.664 118.354 102.971 118.354C103.277 118.354 103.526 118.103 103.526 117.795V117.236C103.526 116.927 103.277 116.677 102.971 116.677ZM103.526 120.589H102.415C102.109 120.589 101.861 120.839 101.861 121.148C101.861 121.457 102.109 121.707 102.415 121.707H103.526C103.832 121.707 104.08 121.457 104.08 121.148C104.08 120.839 103.832 120.589 103.526 120.589ZM104.636 122.824H103.526C103.219 122.824 102.971 123.075 102.971 123.384C102.971 123.692 103.219 123.942 103.526 123.942H104.636C104.942 123.942 105.191 123.692 105.191 123.384C105.191 123.075 104.942 122.824 104.636 122.824ZM104.636 116.677C104.329 116.677 104.08 116.927 104.08 117.236V117.795C104.08 118.103 104.329 118.354 104.636 118.354C104.942 118.354 105.191 118.103 105.191 117.795V117.236C105.191 116.927 104.942 116.677 104.636 116.677ZM106.3 120.589H105.191C104.884 120.589 104.636 120.839 104.636 121.148C104.636 121.457 104.884 121.707 105.191 121.707H106.3C106.607 121.707 106.856 121.457 106.856 121.148C106.856 120.839 106.607 120.589 106.3 120.589ZM107.41 122.824H106.3C105.994 122.824 105.745 123.075 105.745 123.384C105.745 123.692 105.994 123.942 106.3 123.942H107.41C107.717 123.942 107.965 123.692 107.965 123.384C107.965 123.075 107.717 122.824 107.41 122.824ZM109.075 120.589H107.965C107.659 120.589 107.41 120.839 107.41 121.148C107.41 121.457 107.659 121.707 107.965 121.707H109.075C109.381 121.707 109.63 121.457 109.63 121.148C109.63 120.839 109.381 120.589 109.075 120.589ZM110.185 122.824H109.075C108.768 122.824 108.521 123.075 108.521 123.384C108.521 123.692 108.768 123.942 109.075 123.942H110.185C110.492 123.942 110.74 123.692 110.74 123.384C110.74 123.075 110.492 122.824 110.185 122.824ZM112.96 122.824H111.85C111.544 122.824 111.295 123.075 111.295 123.384C111.295 123.692 111.544 123.942 111.85 123.942H112.96C113.266 123.942 113.515 123.692 113.515 123.384C113.515 123.075 113.266 122.824 112.96 122.824ZM112.96 122.824H111.85C111.544 122.824 111.295 123.075 111.295 123.384C111.295 123.692 111.544 123.942 111.85 123.942H112.96C113.266 123.942 113.515 123.692 113.515 123.384C113.515 123.075 113.266 122.824 112.96 122.824ZM110.185 122.824H109.075C108.768 122.824 108.521 123.075 108.521 123.384C108.521 123.692 108.768 123.942 109.075 123.942H110.185C110.492 123.942 110.74 123.692 110.74 123.384C110.74 123.075 110.492 122.824 110.185 122.824ZM109.63 121.148C109.63 120.839 109.381 120.589 109.075 120.589H107.965C107.659 120.589 107.41 120.839 107.41 121.148C107.41 121.457 107.659 121.707 107.965 121.707H109.075C109.381 121.707 109.63 121.457 109.63 121.148ZM107.41 122.824H106.3C105.994 122.824 105.745 123.075 105.745 123.384C105.745 123.692 105.994 123.942 106.3 123.942H107.41C107.717 123.942 107.965 123.692 107.965 123.384C107.965 123.075 107.717 122.824 107.41 122.824ZM106.856 121.148C106.856 120.839 106.607 120.589 106.3 120.589H105.191C104.884 120.589 104.636 120.839 104.636 121.148C104.636 121.457 104.884 121.707 105.191 121.707H106.3C106.607 121.707 106.856 121.457 106.856 121.148ZM104.636 122.824H103.526C103.219 122.824 102.971 123.075 102.971 123.384C102.971 123.692 103.219 123.942 103.526 123.942H104.636C104.942 123.942 105.191 123.692 105.191 123.384C105.191 123.075 104.942 122.824 104.636 122.824ZM104.08 121.148C104.08 120.839 103.832 120.589 103.526 120.589H102.415C102.109 120.589 101.861 120.839 101.861 121.148C101.861 121.457 102.109 121.707 102.415 121.707H103.526C103.832 121.707 104.08 121.457 104.08 121.148ZM101.861 122.824H100.751C100.444 122.824 100.196 123.075 100.196 123.384C100.196 123.692 100.444 123.942 100.751 123.942H101.861C102.167 123.942 102.415 123.692 102.415 123.384C102.415 123.075 102.167 122.824 101.861 122.824ZM99.6409 121.707H100.751C101.057 121.707 101.306 121.457 101.306 121.148C101.306 120.839 101.057 120.589 100.751 120.589H99.6409C99.3344 120.589 99.0857 120.839 99.0857 121.148C99.0857 121.457 99.3344 121.707 99.6409 121.707ZM96.8664 121.707H97.976C98.2825 121.707 98.5312 121.457 98.5312 121.148C98.5312 120.839 98.2825 120.589 97.976 120.589H96.8664C96.5599 120.589 96.3111 120.839 96.3111 121.148C96.3111 121.457 96.5599 121.707 96.8664 121.707ZM94.091 121.707H95.2015C95.508 121.707 95.7559 121.457 95.7559 121.148C95.7559 120.839 95.508 120.589 95.2015 120.589H94.091C93.7846 120.589 93.5366 120.839 93.5366 121.148C93.5366 121.457 93.7846 121.707 94.091 121.707ZM104.636 116.677C104.329 116.677 104.08 116.927 104.08 117.236V117.795C104.08 118.103 104.329 118.354 104.636 118.354C104.942 118.354 105.191 118.103 105.191 117.795V117.236C105.191 116.927 104.942 116.677 104.636 116.677ZM102.971 116.677C102.664 116.677 102.415 116.927 102.415 117.236V117.795C102.415 118.103 102.664 118.354 102.971 118.354C103.277 118.354 103.526 118.103 103.526 117.795V117.236C103.526 116.927 103.277 116.677 102.971 116.677ZM101.306 116.677C100.999 116.677 100.751 116.927 100.751 117.236V117.795C100.751 118.103 100.999 118.354 101.306 118.354C101.612 118.354 101.861 118.103 101.861 117.795V117.236C101.861 116.927 101.612 116.677 101.306 116.677ZM99.6409 116.677C99.3344 116.677 99.0857 116.927 99.0857 117.236V117.795C99.0857 118.103 99.3344 118.354 99.6409 118.354C99.9474 118.354 100.196 118.103 100.196 117.795V117.236C100.196 116.927 99.9474 116.677 99.6409 116.677ZM97.976 116.677C97.6695 116.677 97.4208 116.927 97.4208 117.236V117.795C97.4208 118.103 97.6695 118.354 97.976 118.354C98.2825 118.354 98.5312 118.103 98.5312 117.795V117.236C98.5312 116.927 98.2825 116.677 97.976 116.677ZM117.955 117.795C117.764 117.795 117.596 117.891 117.496 118.039C117.207 118.163 116.396 118.301 115.18 118.429V115.001C115.18 114.692 114.931 114.442 114.625 114.442H111.85C111.544 114.442 111.295 114.692 111.295 115.001V118.721C110.281 118.774 109.166 118.819 107.965 118.852V116.118H109.076C109.259 116.118 109.432 116.027 109.535 115.873C109.638 115.719 109.659 115.524 109.59 115.351L108.481 112.557C108.396 112.345 108.192 112.206 107.965 112.206H95.2015C94.9747 112.206 94.7706 112.345 94.6861 112.557L93.5756 115.351C93.5074 115.524 93.5285 115.719 93.6317 115.873C93.735 116.027 93.9073 116.118 94.091 116.118H95.2015V118.69C92.1124 118.511 90.0581 118.255 89.5557 118.039C89.4557 117.891 89.2874 117.795 89.0964 117.795C88.7899 117.795 88.542 118.045 88.542 118.354V123.942C88.542 124.055 88.5753 124.165 88.6387 124.258L91.6604 128.7V128.701L91.7945 128.897C91.7913 128.897 91.7872 128.897 91.7839 128.898L92.5489 130.117C92.6871 130.161 92.8221 130.219 92.9521 130.291L94.1414 130.95C95.1527 131.511 96.3607 131.511 97.372 130.95L98.5613 130.291C99.2377 129.917 100.045 129.917 100.721 130.291L101.911 130.95C102.921 131.51 104.129 131.51 105.141 130.95L106.33 130.291C107.007 129.917 107.815 129.917 108.491 130.291L109.68 130.95C110.691 131.51 111.899 131.51 112.91 130.95L114.1 130.291C114.218 130.226 114.341 130.172 114.466 130.129L115.27 128.898C115.27 128.898 115.261 128.897 115.257 128.897L115.591 128.406L118.413 124.258C118.476 124.165 118.51 124.055 118.51 123.942V118.354C118.51 118.045 118.261 117.795 117.955 117.795ZM112.405 115.559H114.07V118.535C113.562 118.577 113.005 118.618 112.405 118.656V115.559ZM96.3111 116.118H106.856V118.878C105.797 118.899 104.689 118.912 103.526 118.912C100.819 118.912 98.3784 118.848 96.3111 118.749V116.118ZM117.399 123.769L113.659 129.267C113.628 129.283 113.595 129.295 113.564 129.312L112.375 129.971C111.699 130.346 110.891 130.346 110.215 129.971L109.025 129.312C108.014 128.751 106.806 128.751 105.795 129.312L104.605 129.971C103.929 130.346 103.121 130.346 102.445 129.971L101.255 129.312C100.244 128.752 99.0369 128.752 98.0256 129.312L96.8355 129.971C96.1599 130.346 95.3519 130.346 94.6755 129.971L93.4862 129.312C93.4553 129.295 93.4228 129.283 93.3919 129.267L89.6516 123.769V119.226C90.3751 119.4 91.5628 119.555 93.5114 119.701C96.2892 119.911 99.9392 120.031 103.526 120.031C107.113 120.031 110.763 119.91 113.54 119.701C115.488 119.555 116.677 119.4 117.399 119.226V123.769ZM112.96 122.824H111.85C111.544 122.824 111.295 123.075 111.295 123.384C111.295 123.692 111.544 123.942 111.85 123.942H112.96C113.266 123.942 113.515 123.692 113.515 123.384C113.515 123.075 113.266 122.824 112.96 122.824ZM110.185 122.824H109.075C108.768 122.824 108.521 123.075 108.521 123.384C108.521 123.692 108.768 123.942 109.075 123.942H110.185C110.492 123.942 110.74 123.692 110.74 123.384C110.74 123.075 110.492 122.824 110.185 122.824ZM109.63 121.148C109.63 120.839 109.381 120.589 109.075 120.589H107.965C107.659 120.589 107.41 120.839 107.41 121.148C107.41 121.457 107.659 121.707 107.965 121.707H109.075C109.381 121.707 109.63 121.457 109.63 121.148ZM107.41 122.824H106.3C105.994 122.824 105.745 123.075 105.745 123.384C105.745 123.692 105.994 123.942 106.3 123.942H107.41C107.717 123.942 107.965 123.692 107.965 123.384C107.965 123.075 107.717 122.824 107.41 122.824ZM106.856 121.148C106.856 120.839 106.607 120.589 106.3 120.589H105.191C104.884 120.589 104.636 120.839 104.636 121.148C104.636 121.457 104.884 121.707 105.191 121.707H106.3C106.607 121.707 106.856 121.457 106.856 121.148ZM104.636 118.354C104.942 118.354 105.191 118.103 105.191 117.795V117.236C105.191 116.927 104.942 116.677 104.636 116.677C104.329 116.677 104.08 116.927 104.08 117.236V117.795C104.08 118.103 104.329 118.354 104.636 118.354ZM104.636 122.824H103.526C103.219 122.824 102.971 123.075 102.971 123.384C102.971 123.692 103.219 123.942 103.526 123.942H104.636C104.942 123.942 105.191 123.692 105.191 123.384C105.191 123.075 104.942 122.824 104.636 122.824ZM104.08 121.148C104.08 120.839 103.832 120.589 103.526 120.589H102.415C102.109 120.589 101.861 120.839 101.861 121.148C101.861 121.457 102.109 121.707 102.415 121.707H103.526C103.832 121.707 104.08 121.457 104.08 121.148ZM103.526 117.236C103.526 116.927 103.277 116.677 102.971 116.677C102.664 116.677 102.415 116.927 102.415 117.236V117.795C102.415 118.103 102.664 118.354 102.971 118.354C103.277 118.354 103.526 118.103 103.526 117.795V117.236ZM101.861 122.824H100.751C100.444 122.824 100.196 123.075 100.196 123.384C100.196 123.692 100.444 123.942 100.751 123.942H101.861C102.167 123.942 102.415 123.692 102.415 123.384C102.415 123.075 102.167 122.824 101.861 122.824ZM101.306 116.677C100.999 116.677 100.751 116.927 100.751 117.236V117.795C100.751 118.103 100.999 118.354 101.306 118.354C101.612 118.354 101.861 118.103 101.861 117.795V117.236C101.861 116.927 101.612 116.677 101.306 116.677ZM99.6409 121.707H100.751C101.057 121.707 101.306 121.457 101.306 121.148C101.306 120.839 101.057 120.589 100.751 120.589H99.6409C99.3344 120.589 99.0857 120.839 99.0857 121.148C99.0857 121.457 99.3344 121.707 99.6409 121.707ZM99.6409 116.677C99.3344 116.677 99.0857 116.927 99.0857 117.236V117.795C99.0857 118.103 99.3344 118.354 99.6409 118.354C99.9474 118.354 100.196 118.103 100.196 117.795V117.236C100.196 116.927 99.9474 116.677 99.6409 116.677ZM97.976 116.677C97.6695 116.677 97.4208 116.927 97.4208 117.236V117.795C97.4208 118.103 97.6695 118.354 97.976 118.354C98.2825 118.354 98.5312 118.103 98.5312 117.795V117.236C98.5312 116.927 98.2825 116.677 97.976 116.677ZM96.8664 121.707H97.976C98.2825 121.707 98.5312 121.457 98.5312 121.148C98.5312 120.839 98.2825 120.589 97.976 120.589H96.8664C96.5599 120.589 96.3111 120.839 96.3111 121.148C96.3111 121.457 96.5599 121.707 96.8664 121.707ZM94.091 121.707H95.2015C95.508 121.707 95.7559 121.457 95.7559 121.148C95.7559 120.839 95.508 120.589 95.2015 120.589H94.091C93.7846 120.589 93.5366 120.839 93.5366 121.148C93.5366 121.457 93.7846 121.707 94.091 121.707ZM97.976 116.677C97.6695 116.677 97.4208 116.927 97.4208 117.236V117.795C97.4208 118.103 97.6695 118.354 97.976 118.354C98.2825 118.354 98.5312 118.103 98.5312 117.795V117.236C98.5312 116.927 98.2825 116.677 97.976 116.677ZM99.6409 116.677C99.3344 116.677 99.0857 116.927 99.0857 117.236V117.795C99.0857 118.103 99.3344 118.354 99.6409 118.354C99.9474 118.354 100.196 118.103 100.196 117.795V117.236C100.196 116.927 99.9474 116.677 99.6409 116.677ZM101.306 116.677C100.999 116.677 100.751 116.927 100.751 117.236V117.795C100.751 118.103 100.999 118.354 101.306 118.354C101.612 118.354 101.861 118.103 101.861 117.795V117.236C101.861 116.927 101.612 116.677 101.306 116.677ZM102.971 116.677C102.664 116.677 102.415 116.927 102.415 117.236V117.795C102.415 118.103 102.664 118.354 102.971 118.354C103.277 118.354 103.526 118.103 103.526 117.795V117.236C103.526 116.927 103.277 116.677 102.971 116.677ZM104.636 116.677C104.329 116.677 104.08 116.927 104.08 117.236V117.795C104.08 118.103 104.329 118.354 104.636 118.354C104.942 118.354 105.191 118.103 105.191 117.795V117.236C105.191 116.927 104.942 116.677 104.636 116.677ZM95.2015 120.589H94.091C93.7846 120.589 93.5366 120.839 93.5366 121.148C93.5366 121.457 93.7846 121.707 94.091 121.707H95.2015C95.508 121.707 95.7559 121.457 95.7559 121.148C95.7559 120.839 95.508 120.589 95.2015 120.589ZM97.976 120.589H96.8664C96.5599 120.589 96.3111 120.839 96.3111 121.148C96.3111 121.457 96.5599 121.707 96.8664 121.707H97.976C98.2825 121.707 98.5312 121.457 98.5312 121.148C98.5312 120.839 98.2825 120.589 97.976 120.589ZM100.751 120.589H99.6409C99.3344 120.589 99.0857 120.839 99.0857 121.148C99.0857 121.457 99.3344 121.707 99.6409 121.707H100.751C101.057 121.707 101.306 121.457 101.306 121.148C101.306 120.839 101.057 120.589 100.751 120.589ZM101.861 122.824H100.751C100.444 122.824 100.196 123.075 100.196 123.384C100.196 123.692 100.444 123.942 100.751 123.942H101.861C102.167 123.942 102.415 123.692 102.415 123.384C102.415 123.075 102.167 122.824 101.861 122.824ZM103.526 120.589H102.415C102.109 120.589 101.861 120.839 101.861 121.148C101.861 121.457 102.109 121.707 102.415 121.707H103.526C103.832 121.707 104.08 121.457 104.08 121.148C104.08 120.839 103.832 120.589 103.526 120.589ZM104.636 122.824H103.526C103.219 122.824 102.971 123.075 102.971 123.384C102.971 123.692 103.219 123.942 103.526 123.942H104.636C104.942 123.942 105.191 123.692 105.191 123.384C105.191 123.075 104.942 122.824 104.636 122.824ZM106.3 120.589H105.191C104.884 120.589 104.636 120.839 104.636 121.148C104.636 121.457 104.884 121.707 105.191 121.707H106.3C106.607 121.707 106.856 121.457 106.856 121.148C106.856 120.839 106.607 120.589 106.3 120.589ZM107.41 122.824H106.3C105.994 122.824 105.745 123.075 105.745 123.384C105.745 123.692 105.994 123.942 106.3 123.942H107.41C107.717 123.942 107.965 123.692 107.965 123.384C107.965 123.075 107.717 122.824 107.41 122.824ZM109.075 120.589H107.965C107.659 120.589 107.41 120.839 107.41 121.148C107.41 121.457 107.659 121.707 107.965 121.707H109.075C109.381 121.707 109.63 121.457 109.63 121.148C109.63 120.839 109.381 120.589 109.075 120.589ZM110.185 122.824H109.075C108.768 122.824 108.521 123.075 108.521 123.384C108.521 123.692 108.768 123.942 109.075 123.942H110.185C110.492 123.942 110.74 123.692 110.74 123.384C110.74 123.075 110.492 122.824 110.185 122.824ZM112.96 122.824H111.85C111.544 122.824 111.295 123.075 111.295 123.384C111.295 123.692 111.544 123.942 111.85 123.942H112.96C113.266 123.942 113.515 123.692 113.515 123.384C113.515 123.075 113.266 122.824 112.96 122.824ZM112.375 132.765C111.699 133.14 110.891 133.14 110.215 132.765L109.026 132.107C108.015 131.546 106.807 131.545 105.796 132.107L104.606 132.765C103.93 133.14 103.122 133.14 102.445 132.765L101.256 132.107C100.245 131.546 99.0369 131.546 98.0256 132.107L96.8363 132.765C96.1608 133.14 95.3527 133.14 94.6763 132.765L93.961 132.37L95.0373 134.085C95.8201 134.26 96.6469 134.146 97.372 133.744L98.5613 133.086C99.2377 132.711 100.045 132.711 100.721 133.086L101.911 133.744C102.921 134.304 104.129 134.305 105.141 133.744L106.33 133.086C107.007 132.711 107.815 132.711 108.491 133.086L109.68 133.744C110.359 134.12 111.128 134.244 111.865 134.114L112.955 132.444L112.375 132.765ZM97.976 120.589H96.8664C96.5599 120.589 96.3111 120.839 96.3111 121.148C96.3111 121.457 96.5599 121.707 96.8664 121.707H97.976C98.2825 121.707 98.5312 121.457 98.5312 121.148C98.5312 120.839 98.2825 120.589 97.976 120.589ZM95.2015 120.589H94.091C93.7846 120.589 93.5366 120.839 93.5366 121.148C93.5366 121.457 93.7846 121.707 94.091 121.707H95.2015C95.508 121.707 95.7559 121.457 95.7559 121.148C95.7559 120.839 95.508 120.589 95.2015 120.589ZM100.751 120.589H99.6409C99.3344 120.589 99.0857 120.839 99.0857 121.148C99.0857 121.457 99.3344 121.707 99.6409 121.707H100.751C101.057 121.707 101.306 121.457 101.306 121.148C101.306 120.839 101.057 120.589 100.751 120.589ZM103.526 120.589H102.415C102.109 120.589 101.861 120.839 101.861 121.148C101.861 121.457 102.109 121.707 102.415 121.707H103.526C103.832 121.707 104.08 121.457 104.08 121.148C104.08 120.839 103.832 120.589 103.526 120.589ZM106.3 120.589H105.191C104.884 120.589 104.636 120.839 104.636 121.148C104.636 121.457 104.884 121.707 105.191 121.707H106.3C106.607 121.707 106.856 121.457 106.856 121.148C106.856 120.839 106.607 120.589 106.3 120.589ZM109.075 120.589H107.965C107.659 120.589 107.41 120.839 107.41 121.148C107.41 121.457 107.659 121.707 107.965 121.707H109.075C109.381 121.707 109.63 121.457 109.63 121.148C109.63 120.839 109.381 120.589 109.075 120.589ZM101.861 122.824H100.751C100.444 122.824 100.196 123.075 100.196 123.384C100.196 123.692 100.444 123.942 100.751 123.942H101.861C102.167 123.942 102.415 123.692 102.415 123.384C102.415 123.075 102.167 122.824 101.861 122.824ZM104.636 122.824H103.526C103.219 122.824 102.971 123.075 102.971 123.384C102.971 123.692 103.219 123.942 103.526 123.942H104.636C104.942 123.942 105.191 123.692 105.191 123.384C105.191 123.075 104.942 122.824 104.636 122.824ZM107.41 122.824H106.3C105.994 122.824 105.745 123.075 105.745 123.384C105.745 123.692 105.994 123.942 106.3 123.942H107.41C107.717 123.942 107.965 123.692 107.965 123.384C107.965 123.075 107.717 122.824 107.41 122.824ZM110.185 122.824H109.075C108.768 122.824 108.521 123.075 108.521 123.384C108.521 123.692 108.768 123.942 109.075 123.942H110.185C110.492 123.942 110.74 123.692 110.74 123.384C110.74 123.075 110.492 122.824 110.185 122.824ZM112.96 122.824H111.85C111.544 122.824 111.295 123.075 111.295 123.384C111.295 123.692 111.544 123.942 111.85 123.942H112.96C113.266 123.942 113.515 123.692 113.515 123.384C113.515 123.075 113.266 122.824 112.96 122.824ZM97.976 116.677C97.6695 116.677 97.4208 116.927 97.4208 117.236V117.795C97.4208 118.103 97.6695 118.354 97.976 118.354C98.2825 118.354 98.5312 118.103 98.5312 117.795V117.236C98.5312 116.927 98.2825 116.677 97.976 116.677ZM99.6409 116.677C99.3344 116.677 99.0857 116.927 99.0857 117.236V117.795C99.0857 118.103 99.3344 118.354 99.6409 118.354C99.9474 118.354 100.196 118.103 100.196 117.795V117.236C100.196 116.927 99.9474 116.677 99.6409 116.677ZM101.306 116.677C100.999 116.677 100.751 116.927 100.751 117.236V117.795C100.751 118.103 100.999 118.354 101.306 118.354C101.612 118.354 101.861 118.103 101.861 117.795V117.236C101.861 116.927 101.612 116.677 101.306 116.677ZM102.971 116.677C102.664 116.677 102.415 116.927 102.415 117.236V117.795C102.415 118.103 102.664 118.354 102.971 118.354C103.277 118.354 103.526 118.103 103.526 117.795V117.236C103.526 116.927 103.277 116.677 102.971 116.677ZM104.636 116.677C104.329 116.677 104.08 116.927 104.08 117.236V117.795C104.08 118.103 104.329 118.354 104.636 118.354C104.942 118.354 105.191 118.103 105.191 117.795V117.236C105.191 116.927 104.942 116.677 104.636 116.677Z" fill="#52C8FF"/>
<path fill-rule="evenodd" clip-rule="evenodd" d="M-103.748 127.4C-103.789 127.399 -103.83 127.399 -103.871 127.399V125.187C-100.83 125.187 -99.2387 126.162 -97.8364 127.022C-96.5151 127.831 -95.3737 128.53 -92.9567 128.53C-90.5407 128.53 -89.4007 127.832 -88.0801 127.023L-88.0786 127.022L-88.0779 127.021C-86.6742 126.162 -85.0831 125.187 -82.0444 125.187C-79.0051 125.187 -77.4125 126.162 -76.0101 127.022C-74.6888 127.831 -73.5474 128.53 -71.1305 128.53C-68.7144 128.53 -67.5745 127.832 -66.2538 127.023L-66.2524 127.022L-66.2516 127.021C-64.8479 126.162 -63.2568 125.187 -60.2181 125.187C-57.1794 125.187 -55.5883 126.162 -54.1846 127.021L-54.1839 127.022C-52.8626 127.831 -51.7212 128.53 -49.3057 128.53C-46.8909 128.53 -45.7495 127.832 -44.4272 127.022L-44.4261 127.022L-44.4254 127.021C-43.0217 126.162 -41.4306 125.187 -38.3919 125.187C-35.3532 125.187 -33.7621 126.162 -32.3584 127.021L-32.3576 127.022C-31.0363 127.831 -29.8949 128.53 -27.4795 128.53C-25.064 128.53 -23.9226 127.831 -22.6013 127.022L-22.6006 127.021C-21.1969 126.162 -19.6058 125.187 -16.5671 125.187C-13.5278 125.187 -11.9352 126.162 -10.5328 127.022C-9.21156 127.831 -8.07018 128.53 -5.65324 128.53C-3.23716 128.53 -2.09721 127.832 -0.77652 127.023L-0.775101 127.022L-0.774345 127.021C0.629326 126.162 2.22044 125.187 5.25915 125.187C8.29787 125.187 9.88898 126.162 11.2927 127.021L11.2934 127.022C12.6147 127.831 13.7561 128.53 16.1715 128.53C18.587 128.53 19.7284 127.831 21.0497 127.022L21.0504 127.021C22.4541 126.162 24.0452 125.187 27.0839 125.187C30.1232 125.187 31.7158 126.162 33.1182 127.022C34.4395 127.831 35.5808 128.53 37.9963 128.53C40.4118 128.53 41.5546 127.831 42.8759 127.022L42.8766 127.021C44.2803 126.162 45.8715 125.187 48.9102 125.187C51.9494 125.187 53.542 126.162 54.9444 127.022C56.2657 127.831 57.4071 128.53 59.8241 128.53C62.241 128.53 63.3824 127.831 64.7036 127.022L64.7044 127.021C66.1081 126.162 67.6992 125.187 70.7379 125.187C73.7771 125.187 75.3698 126.162 76.7722 127.022C78.0934 127.831 79.2348 128.53 81.6517 128.53C84.0687 128.53 85.2101 127.831 86.5314 127.022L86.5321 127.021C87.9358 126.162 89.5269 125.187 92.5656 125.187C95.6049 125.187 97.1975 126.162 98.5999 127.022C99.9212 127.831 101.063 128.53 103.479 128.53C105.896 128.53 107.036 127.832 108.356 127.023L108.358 127.022L108.358 127.021C109.762 126.162 111.353 125.187 114.392 125.187C117.431 125.187 119.024 126.162 120.426 127.022C121.747 127.831 122.889 128.53 125.306 128.53C127.721 128.53 128.861 127.833 130.182 127.024L130.185 127.022L130.186 127.021C131.59 126.162 133.181 125.187 136.22 125.187C139.259 125.187 140.851 126.162 142.254 127.022C143.575 127.831 144.717 128.53 147.133 128.53C149.55 128.53 150.692 127.831 152.013 127.022L152.014 127.021C153.417 126.162 155.009 125.187 158.047 125.187C161.087 125.187 162.679 126.162 164.082 127.022C165.403 127.831 166.544 128.53 168.961 128.53C171.378 128.53 172.52 127.831 173.841 127.022L173.841 127.021C175.245 126.162 176.836 125.187 179.875 125.187C182.914 125.187 184.507 126.162 185.909 127.022C187.231 127.831 188.372 128.53 190.789 128.53C193.206 128.53 194.347 127.831 195.668 127.022L195.669 127.021C197.073 126.162 198.664 125.187 201.703 125.187C204.742 125.187 206.335 126.162 207.737 127.022C209.058 127.831 210.2 128.53 212.617 128.53C215.034 128.53 216.175 127.831 217.496 127.022L217.497 127.021C218.901 126.162 220.492 125.187 223.53 125.187C226.57 125.187 228.162 126.162 229.566 127.022C230.887 127.831 232.029 128.53 234.446 128.53C236.862 128.53 238.002 127.832 239.322 127.023L239.324 127.022L239.325 127.021C240.728 126.162 242.32 125.187 245.358 125.187C248.397 125.187 249.99 126.162 251.392 127.022C252.714 127.831 253.855 128.53 256.271 128.53C258.686 128.53 259.829 127.831 261.15 127.022L261.151 127.021C262.555 126.162 264.146 125.187 267.184 125.187C270.224 125.187 271.816 126.162 273.22 127.022C274.541 127.831 275.683 128.53 278.1 128.53C280.517 128.53 281.658 127.831 282.979 127.022L282.98 127.021C284.384 126.162 285.975 125.187 289.015 125.187C292.056 125.187 293.647 126.162 295.049 127.022C296.371 127.831 297.512 128.53 299.929 128.53C302.346 128.53 303.487 127.831 304.809 127.022L304.809 127.021C306.213 126.162 307.804 125.187 310.844 125.187C313.884 125.187 315.476 126.162 316.879 127.021L316.88 127.022C318.201 127.831 319.343 128.53 321.76 128.53C324.177 128.53 325.318 127.831 326.639 127.022L326.64 127.021C328.044 126.162 329.635 125.187 332.674 125.187C335.713 125.187 337.305 126.162 338.709 127.022C340.031 127.831 341.172 128.53 343.589 128.53C346.006 128.53 347.147 127.831 348.468 127.022L348.469 127.021C349.873 126.162 351.464 125.187 354.504 125.187C357.544 125.187 359.135 126.162 360.539 127.021L360.54 127.022C361.861 127.831 363.003 128.53 365.419 128.53C367.836 128.53 368.978 127.831 370.299 127.022L370.3 127.021C371.704 126.162 373.295 125.187 376.335 125.187V127.399C376.311 127.399 376.288 127.399 376.265 127.399V348.036H-103.748V127.4Z" fill="url(#paint0_linear_52_1092)"/>
</g>
<path d="M82.4375 148.6V146.365L89.1621 135.945H92.6426V146.301H94.6836V148.6H92.6426V151.5H89.9785V148.6H82.4375ZM85.2949 146.301H90.0215V139.125H89.8496L85.2949 146.193V146.301ZM102.654 151.715C98.9053 151.715 96.6709 148.814 96.6816 143.723C96.6709 138.652 98.9268 135.73 102.654 135.73C106.382 135.73 108.627 138.652 108.627 143.723C108.627 148.825 106.393 151.715 102.654 151.715ZM99.4961 143.723C99.4961 147.461 100.699 149.362 102.654 149.373C104.599 149.362 105.812 147.461 105.812 143.723C105.802 140.017 104.599 138.062 102.654 138.051C100.71 138.062 99.5068 140.017 99.4961 143.723ZM114.793 143.529C112.58 143.54 111.366 141.896 111.377 139.512C111.366 137.148 112.634 135.516 114.793 135.516C117.038 135.516 118.22 137.148 118.23 139.512C118.22 141.918 116.995 143.54 114.793 143.529ZM113.354 139.512C113.364 140.908 113.848 141.811 114.793 141.811C115.771 141.811 116.232 140.908 116.232 139.512C116.232 138.158 115.803 137.224 114.793 137.234C113.848 137.234 113.364 138.169 113.354 139.512ZM113.375 151.5L124.074 135.945H126.244L115.545 151.5H113.375ZM121.539 147.912C121.528 145.538 122.796 143.895 124.955 143.895C127.189 143.895 128.382 145.538 128.393 147.912C128.382 150.297 127.157 151.919 124.955 151.908C122.742 151.919 121.528 150.275 121.539 147.912ZM123.516 147.912C123.526 149.287 124.01 150.2 124.955 150.189C125.933 150.2 126.395 149.287 126.395 147.912C126.395 146.537 125.965 145.603 124.955 145.613C124.01 145.624 123.526 146.548 123.516 147.912Z" fill="white"/>
<path d="M91.2393 159.016V167.5H89.9385V160.305H89.8916L87.8643 161.629V160.398L89.9736 159.016H91.2393ZM96.3486 167.617C94.3857 167.617 93.2314 166.035 93.2314 163.258C93.2314 160.498 94.3975 158.898 96.3486 158.898C98.2939 158.898 99.46 160.498 99.4658 163.258C99.46 166.035 98.3115 167.617 96.3486 167.617ZM94.5205 163.258C94.5146 165.373 95.2002 166.504 96.3486 166.504C97.4912 166.504 98.1768 165.373 98.1768 163.258C98.1768 161.148 97.4854 159.994 96.3486 159.988C95.2061 159.994 94.5205 161.148 94.5205 163.258ZM103.755 167.617C101.792 167.617 100.638 166.035 100.638 163.258C100.638 160.498 101.804 158.898 103.755 158.898C105.7 158.898 106.866 160.498 106.872 163.258C106.866 166.035 105.718 167.617 103.755 167.617ZM101.927 163.258C101.921 165.373 102.606 166.504 103.755 166.504C104.897 166.504 105.583 165.373 105.583 163.258C105.583 161.148 104.892 159.994 103.755 159.988C102.612 159.994 101.927 161.148 101.927 163.258ZM108.325 159.016H109.896L112.579 165.59H112.685L115.368 159.016H116.938V167.5H115.708V161.371H115.626L113.142 167.488H112.122L109.626 161.359H109.556V167.5H108.325V159.016ZM118.673 167.5V159.016H119.962V166.387H123.794V167.5H118.673Z" fill="#F6F6F6"/>
<defs>
<linearGradient id="paint0_linear_52_1092" x1="136.232" y1="125.187" x2="136.232" y2="277.252" gradientUnits="userSpaceOnUse">
<stop offset="0.04" stop-color="#52C8FF"/>
<stop offset="0.515" stop-color="#00E5F2"/>
</linearGradient>
<clipPath id="clip0_52_1092">
<rect x="10.5259" y="10.5" width="186" height="186" rx="93" fill="white"/>
</clipPath>
</defs>
</svg>
