<svg width="207" height="207" viewBox="0 0 207 207" fill="none" xmlns="http://www.w3.org/2000/svg">
<g clip-path="url(#clip0_52_1093)">
<rect x="10.6772" y="10.5" width="186" height="186" rx="93" fill="white"/>
<path d="M95.9317 90.0288C95.6041 90.0288 95.339 90.2957 95.339 90.6264C95.339 90.9571 95.6041 91.224 95.9317 91.224C96.2593 91.224 96.5251 90.9563 96.5251 90.6264C96.5251 90.2965 96.2593 90.0288 95.9317 90.0288ZM112.834 90.6182C111.763 90.6182 110.891 91.4958 110.891 92.5739C110.891 93.652 111.763 94.5296 112.834 94.5296C113.906 94.5296 114.776 93.652 114.776 92.5739C114.776 91.4958 113.905 90.6182 112.834 90.6182ZM112.834 93.4122C112.375 93.4122 112.002 93.0364 112.002 92.5739C112.002 92.1114 112.375 91.7357 112.834 91.7357C113.293 91.7357 113.667 92.1114 113.667 92.5739C113.667 93.0364 113.293 93.4122 112.834 93.4122ZM92.0231 89.5C91.7166 89.5 91.4679 89.7505 91.4679 90.0591V91.1765C91.4679 91.4852 91.7166 91.7357 92.0231 91.7357C92.3296 91.7357 92.5775 91.4852 92.5775 91.1765V90.0591C92.5775 89.7505 92.3296 89.5 92.0231 89.5ZM92.0231 92.8531C91.7166 92.8531 91.4679 93.1036 91.4679 93.4122V94.5296C91.4679 94.8382 91.7166 95.0887 92.0231 95.0887C92.3296 95.0887 92.5775 94.8382 92.5775 94.5296V93.4122C92.5775 93.1036 92.3296 92.8531 92.0231 92.8531ZM90.9127 91.7357H89.803C89.4965 91.7357 89.2478 91.9862 89.2478 92.2948C89.2478 92.6034 89.4965 92.8531 89.803 92.8531H90.9127C91.2191 92.8531 91.4679 92.6034 91.4679 92.2948C91.4679 91.9862 91.2191 91.7357 90.9127 91.7357ZM94.2424 91.7357H93.1328C92.8263 91.7357 92.5775 91.9862 92.5775 92.2948C92.5775 92.6034 92.8263 92.8531 93.1328 92.8531H94.2424C94.5489 92.8531 94.7976 92.6034 94.7976 92.2948C94.7976 91.9862 94.5489 91.7357 94.2424 91.7357ZM95.3529 104.589H94.2424C93.9359 104.589 93.688 104.839 93.688 105.148C93.688 105.457 93.9359 105.707 94.2424 105.707H95.3529C95.6593 105.707 95.9073 105.457 95.9073 105.148C95.9073 104.839 95.6593 104.589 95.3529 104.589ZM98.1274 104.589H97.0177C96.7113 104.589 96.4625 104.839 96.4625 105.148C96.4625 105.457 96.7113 105.707 97.0177 105.707H98.1274C98.4339 105.707 98.6826 105.457 98.6826 105.148C98.6826 104.839 98.4339 104.589 98.1274 104.589ZM98.1274 100.677C97.8209 100.677 97.5722 100.927 97.5722 101.236V101.795C97.5722 102.103 97.8209 102.354 98.1274 102.354C98.4339 102.354 98.6826 102.103 98.6826 101.795V101.236C98.6826 100.927 98.4339 100.677 98.1274 100.677ZM99.7923 100.677C99.4858 100.677 99.237 100.927 99.237 101.236V101.795C99.237 102.103 99.4858 102.354 99.7923 102.354C100.099 102.354 100.347 102.103 100.347 101.795V101.236C100.347 100.927 100.099 100.677 99.7923 100.677ZM100.902 104.589H99.7923C99.4858 104.589 99.237 104.839 99.237 105.148C99.237 105.457 99.4858 105.707 99.7923 105.707H100.902C101.208 105.707 101.457 105.457 101.457 105.148C101.457 104.839 101.208 104.589 100.902 104.589ZM101.457 100.677C101.151 100.677 100.902 100.927 100.902 101.236V101.795C100.902 102.103 101.151 102.354 101.457 102.354C101.764 102.354 102.012 102.103 102.012 101.795V101.236C102.012 100.927 101.764 100.677 101.457 100.677ZM102.012 106.824H100.902C100.595 106.824 100.347 107.075 100.347 107.384C100.347 107.692 100.595 107.942 100.902 107.942H102.012C102.319 107.942 102.567 107.692 102.567 107.384C102.567 107.075 102.319 106.824 102.012 106.824ZM103.122 100.677C102.816 100.677 102.567 100.927 102.567 101.236V101.795C102.567 102.103 102.816 102.354 103.122 102.354C103.428 102.354 103.677 102.103 103.677 101.795V101.236C103.677 100.927 103.428 100.677 103.122 100.677ZM103.677 104.589H102.567C102.26 104.589 102.012 104.839 102.012 105.148C102.012 105.457 102.26 105.707 102.567 105.707H103.677C103.984 105.707 104.232 105.457 104.232 105.148C104.232 104.839 103.984 104.589 103.677 104.589ZM104.787 106.824H103.677C103.371 106.824 103.122 107.075 103.122 107.384C103.122 107.692 103.371 107.942 103.677 107.942H104.787C105.093 107.942 105.342 107.692 105.342 107.384C105.342 107.075 105.093 106.824 104.787 106.824ZM104.787 100.677C104.48 100.677 104.232 100.927 104.232 101.236V101.795C104.232 102.103 104.48 102.354 104.787 102.354C105.093 102.354 105.342 102.103 105.342 101.795V101.236C105.342 100.927 105.093 100.677 104.787 100.677ZM106.452 104.589H105.342C105.036 104.589 104.787 104.839 104.787 105.148C104.787 105.457 105.036 105.707 105.342 105.707H106.452C106.758 105.707 107.007 105.457 107.007 105.148C107.007 104.839 106.758 104.589 106.452 104.589ZM107.561 106.824H106.452C106.145 106.824 105.897 107.075 105.897 107.384C105.897 107.692 106.145 107.942 106.452 107.942H107.561C107.868 107.942 108.117 107.692 108.117 107.384C108.117 107.075 107.868 106.824 107.561 106.824ZM109.226 104.589H108.117C107.81 104.589 107.561 104.839 107.561 105.148C107.561 105.457 107.81 105.707 108.117 105.707H109.226C109.533 105.707 109.782 105.457 109.782 105.148C109.782 104.839 109.533 104.589 109.226 104.589ZM110.337 106.824H109.226C108.92 106.824 108.672 107.075 108.672 107.384C108.672 107.692 108.92 107.942 109.226 107.942H110.337C110.643 107.942 110.891 107.692 110.891 107.384C110.891 107.075 110.643 106.824 110.337 106.824ZM113.111 106.824H112.002C111.695 106.824 111.446 107.075 111.446 107.384C111.446 107.692 111.695 107.942 112.002 107.942H113.111C113.418 107.942 113.667 107.692 113.667 107.384C113.667 107.075 113.418 106.824 113.111 106.824ZM113.111 106.824H112.002C111.695 106.824 111.446 107.075 111.446 107.384C111.446 107.692 111.695 107.942 112.002 107.942H113.111C113.418 107.942 113.667 107.692 113.667 107.384C113.667 107.075 113.418 106.824 113.111 106.824ZM110.337 106.824H109.226C108.92 106.824 108.672 107.075 108.672 107.384C108.672 107.692 108.92 107.942 109.226 107.942H110.337C110.643 107.942 110.891 107.692 110.891 107.384C110.891 107.075 110.643 106.824 110.337 106.824ZM109.782 105.148C109.782 104.839 109.533 104.589 109.226 104.589H108.117C107.81 104.589 107.561 104.839 107.561 105.148C107.561 105.457 107.81 105.707 108.117 105.707H109.226C109.533 105.707 109.782 105.457 109.782 105.148ZM107.561 106.824H106.452C106.145 106.824 105.897 107.075 105.897 107.384C105.897 107.692 106.145 107.942 106.452 107.942H107.561C107.868 107.942 108.117 107.692 108.117 107.384C108.117 107.075 107.868 106.824 107.561 106.824ZM107.007 105.148C107.007 104.839 106.758 104.589 106.452 104.589H105.342C105.036 104.589 104.787 104.839 104.787 105.148C104.787 105.457 105.036 105.707 105.342 105.707H106.452C106.758 105.707 107.007 105.457 107.007 105.148ZM104.787 106.824H103.677C103.371 106.824 103.122 107.075 103.122 107.384C103.122 107.692 103.371 107.942 103.677 107.942H104.787C105.093 107.942 105.342 107.692 105.342 107.384C105.342 107.075 105.093 106.824 104.787 106.824ZM104.232 105.148C104.232 104.839 103.984 104.589 103.677 104.589H102.567C102.26 104.589 102.012 104.839 102.012 105.148C102.012 105.457 102.26 105.707 102.567 105.707H103.677C103.984 105.707 104.232 105.457 104.232 105.148ZM102.012 106.824H100.902C100.595 106.824 100.347 107.075 100.347 107.384C100.347 107.692 100.595 107.942 100.902 107.942H102.012C102.319 107.942 102.567 107.692 102.567 107.384C102.567 107.075 102.319 106.824 102.012 106.824ZM99.7923 105.707H100.902C101.208 105.707 101.457 105.457 101.457 105.148C101.457 104.839 101.208 104.589 100.902 104.589H99.7923C99.4858 104.589 99.237 104.839 99.237 105.148C99.237 105.457 99.4858 105.707 99.7923 105.707ZM97.0177 105.707H98.1274C98.4339 105.707 98.6826 105.457 98.6826 105.148C98.6826 104.839 98.4339 104.589 98.1274 104.589H97.0177C96.7113 104.589 96.4625 104.839 96.4625 105.148C96.4625 105.457 96.7113 105.707 97.0177 105.707ZM94.2424 105.707H95.3529C95.6593 105.707 95.9073 105.457 95.9073 105.148C95.9073 104.839 95.6593 104.589 95.3529 104.589H94.2424C93.9359 104.589 93.688 104.839 93.688 105.148C93.688 105.457 93.9359 105.707 94.2424 105.707ZM104.787 100.677C104.48 100.677 104.232 100.927 104.232 101.236V101.795C104.232 102.103 104.48 102.354 104.787 102.354C105.093 102.354 105.342 102.103 105.342 101.795V101.236C105.342 100.927 105.093 100.677 104.787 100.677ZM103.122 100.677C102.816 100.677 102.567 100.927 102.567 101.236V101.795C102.567 102.103 102.816 102.354 103.122 102.354C103.428 102.354 103.677 102.103 103.677 101.795V101.236C103.677 100.927 103.428 100.677 103.122 100.677ZM101.457 100.677C101.151 100.677 100.902 100.927 100.902 101.236V101.795C100.902 102.103 101.151 102.354 101.457 102.354C101.764 102.354 102.012 102.103 102.012 101.795V101.236C102.012 100.927 101.764 100.677 101.457 100.677ZM99.7923 100.677C99.4858 100.677 99.237 100.927 99.237 101.236V101.795C99.237 102.103 99.4858 102.354 99.7923 102.354C100.099 102.354 100.347 102.103 100.347 101.795V101.236C100.347 100.927 100.099 100.677 99.7923 100.677ZM98.1274 100.677C97.8209 100.677 97.5722 100.927 97.5722 101.236V101.795C97.5722 102.103 97.8209 102.354 98.1274 102.354C98.4339 102.354 98.6826 102.103 98.6826 101.795V101.236C98.6826 100.927 98.4339 100.677 98.1274 100.677ZM118.106 101.795C117.916 101.795 117.747 101.891 117.647 102.039C117.358 102.163 116.548 102.301 115.331 102.429V99.0009C115.331 98.6923 115.083 98.4418 114.776 98.4418H112.002C111.695 98.4418 111.446 98.6923 111.446 99.0009V102.721C110.433 102.774 109.317 102.819 108.117 102.852V100.118H109.227C109.411 100.118 109.583 100.027 109.686 99.8727C109.79 99.7188 109.81 99.524 109.742 99.3513L108.632 96.5573C108.547 96.3453 108.343 96.2061 108.117 96.2061H95.3529C95.1261 96.2061 94.922 96.3453 94.8375 96.5573L93.727 99.3513C93.6587 99.524 93.6799 99.7188 93.7831 99.8727C93.8863 100.027 94.0587 100.118 94.2424 100.118H95.3529V102.69C92.2637 102.511 90.2095 102.255 89.7071 102.039C89.6071 101.891 89.4388 101.795 89.2478 101.795C88.9413 101.795 88.6934 102.045 88.6934 102.354V107.942C88.6934 108.055 88.7267 108.165 88.7901 108.258L91.8118 112.7V112.701L91.9459 112.897C91.9426 112.897 91.9386 112.897 91.9353 112.898L92.7003 114.117C92.8385 114.161 92.9734 114.219 93.1035 114.291L94.2928 114.95C95.3041 115.511 96.5121 115.511 97.5234 114.95L98.7127 114.291C99.3891 113.917 100.196 113.917 100.873 114.291L102.062 114.95C103.072 115.51 104.28 115.51 105.293 114.95L106.482 114.291C107.158 113.917 107.966 113.917 108.643 114.291L109.831 114.95C110.842 115.51 112.05 115.51 113.062 114.95L114.251 114.291C114.37 114.226 114.492 114.172 114.618 114.129L115.422 112.898C115.422 112.898 115.413 112.897 115.409 112.897L115.743 112.406L118.564 108.258C118.627 108.165 118.661 108.055 118.661 107.942V102.354C118.661 102.045 118.412 101.795 118.106 101.795ZM112.556 99.5592H114.221V102.535C113.714 102.577 113.156 102.618 112.556 102.656V99.5592ZM96.4625 100.118H107.007V102.878C105.949 102.899 104.841 102.912 103.677 102.912C100.97 102.912 98.5298 102.848 96.4625 102.749V100.118ZM117.551 107.769L113.81 113.267C113.78 113.283 113.746 113.295 113.715 113.312L112.527 113.971C111.85 114.346 111.042 114.346 110.366 113.971L109.177 113.312C108.165 112.751 106.957 112.751 105.946 113.312L104.757 113.971C104.08 114.346 103.272 114.346 102.596 113.971L101.407 113.312C100.395 112.752 99.1883 112.752 98.177 113.312L96.9868 113.971C96.3113 114.346 95.5033 114.346 94.8269 113.971L93.6376 113.312C93.6067 113.295 93.5742 113.283 93.5433 113.267L89.803 107.769V103.226C90.5265 103.4 91.7142 103.555 93.6628 103.701C96.4406 103.911 100.091 104.031 103.677 104.031C107.264 104.031 110.914 103.91 113.691 103.701C115.639 103.555 116.828 103.4 117.551 103.226V107.769ZM113.111 106.824H112.002C111.695 106.824 111.446 107.075 111.446 107.384C111.446 107.692 111.695 107.942 112.002 107.942H113.111C113.418 107.942 113.667 107.692 113.667 107.384C113.667 107.075 113.418 106.824 113.111 106.824ZM110.337 106.824H109.226C108.92 106.824 108.672 107.075 108.672 107.384C108.672 107.692 108.92 107.942 109.226 107.942H110.337C110.643 107.942 110.891 107.692 110.891 107.384C110.891 107.075 110.643 106.824 110.337 106.824ZM109.782 105.148C109.782 104.839 109.533 104.589 109.226 104.589H108.117C107.81 104.589 107.561 104.839 107.561 105.148C107.561 105.457 107.81 105.707 108.117 105.707H109.226C109.533 105.707 109.782 105.457 109.782 105.148ZM107.561 106.824H106.452C106.145 106.824 105.897 107.075 105.897 107.384C105.897 107.692 106.145 107.942 106.452 107.942H107.561C107.868 107.942 108.117 107.692 108.117 107.384C108.117 107.075 107.868 106.824 107.561 106.824ZM107.007 105.148C107.007 104.839 106.758 104.589 106.452 104.589H105.342C105.036 104.589 104.787 104.839 104.787 105.148C104.787 105.457 105.036 105.707 105.342 105.707H106.452C106.758 105.707 107.007 105.457 107.007 105.148ZM104.787 102.354C105.093 102.354 105.342 102.103 105.342 101.795V101.236C105.342 100.927 105.093 100.677 104.787 100.677C104.48 100.677 104.232 100.927 104.232 101.236V101.795C104.232 102.103 104.48 102.354 104.787 102.354ZM104.787 106.824H103.677C103.371 106.824 103.122 107.075 103.122 107.384C103.122 107.692 103.371 107.942 103.677 107.942H104.787C105.093 107.942 105.342 107.692 105.342 107.384C105.342 107.075 105.093 106.824 104.787 106.824ZM104.232 105.148C104.232 104.839 103.984 104.589 103.677 104.589H102.567C102.26 104.589 102.012 104.839 102.012 105.148C102.012 105.457 102.26 105.707 102.567 105.707H103.677C103.984 105.707 104.232 105.457 104.232 105.148ZM103.677 101.236C103.677 100.927 103.428 100.677 103.122 100.677C102.816 100.677 102.567 100.927 102.567 101.236V101.795C102.567 102.103 102.816 102.354 103.122 102.354C103.428 102.354 103.677 102.103 103.677 101.795V101.236ZM102.012 106.824H100.902C100.595 106.824 100.347 107.075 100.347 107.384C100.347 107.692 100.595 107.942 100.902 107.942H102.012C102.319 107.942 102.567 107.692 102.567 107.384C102.567 107.075 102.319 106.824 102.012 106.824ZM101.457 100.677C101.151 100.677 100.902 100.927 100.902 101.236V101.795C100.902 102.103 101.151 102.354 101.457 102.354C101.764 102.354 102.012 102.103 102.012 101.795V101.236C102.012 100.927 101.764 100.677 101.457 100.677ZM99.7923 105.707H100.902C101.208 105.707 101.457 105.457 101.457 105.148C101.457 104.839 101.208 104.589 100.902 104.589H99.7923C99.4858 104.589 99.237 104.839 99.237 105.148C99.237 105.457 99.4858 105.707 99.7923 105.707ZM99.7923 100.677C99.4858 100.677 99.237 100.927 99.237 101.236V101.795C99.237 102.103 99.4858 102.354 99.7923 102.354C100.099 102.354 100.347 102.103 100.347 101.795V101.236C100.347 100.927 100.099 100.677 99.7923 100.677ZM98.1274 100.677C97.8209 100.677 97.5722 100.927 97.5722 101.236V101.795C97.5722 102.103 97.8209 102.354 98.1274 102.354C98.4339 102.354 98.6826 102.103 98.6826 101.795V101.236C98.6826 100.927 98.4339 100.677 98.1274 100.677ZM97.0177 105.707H98.1274C98.4339 105.707 98.6826 105.457 98.6826 105.148C98.6826 104.839 98.4339 104.589 98.1274 104.589H97.0177C96.7113 104.589 96.4625 104.839 96.4625 105.148C96.4625 105.457 96.7113 105.707 97.0177 105.707ZM94.2424 105.707H95.3529C95.6593 105.707 95.9073 105.457 95.9073 105.148C95.9073 104.839 95.6593 104.589 95.3529 104.589H94.2424C93.9359 104.589 93.688 104.839 93.688 105.148C93.688 105.457 93.9359 105.707 94.2424 105.707ZM98.1274 100.677C97.8209 100.677 97.5722 100.927 97.5722 101.236V101.795C97.5722 102.103 97.8209 102.354 98.1274 102.354C98.4339 102.354 98.6826 102.103 98.6826 101.795V101.236C98.6826 100.927 98.4339 100.677 98.1274 100.677ZM99.7923 100.677C99.4858 100.677 99.237 100.927 99.237 101.236V101.795C99.237 102.103 99.4858 102.354 99.7923 102.354C100.099 102.354 100.347 102.103 100.347 101.795V101.236C100.347 100.927 100.099 100.677 99.7923 100.677ZM101.457 100.677C101.151 100.677 100.902 100.927 100.902 101.236V101.795C100.902 102.103 101.151 102.354 101.457 102.354C101.764 102.354 102.012 102.103 102.012 101.795V101.236C102.012 100.927 101.764 100.677 101.457 100.677ZM103.122 100.677C102.816 100.677 102.567 100.927 102.567 101.236V101.795C102.567 102.103 102.816 102.354 103.122 102.354C103.428 102.354 103.677 102.103 103.677 101.795V101.236C103.677 100.927 103.428 100.677 103.122 100.677ZM104.787 100.677C104.48 100.677 104.232 100.927 104.232 101.236V101.795C104.232 102.103 104.48 102.354 104.787 102.354C105.093 102.354 105.342 102.103 105.342 101.795V101.236C105.342 100.927 105.093 100.677 104.787 100.677ZM95.3529 104.589H94.2424C93.9359 104.589 93.688 104.839 93.688 105.148C93.688 105.457 93.9359 105.707 94.2424 105.707H95.3529C95.6593 105.707 95.9073 105.457 95.9073 105.148C95.9073 104.839 95.6593 104.589 95.3529 104.589ZM98.1274 104.589H97.0177C96.7113 104.589 96.4625 104.839 96.4625 105.148C96.4625 105.457 96.7113 105.707 97.0177 105.707H98.1274C98.4339 105.707 98.6826 105.457 98.6826 105.148C98.6826 104.839 98.4339 104.589 98.1274 104.589ZM100.902 104.589H99.7923C99.4858 104.589 99.237 104.839 99.237 105.148C99.237 105.457 99.4858 105.707 99.7923 105.707H100.902C101.208 105.707 101.457 105.457 101.457 105.148C101.457 104.839 101.208 104.589 100.902 104.589ZM102.012 106.824H100.902C100.595 106.824 100.347 107.075 100.347 107.384C100.347 107.692 100.595 107.942 100.902 107.942H102.012C102.319 107.942 102.567 107.692 102.567 107.384C102.567 107.075 102.319 106.824 102.012 106.824ZM103.677 104.589H102.567C102.26 104.589 102.012 104.839 102.012 105.148C102.012 105.457 102.26 105.707 102.567 105.707H103.677C103.984 105.707 104.232 105.457 104.232 105.148C104.232 104.839 103.984 104.589 103.677 104.589ZM104.787 106.824H103.677C103.371 106.824 103.122 107.075 103.122 107.384C103.122 107.692 103.371 107.942 103.677 107.942H104.787C105.093 107.942 105.342 107.692 105.342 107.384C105.342 107.075 105.093 106.824 104.787 106.824ZM106.452 104.589H105.342C105.036 104.589 104.787 104.839 104.787 105.148C104.787 105.457 105.036 105.707 105.342 105.707H106.452C106.758 105.707 107.007 105.457 107.007 105.148C107.007 104.839 106.758 104.589 106.452 104.589ZM107.561 106.824H106.452C106.145 106.824 105.897 107.075 105.897 107.384C105.897 107.692 106.145 107.942 106.452 107.942H107.561C107.868 107.942 108.117 107.692 108.117 107.384C108.117 107.075 107.868 106.824 107.561 106.824ZM109.226 104.589H108.117C107.81 104.589 107.561 104.839 107.561 105.148C107.561 105.457 107.81 105.707 108.117 105.707H109.226C109.533 105.707 109.782 105.457 109.782 105.148C109.782 104.839 109.533 104.589 109.226 104.589ZM110.337 106.824H109.226C108.92 106.824 108.672 107.075 108.672 107.384C108.672 107.692 108.92 107.942 109.226 107.942H110.337C110.643 107.942 110.891 107.692 110.891 107.384C110.891 107.075 110.643 106.824 110.337 106.824ZM113.111 106.824H112.002C111.695 106.824 111.446 107.075 111.446 107.384C111.446 107.692 111.695 107.942 112.002 107.942H113.111C113.418 107.942 113.667 107.692 113.667 107.384C113.667 107.075 113.418 106.824 113.111 106.824ZM112.527 116.765C111.85 117.14 111.042 117.14 110.366 116.765L109.178 116.107C108.166 115.546 106.958 115.545 105.947 116.107L104.758 116.765C104.081 117.14 103.273 117.14 102.597 116.765L101.408 116.107C100.396 115.546 99.1883 115.546 98.177 116.107L96.9877 116.765C96.3121 117.14 95.5041 117.14 94.8277 116.765L94.1123 116.37L95.1887 118.085C95.9715 118.26 96.7983 118.146 97.5234 117.744L98.7127 117.086C99.3891 116.711 100.196 116.711 100.873 117.086L102.062 117.744C103.072 118.304 104.28 118.305 105.293 117.744L106.482 117.086C107.158 116.711 107.966 116.711 108.643 117.086L109.831 117.744C110.511 118.12 111.279 118.244 112.016 118.114L113.106 116.444L112.527 116.765ZM98.1274 104.589H97.0177C96.7113 104.589 96.4625 104.839 96.4625 105.148C96.4625 105.457 96.7113 105.707 97.0177 105.707H98.1274C98.4339 105.707 98.6826 105.457 98.6826 105.148C98.6826 104.839 98.4339 104.589 98.1274 104.589ZM95.3529 104.589H94.2424C93.9359 104.589 93.688 104.839 93.688 105.148C93.688 105.457 93.9359 105.707 94.2424 105.707H95.3529C95.6593 105.707 95.9073 105.457 95.9073 105.148C95.9073 104.839 95.6593 104.589 95.3529 104.589ZM100.902 104.589H99.7923C99.4858 104.589 99.237 104.839 99.237 105.148C99.237 105.457 99.4858 105.707 99.7923 105.707H100.902C101.208 105.707 101.457 105.457 101.457 105.148C101.457 104.839 101.208 104.589 100.902 104.589ZM103.677 104.589H102.567C102.26 104.589 102.012 104.839 102.012 105.148C102.012 105.457 102.26 105.707 102.567 105.707H103.677C103.984 105.707 104.232 105.457 104.232 105.148C104.232 104.839 103.984 104.589 103.677 104.589ZM106.452 104.589H105.342C105.036 104.589 104.787 104.839 104.787 105.148C104.787 105.457 105.036 105.707 105.342 105.707H106.452C106.758 105.707 107.007 105.457 107.007 105.148C107.007 104.839 106.758 104.589 106.452 104.589ZM109.226 104.589H108.117C107.81 104.589 107.561 104.839 107.561 105.148C107.561 105.457 107.81 105.707 108.117 105.707H109.226C109.533 105.707 109.782 105.457 109.782 105.148C109.782 104.839 109.533 104.589 109.226 104.589ZM102.012 106.824H100.902C100.595 106.824 100.347 107.075 100.347 107.384C100.347 107.692 100.595 107.942 100.902 107.942H102.012C102.319 107.942 102.567 107.692 102.567 107.384C102.567 107.075 102.319 106.824 102.012 106.824ZM104.787 106.824H103.677C103.371 106.824 103.122 107.075 103.122 107.384C103.122 107.692 103.371 107.942 103.677 107.942H104.787C105.093 107.942 105.342 107.692 105.342 107.384C105.342 107.075 105.093 106.824 104.787 106.824ZM107.561 106.824H106.452C106.145 106.824 105.897 107.075 105.897 107.384C105.897 107.692 106.145 107.942 106.452 107.942H107.561C107.868 107.942 108.117 107.692 108.117 107.384C108.117 107.075 107.868 106.824 107.561 106.824ZM110.337 106.824H109.226C108.92 106.824 108.672 107.075 108.672 107.384C108.672 107.692 108.92 107.942 109.226 107.942H110.337C110.643 107.942 110.891 107.692 110.891 107.384C110.891 107.075 110.643 106.824 110.337 106.824ZM113.111 106.824H112.002C111.695 106.824 111.446 107.075 111.446 107.384C111.446 107.692 111.695 107.942 112.002 107.942H113.111C113.418 107.942 113.667 107.692 113.667 107.384C113.667 107.075 113.418 106.824 113.111 106.824ZM98.1274 100.677C97.8209 100.677 97.5722 100.927 97.5722 101.236V101.795C97.5722 102.103 97.8209 102.354 98.1274 102.354C98.4339 102.354 98.6826 102.103 98.6826 101.795V101.236C98.6826 100.927 98.4339 100.677 98.1274 100.677ZM99.7923 100.677C99.4858 100.677 99.237 100.927 99.237 101.236V101.795C99.237 102.103 99.4858 102.354 99.7923 102.354C100.099 102.354 100.347 102.103 100.347 101.795V101.236C100.347 100.927 100.099 100.677 99.7923 100.677ZM101.457 100.677C101.151 100.677 100.902 100.927 100.902 101.236V101.795C100.902 102.103 101.151 102.354 101.457 102.354C101.764 102.354 102.012 102.103 102.012 101.795V101.236C102.012 100.927 101.764 100.677 101.457 100.677ZM103.122 100.677C102.816 100.677 102.567 100.927 102.567 101.236V101.795C102.567 102.103 102.816 102.354 103.122 102.354C103.428 102.354 103.677 102.103 103.677 101.795V101.236C103.677 100.927 103.428 100.677 103.122 100.677ZM104.787 100.677C104.48 100.677 104.232 100.927 104.232 101.236V101.795C104.232 102.103 104.48 102.354 104.787 102.354C105.093 102.354 105.342 102.103 105.342 101.795V101.236C105.342 100.927 105.093 100.677 104.787 100.677Z" fill="#52C8FF"/>
<path fill-rule="evenodd" clip-rule="evenodd" d="M-103.597 111.4C-103.637 111.399 -103.678 111.399 -103.719 111.399V109.187C-100.679 109.187 -99.0874 110.162 -97.685 111.022C-96.3637 111.831 -95.2223 112.53 -92.8054 112.53C-90.3893 112.53 -89.2494 111.832 -87.9287 111.023L-87.9272 111.022L-87.9265 111.021C-86.5228 110.162 -84.9317 109.187 -81.893 109.187C-78.8537 109.187 -77.2611 110.162 -75.8587 111.022C-74.5375 111.831 -73.3961 112.53 -70.9791 112.53C-68.5631 112.53 -67.4231 111.832 -66.1024 111.023L-66.101 111.022L-66.1003 111.021C-64.6966 110.162 -63.1054 109.187 -60.0667 109.187C-57.028 109.187 -55.4369 110.162 -54.0332 111.021L-54.0325 111.022C-52.7112 111.831 -51.5698 112.53 -49.1544 112.53C-46.7396 112.53 -45.5982 111.832 -44.2759 111.022L-44.2748 111.022L-44.274 111.021C-42.8703 110.162 -41.2792 109.187 -38.2405 109.187C-35.2018 109.187 -33.6107 110.162 -32.207 111.021L-32.2062 111.022C-30.885 111.831 -29.7436 112.53 -27.3281 112.53C-24.9126 112.53 -23.7713 111.831 -22.45 111.022L-22.4492 111.021C-21.0456 110.162 -19.4544 109.187 -16.4157 109.187C-13.3765 109.187 -11.7839 110.162 -10.3815 111.022C-9.06019 111.831 -7.91882 112.53 -5.50187 112.53C-3.08579 112.53 -1.94584 111.832 -0.625153 111.023L-0.623734 111.022L-0.622978 111.021C0.780693 110.162 2.37181 109.187 5.41051 109.187C8.44923 109.187 10.0404 110.162 11.444 111.021L11.4448 111.022C12.7661 111.831 13.9074 112.53 16.3229 112.53C18.7384 112.53 19.8798 111.831 21.201 111.022L21.2018 111.021C22.6055 110.162 24.1966 109.187 27.2353 109.187C30.2745 109.187 31.8672 110.162 33.2695 111.022C34.5908 111.831 35.7322 112.53 38.1477 112.53C40.5631 112.53 41.706 111.831 43.0273 111.022L43.028 111.021C44.4317 110.162 46.0228 109.187 49.0616 109.187C52.1008 109.187 53.6934 110.162 55.0958 111.022C56.4171 111.831 57.5585 112.53 59.9754 112.53C62.3923 112.53 63.5337 111.831 64.855 111.022L64.8558 111.021C66.2595 110.162 67.8506 109.187 70.8893 109.187C73.9285 109.187 75.5211 110.162 76.9235 111.022C78.2448 111.831 79.3862 112.53 81.8031 112.53C84.2201 112.53 85.3615 111.831 86.6827 111.022L86.6835 111.021C88.0871 110.162 89.6783 109.187 92.717 109.187C95.7562 109.187 97.3488 110.162 98.7512 111.022C100.073 111.831 101.214 112.53 103.631 112.53C106.047 112.53 107.187 111.832 108.508 111.023L108.509 111.022L108.51 111.021C109.913 110.162 111.505 109.187 114.543 109.187C117.582 109.187 119.175 110.162 120.577 111.022C121.899 111.831 123.04 112.53 125.457 112.53C127.872 112.53 129.012 111.833 130.333 111.024L130.337 111.022L130.337 111.021C131.741 110.162 133.332 109.187 136.371 109.187C139.41 109.187 141.003 110.162 142.405 111.022C143.727 111.831 144.868 112.53 147.285 112.53C149.702 112.53 150.843 111.831 152.164 111.022L152.165 111.021C153.569 110.162 155.16 109.187 158.199 109.187C161.238 109.187 162.831 110.162 164.233 111.022C165.554 111.831 166.696 112.53 169.113 112.53C171.529 112.53 172.671 111.831 173.992 111.022L173.993 111.021C175.397 110.162 176.988 109.187 180.026 109.187C183.066 109.187 184.658 110.162 186.061 111.022C187.382 111.831 188.523 112.53 190.94 112.53C193.357 112.53 194.499 111.831 195.82 111.022L195.821 111.021C197.224 110.162 198.815 109.187 201.854 109.187C204.893 109.187 206.486 110.162 207.888 111.022C209.21 111.831 210.351 112.53 212.768 112.53C215.185 112.53 216.326 111.831 217.648 111.022L217.648 111.021C219.052 110.162 220.643 109.187 223.682 109.187C226.721 109.187 228.314 110.162 229.718 111.022C231.039 111.831 232.18 112.53 234.597 112.53C237.013 112.53 238.153 111.832 239.474 111.023L239.475 111.022L239.476 111.021C240.88 110.162 242.471 109.187 245.51 109.187C248.549 109.187 250.141 110.162 251.544 111.022C252.865 111.831 254.006 112.53 256.422 112.53C258.837 112.53 259.98 111.831 261.302 111.022L261.302 111.021C262.706 110.162 264.297 109.187 267.336 109.187C270.375 109.187 271.968 110.162 273.372 111.022C274.693 111.831 275.834 112.53 278.251 112.53C280.668 112.53 281.809 111.831 283.131 111.022L283.132 111.021C284.535 110.162 286.126 109.187 289.166 109.187C292.207 109.187 293.798 110.162 295.201 111.022C296.522 111.831 297.663 112.53 300.08 112.53C302.497 112.53 303.639 111.831 304.96 111.022L304.961 111.021C306.364 110.162 307.956 109.187 310.996 109.187C314.036 109.187 315.627 110.162 317.031 111.021L317.031 111.022C318.353 111.831 319.494 112.53 321.911 112.53C324.328 112.53 325.469 111.831 326.791 111.022L326.791 111.021C328.195 110.162 329.786 109.187 332.825 109.187C335.864 109.187 337.457 110.162 338.861 111.022C340.182 111.831 341.323 112.53 343.74 112.53C346.157 112.53 347.299 111.831 348.62 111.022L348.621 111.021C350.024 110.162 351.615 109.187 354.656 109.187C357.696 109.187 359.287 110.162 360.69 111.021L360.691 111.022C362.013 111.831 363.154 112.53 365.571 112.53C367.988 112.53 369.129 111.831 370.45 111.022L370.451 111.021C371.855 110.162 373.446 109.187 376.486 109.187V111.399C376.463 111.399 376.439 111.399 376.416 111.399V332.036H-103.597V111.4Z" fill="url(#paint0_linear_52_1093)"/>
</g>
<path d="M88.7012 151.715C85.5967 151.715 83.3086 149.856 83.2227 147.289H85.9512C86.0371 148.546 87.2295 149.448 88.7012 149.459C90.4414 149.448 91.6982 148.191 91.6875 146.473C91.6982 144.689 90.4092 143.433 88.6152 143.422C87.4014 143.411 86.5205 143.841 86.0371 144.754H83.4375L84.3828 135.945H93.5781V138.287H86.6816L86.209 142.412H86.3594C86.9609 141.735 88.0889 141.241 89.3672 141.23C92.2568 141.241 94.4053 143.39 94.3945 146.387C94.4053 149.491 92.0635 151.715 88.7012 151.715ZM102.494 151.715C98.7451 151.715 96.5107 148.814 96.5215 143.723C96.5107 138.652 98.7666 135.73 102.494 135.73C106.222 135.73 108.467 138.652 108.467 143.723C108.467 148.825 106.232 151.715 102.494 151.715ZM99.3359 143.723C99.3359 147.461 100.539 149.362 102.494 149.373C104.438 149.362 105.652 147.461 105.652 143.723C105.642 140.017 104.438 138.062 102.494 138.051C100.55 138.062 99.3467 140.017 99.3359 143.723ZM114.633 143.529C112.42 143.54 111.206 141.896 111.217 139.512C111.206 137.148 112.474 135.516 114.633 135.516C116.878 135.516 118.06 137.148 118.07 139.512C118.06 141.918 116.835 143.54 114.633 143.529ZM113.193 139.512C113.204 140.908 113.688 141.811 114.633 141.811C115.61 141.811 116.072 140.908 116.072 139.512C116.072 138.158 115.643 137.224 114.633 137.234C113.688 137.234 113.204 138.169 113.193 139.512ZM113.215 151.5L123.914 135.945H126.084L115.385 151.5H113.215ZM121.379 147.912C121.368 145.538 122.636 143.895 124.795 143.895C127.029 143.895 128.222 145.538 128.232 147.912C128.222 150.297 126.997 151.919 124.795 151.908C122.582 151.919 121.368 150.275 121.379 147.912ZM123.355 147.912C123.366 149.287 123.85 150.2 124.795 150.189C125.772 150.2 126.234 149.287 126.234 147.912C126.234 146.537 125.805 145.603 124.795 145.613C123.85 145.624 123.366 146.548 123.355 147.912Z" fill="white"/>
<path d="M91.3906 159.016V167.5H90.0898V160.305H90.043L88.0156 161.629V160.398L90.125 159.016H91.3906ZM96.5 167.617C94.5371 167.617 93.3828 166.035 93.3828 163.258C93.3828 160.498 94.5488 158.898 96.5 158.898C98.4453 158.898 99.6113 160.498 99.6172 163.258C99.6113 166.035 98.4629 167.617 96.5 167.617ZM94.6719 163.258C94.666 165.373 95.3516 166.504 96.5 166.504C97.6426 166.504 98.3281 165.373 98.3281 163.258C98.3281 161.148 97.6367 159.994 96.5 159.988C95.3574 159.994 94.6719 161.148 94.6719 163.258ZM103.906 167.617C101.943 167.617 100.789 166.035 100.789 163.258C100.789 160.498 101.955 158.898 103.906 158.898C105.852 158.898 107.018 160.498 107.023 163.258C107.018 166.035 105.869 167.617 103.906 167.617ZM102.078 163.258C102.072 165.373 102.758 166.504 103.906 166.504C105.049 166.504 105.734 165.373 105.734 163.258C105.734 161.148 105.043 159.994 103.906 159.988C102.764 159.994 102.078 161.148 102.078 163.258ZM108.477 159.016H110.047L112.73 165.59H112.836L115.52 159.016H117.09V167.5H115.859V161.371H115.777L113.293 167.488H112.273L109.777 161.359H109.707V167.5H108.477V159.016ZM118.824 167.5V159.016H120.113V166.387H123.945V167.5H118.824Z" fill="#F6F6F6"/>
<defs>
<linearGradient id="paint0_linear_52_1093" x1="136.383" y1="109.187" x2="136.383" y2="261.252" gradientUnits="userSpaceOnUse">
<stop offset="0.04" stop-color="#52C8FF"/>
<stop offset="0.515" stop-color="#00E5F2"/>
</linearGradient>
<clipPath id="clip0_52_1093">
<rect x="10.6772" y="10.5" width="186" height="186" rx="93" fill="white"/>
</clipPath>
</defs>
</svg>
